M48
; DRILL file {KiCad 7.0.7} date Sat Aug 26 15:29:24 2023
; FORMAT={-:-/ absolute / metric / decimal}
; #@! TF.CreationDate,2023-08-26T15:29:24-04:00
; #@! TF.GenerationSoftware,Kicad,Pcbnew,7.0.7
; #@! TF.FileFunction,Plated,1,2,PTH
FMAT,2
METRIC
; #@! TA.AperFunction,Plated,PTH,ViaDrill
T1C0.400
; #@! TA.AperFunction,Plated,PTH,ViaDrill
T2C0.500
; #@! TA.AperFunction,Plated,PTH,ViaDrill
T3C0.600
; #@! TA.AperFunction,Plated,PTH,ComponentDrill
T4C0.600
; #@! TA.AperFunction,Plated,PTH,ViaDrill
T5C0.700
; #@! TA.AperFunction,Plated,PTH,ComponentDrill
T6C0.750
; #@! TA.AperFunction,Plated,PTH,ViaDrill
T7C0.800
; #@! TA.AperFunction,Plated,PTH,ComponentDrill
T8C0.800
; #@! TA.AperFunction,Plated,PTH,ComponentDrill
T9C0.900
; #@! TA.AperFunction,Plated,PTH,ComponentDrill
T10C1.000
; #@! TA.AperFunction,Plated,PTH,ComponentDrill
T11C1.090
; #@! TA.AperFunction,Plated,PTH,ComponentDrill
T12C1.100
; #@! TA.AperFunction,Plated,PTH,ComponentDrill
T13C1.200
; #@! TA.AperFunction,Plated,PTH,ComponentDrill
T14C1.400
; #@! TA.AperFunction,Plated,PTH,ComponentDrill
T15C3.960
%
G90
G05
T1
X29.75Y-17.655
X37.465Y-19.05
X53.975Y-34.925
X57.15Y-34.925
X60.325Y-182.245
X60.325Y-186.055
X62.865Y-32.004
X65.725Y-37.946
X67.945Y-34.29
X80.82Y-37.712
X125.095Y-36.195
X140.97Y-28.575
X145.542Y-31.467
X148.463Y-82.55
X148.971Y-62.23
X148.971Y-64.643
X152.4Y-33.02
X153.264Y-101.201
X154.94Y-109.22
X156.044Y-60.555
X156.21Y-123.19
X156.845Y-20.32
X157.132Y-66.04
X163.195Y-62.865
X163.732Y-113.538
X164.363Y-121.666
X164.846Y-122.682
X168.275Y-34.925
X168.91Y-106.045
X174.727Y-111.582
X176.53Y-33.655
X177.8Y-123.19
T2
X152.908Y-110.49
X152.908Y-163.83
X153.67Y-75.565
X154.94Y-54.61
X155.575Y-93.345
X178.435Y-20.32
T3
X36.195Y-117.475
X36.195Y-170.18
X38.1Y-38.735
X56.508Y-170.18
X56.515Y-117.475
X58.42Y-38.735
X76.835Y-117.475
X76.835Y-170.18
X78.74Y-38.735
X97.148Y-170.18
X97.155Y-117.475
X99.06Y-38.735
X117.475Y-117.475
X117.475Y-170.18
X119.38Y-38.735
X137.788Y-170.18
X137.795Y-117.475
X139.7Y-38.735
X153.67Y-49.53
X154.305Y-41.275
X165.1Y-38.735
X166.37Y-43.815
X167.386Y-100.457
T4
X32.963Y-25.4
X32.963Y-180.34
X33.908Y-23.12
X33.908Y-27.68
X33.908Y-178.06
X33.908Y-182.62
X36.188Y-22.175
X36.188Y-28.625
X36.188Y-177.115
X36.188Y-183.565
X38.469Y-23.12
X38.469Y-27.68
X38.469Y-178.06
X38.469Y-182.62
X39.413Y-25.4
X39.413Y-180.34
X91.383Y-180.34
X92.328Y-178.06
X92.328Y-182.62
X94.608Y-177.115
X94.608Y-183.565
X96.889Y-178.06
X96.889Y-182.62
X97.833Y-180.34
X111.703Y-25.4
X111.703Y-180.34
X112.648Y-23.12
X112.648Y-27.68
X112.648Y-178.06
X112.648Y-182.62
X114.928Y-22.175
X114.928Y-28.625
X114.928Y-177.115
X114.928Y-183.565
X117.209Y-23.12
X117.209Y-27.68
X117.209Y-178.06
X117.209Y-182.62
X118.153Y-25.4
X118.153Y-180.34
X157.423Y-180.34
X157.43Y-25.4
X158.368Y-178.06
X158.368Y-182.62
X158.375Y-23.12
X158.375Y-27.68
X160.648Y-177.115
X160.648Y-183.565
X160.655Y-22.175
X160.655Y-28.625
X162.929Y-178.06
X162.929Y-182.62
X162.935Y-23.12
X162.935Y-27.68
X163.873Y-180.34
X163.88Y-25.4
T5
X161.544Y-93.853
T6
X159.465Y-146.685
X159.465Y-165.735
X174.705Y-146.685
X174.705Y-165.735
T7
X152.908Y-46.101
T8
X23.485Y-22.294
X26.025Y-22.294
X28.565Y-22.294
X34.945Y-32.537
X34.945Y-35.687
X36.195Y-41.91
X36.195Y-44.41
X36.195Y-48.28
X36.195Y-50.78
X36.195Y-54.562
X36.195Y-57.062
X36.195Y-60.98
X36.195Y-63.48
X36.195Y-111.8
X36.195Y-114.3
X36.195Y-163.85
X36.195Y-166.35
X37.445Y-32.537
X37.445Y-35.687
X42.545Y-22.88
X42.545Y-25.38
X45.72Y-20.32
X45.72Y-27.94
X45.72Y-31.75
X48.26Y-20.32
X48.26Y-27.94
X50.8Y-20.32
X50.8Y-27.94
X53.34Y-20.32
X53.34Y-27.94
X55.88Y-20.32
X55.88Y-27.94
X55.88Y-31.75
X56.515Y-41.91
X56.515Y-44.41
X56.515Y-48.3
X56.515Y-50.8
X56.515Y-54.63
X56.515Y-57.13
X56.515Y-61.048
X56.515Y-63.548
X56.515Y-111.78
X56.515Y-114.28
X56.515Y-163.87
X56.515Y-166.37
X58.42Y-20.32
X58.42Y-27.94
X60.325Y-31.75
X60.96Y-20.32
X60.96Y-27.94
X64.135Y-22.88
X64.135Y-25.38
X67.31Y-20.32
X67.31Y-27.94
X69.85Y-20.32
X69.85Y-27.94
X70.485Y-31.75
X72.39Y-20.32
X72.39Y-27.94
X74.93Y-20.32
X74.93Y-27.94
X74.93Y-31.75
X75.585Y-35.56
X76.835Y-41.91
X76.835Y-44.41
X76.835Y-48.3
X76.835Y-50.8
X76.835Y-54.61
X76.835Y-57.11
X76.835Y-60.98
X76.835Y-63.48
X76.835Y-111.8
X76.835Y-114.3
X76.835Y-163.85
X76.835Y-166.35
X77.47Y-20.32
X77.47Y-27.94
X78.085Y-35.56
X80.01Y-20.32
X80.01Y-27.94
X82.55Y-20.32
X82.55Y-27.94
X82.55Y-31.75
X88.265Y-20.32
X88.265Y-30.48
X91.44Y-20.32
X91.44Y-30.48
X94.615Y-20.32
X94.615Y-30.48
X97.155Y-41.95
X97.155Y-44.45
X97.155Y-48.3
X97.155Y-50.8
X97.155Y-54.63
X97.155Y-57.13
X97.155Y-60.96
X97.155Y-63.46
X97.155Y-111.78
X97.155Y-114.28
X97.155Y-163.87
X97.155Y-166.37
X97.79Y-20.32
X97.79Y-30.48
X100.965Y-20.32
X100.965Y-30.48
X104.14Y-20.32
X104.14Y-30.48
X107.315Y-20.32
X107.315Y-30.48
X117.475Y-41.91
X117.475Y-44.41
X117.475Y-48.3
X117.475Y-50.8
X117.475Y-54.61
X117.475Y-57.11
X117.475Y-60.98
X117.475Y-63.48
X117.475Y-111.8
X117.475Y-114.3
X117.475Y-163.83
X117.475Y-166.33
X121.285Y-22.505
X121.285Y-28.295
X123.825Y-22.505
X123.825Y-28.295
X126.365Y-22.505
X126.365Y-28.295
X128.905Y-24.17
X128.905Y-26.67
X137.795Y-41.93
X137.795Y-44.43
X137.795Y-48.3
X137.795Y-50.8
X137.795Y-54.63
X137.795Y-57.13
X137.795Y-61.0
X137.795Y-63.5
X137.795Y-111.78
X137.795Y-114.28
X137.795Y-163.87
X137.795Y-166.37
X159.131Y-125.73
X159.131Y-135.89
X160.02Y-38.1
X161.163Y-48.26
X162.306Y-125.73
X162.306Y-135.89
X162.52Y-38.1
X163.663Y-48.26
X165.481Y-125.73
X165.481Y-135.89
X168.656Y-125.73
X168.656Y-135.89
X171.831Y-125.73
X171.831Y-135.89
X175.006Y-125.73
X175.006Y-135.89
T9
X175.636Y-155.956
X178.176Y-155.956
T10
X21.59Y-194.945
X23.495Y-28.575
X24.13Y-194.945
X26.035Y-28.575
X26.67Y-194.945
X28.575Y-28.575
X29.21Y-194.945
X31.75Y-194.945
X34.29Y-194.945
X36.83Y-194.945
X39.37Y-194.945
X41.91Y-194.945
X44.45Y-194.945
X46.99Y-194.945
X49.53Y-194.945
X52.07Y-194.945
X54.61Y-194.945
X57.15Y-194.945
X59.69Y-194.945
X62.23Y-194.945
X64.77Y-194.945
X67.31Y-194.945
X69.85Y-194.945
X72.39Y-194.945
X74.93Y-194.945
X76.835Y-95.25
X76.835Y-97.79
X76.835Y-100.33
X77.47Y-194.945
X80.01Y-194.945
X82.55Y-194.945
X85.09Y-194.945
X87.63Y-194.945
X90.17Y-194.945
X92.71Y-194.945
X95.25Y-194.945
X97.79Y-194.945
X102.87Y-194.945
X105.41Y-194.945
X107.95Y-194.945
X110.49Y-194.945
X113.03Y-194.945
X115.57Y-194.945
X118.11Y-194.945
X120.65Y-194.945
X123.19Y-194.945
X125.73Y-194.945
X128.27Y-194.945
X130.81Y-194.945
X133.35Y-194.945
X135.89Y-194.945
X138.43Y-194.945
X140.97Y-194.945
X143.51Y-194.945
X146.05Y-194.945
X148.59Y-194.945
X151.13Y-194.945
X153.67Y-194.945
X156.21Y-194.945
X158.75Y-77.47
X158.75Y-194.945
X160.269Y-112.283
X160.269Y-114.823
X160.269Y-117.363
X161.29Y-77.47
X161.29Y-194.945
X162.809Y-112.283
X162.809Y-114.823
X162.809Y-117.363
X163.83Y-77.47
X163.83Y-194.945
X166.37Y-194.945
X168.783Y-109.728
X168.783Y-112.268
X168.783Y-114.808
X168.783Y-117.348
X168.783Y-119.888
X168.91Y-194.945
X171.323Y-109.728
X171.323Y-112.268
X171.323Y-114.808
X171.323Y-117.348
X171.323Y-119.888
X171.45Y-194.945
X172.08Y-38.735
X172.08Y-41.275
X172.08Y-43.815
X173.99Y-194.945
X174.62Y-38.735
X174.62Y-41.275
X174.62Y-43.815
X176.53Y-194.945
X179.07Y-194.945
T11
X23.495Y-40.64
X23.495Y-43.18
X23.495Y-45.72
X23.495Y-48.26
X23.495Y-50.8
X23.495Y-53.34
X23.495Y-55.88
X23.495Y-58.42
X23.495Y-60.96
X23.495Y-63.5
X23.495Y-66.04
X23.495Y-68.58
X23.495Y-71.12
X23.495Y-73.66
X23.495Y-76.2
X23.495Y-78.74
X23.495Y-81.28
X23.495Y-83.82
X23.495Y-86.36
X23.495Y-88.9
X23.495Y-91.44
X23.495Y-93.98
X23.495Y-96.52
X23.495Y-99.06
X23.495Y-101.6
X23.495Y-104.14
X23.495Y-106.68
X23.495Y-109.22
X23.495Y-111.76
X23.495Y-114.3
X23.495Y-116.84
X23.495Y-127.0
X23.495Y-129.54
X23.495Y-132.08
X23.495Y-134.62
X23.495Y-137.16
X23.495Y-139.7
X23.495Y-142.24
X23.495Y-144.78
X23.495Y-147.32
X23.495Y-149.86
X23.495Y-152.4
X23.495Y-154.94
X23.495Y-157.48
X23.495Y-160.02
X23.495Y-162.56
X23.495Y-165.1
X23.495Y-167.64
X23.495Y-170.18
X28.575Y-40.64
X28.575Y-43.18
X28.575Y-45.72
X28.575Y-48.26
X28.575Y-50.8
X28.575Y-53.34
X28.575Y-55.88
X28.575Y-58.42
X28.575Y-60.96
X28.575Y-63.5
X28.575Y-66.04
X28.575Y-68.58
X28.575Y-71.12
X28.575Y-73.66
X28.575Y-76.2
X28.575Y-78.74
X28.575Y-81.28
X28.575Y-83.82
X28.575Y-86.36
X28.575Y-88.9
X28.575Y-91.44
X28.575Y-93.98
X28.575Y-96.52
X28.575Y-99.06
X28.575Y-101.6
X28.575Y-104.14
X28.575Y-106.68
X28.575Y-109.22
X28.575Y-111.76
X28.575Y-114.3
X28.575Y-116.84
X28.575Y-127.0
X28.575Y-129.54
X28.575Y-132.08
X28.575Y-134.62
X28.575Y-137.16
X28.575Y-139.7
X28.575Y-142.24
X28.575Y-144.78
X28.575Y-147.32
X28.575Y-149.86
X28.575Y-152.4
X28.575Y-154.94
X28.575Y-157.48
X28.575Y-160.02
X28.575Y-162.56
X28.575Y-165.1
X28.575Y-167.64
X28.575Y-170.18
X43.815Y-40.64
X43.815Y-43.18
X43.815Y-45.72
X43.815Y-48.26
X43.815Y-50.8
X43.815Y-53.34
X43.815Y-55.88
X43.815Y-58.42
X43.815Y-60.96
X43.815Y-63.5
X43.815Y-66.04
X43.815Y-68.58
X43.815Y-71.12
X43.815Y-73.66
X43.815Y-76.2
X43.815Y-78.74
X43.815Y-81.28
X43.815Y-83.82
X43.815Y-86.36
X43.815Y-88.9
X43.815Y-91.44
X43.815Y-93.98
X43.815Y-96.52
X43.815Y-99.06
X43.815Y-101.6
X43.815Y-104.14
X43.815Y-106.68
X43.815Y-109.22
X43.815Y-111.76
X43.815Y-114.3
X43.815Y-116.84
X43.815Y-127.0
X43.815Y-129.54
X43.815Y-132.08
X43.815Y-134.62
X43.815Y-137.16
X43.815Y-139.7
X43.815Y-142.24
X43.815Y-144.78
X43.815Y-147.32
X43.815Y-149.86
X43.815Y-152.4
X43.815Y-154.94
X43.815Y-157.48
X43.815Y-160.02
X43.815Y-162.56
X43.815Y-165.1
X43.815Y-167.64
X43.815Y-170.18
X48.895Y-40.64
X48.895Y-43.18
X48.895Y-45.72
X48.895Y-48.26
X48.895Y-50.8
X48.895Y-53.34
X48.895Y-55.88
X48.895Y-58.42
X48.895Y-60.96
X48.895Y-63.5
X48.895Y-66.04
X48.895Y-68.58
X48.895Y-71.12
X48.895Y-73.66
X48.895Y-76.2
X48.895Y-78.74
X48.895Y-81.28
X48.895Y-83.82
X48.895Y-86.36
X48.895Y-88.9
X48.895Y-91.44
X48.895Y-93.98
X48.895Y-96.52
X48.895Y-99.06
X48.895Y-101.6
X48.895Y-104.14
X48.895Y-106.68
X48.895Y-109.22
X48.895Y-111.76
X48.895Y-114.3
X48.895Y-116.84
X48.895Y-127.0
X48.895Y-129.54
X48.895Y-132.08
X48.895Y-134.62
X48.895Y-137.16
X48.895Y-139.7
X48.895Y-142.24
X48.895Y-144.78
X48.895Y-147.32
X48.895Y-149.86
X48.895Y-152.4
X48.895Y-154.94
X48.895Y-157.48
X48.895Y-160.02
X48.895Y-162.56
X48.895Y-165.1
X48.895Y-167.64
X48.895Y-170.18
X64.135Y-40.64
X64.135Y-43.18
X64.135Y-45.72
X64.135Y-48.26
X64.135Y-50.8
X64.135Y-53.34
X64.135Y-55.88
X64.135Y-58.42
X64.135Y-60.96
X64.135Y-63.5
X64.135Y-66.04
X64.135Y-68.58
X64.135Y-71.12
X64.135Y-73.66
X64.135Y-76.2
X64.135Y-78.74
X64.135Y-81.28
X64.135Y-83.82
X64.135Y-86.36
X64.135Y-88.9
X64.135Y-91.44
X64.135Y-93.98
X64.135Y-96.52
X64.135Y-99.06
X64.135Y-101.6
X64.135Y-104.14
X64.135Y-106.68
X64.135Y-109.22
X64.135Y-111.76
X64.135Y-114.3
X64.135Y-116.84
X64.135Y-127.0
X64.135Y-129.54
X64.135Y-132.08
X64.135Y-134.62
X64.135Y-137.16
X64.135Y-139.7
X64.135Y-142.24
X64.135Y-144.78
X64.135Y-147.32
X64.135Y-149.86
X64.135Y-152.4
X64.135Y-154.94
X64.135Y-157.48
X64.135Y-160.02
X64.135Y-162.56
X64.135Y-165.1
X64.135Y-167.64
X64.135Y-170.18
X69.215Y-40.64
X69.215Y-43.18
X69.215Y-45.72
X69.215Y-48.26
X69.215Y-50.8
X69.215Y-53.34
X69.215Y-55.88
X69.215Y-58.42
X69.215Y-60.96
X69.215Y-63.5
X69.215Y-66.04
X69.215Y-68.58
X69.215Y-71.12
X69.215Y-73.66
X69.215Y-76.2
X69.215Y-78.74
X69.215Y-81.28
X69.215Y-83.82
X69.215Y-86.36
X69.215Y-88.9
X69.215Y-91.44
X69.215Y-93.98
X69.215Y-96.52
X69.215Y-99.06
X69.215Y-101.6
X69.215Y-104.14
X69.215Y-106.68
X69.215Y-109.22
X69.215Y-111.76
X69.215Y-114.3
X69.215Y-116.84
X69.215Y-127.0
X69.215Y-129.54
X69.215Y-132.08
X69.215Y-134.62
X69.215Y-137.16
X69.215Y-139.7
X69.215Y-142.24
X69.215Y-144.78
X69.215Y-147.32
X69.215Y-149.86
X69.215Y-152.4
X69.215Y-154.94
X69.215Y-157.48
X69.215Y-160.02
X69.215Y-162.56
X69.215Y-165.1
X69.215Y-167.64
X69.215Y-170.18
X84.455Y-40.64
X84.455Y-43.18
X84.455Y-45.72
X84.455Y-48.26
X84.455Y-50.8
X84.455Y-53.34
X84.455Y-55.88
X84.455Y-58.42
X84.455Y-60.96
X84.455Y-63.5
X84.455Y-66.04
X84.455Y-68.58
X84.455Y-71.12
X84.455Y-73.66
X84.455Y-76.2
X84.455Y-78.74
X84.455Y-81.28
X84.455Y-83.82
X84.455Y-86.36
X84.455Y-88.9
X84.455Y-91.44
X84.455Y-93.98
X84.455Y-96.52
X84.455Y-99.06
X84.455Y-101.6
X84.455Y-104.14
X84.455Y-106.68
X84.455Y-109.22
X84.455Y-111.76
X84.455Y-114.3
X84.455Y-116.84
X84.455Y-127.0
X84.455Y-129.54
X84.455Y-132.08
X84.455Y-134.62
X84.455Y-137.16
X84.455Y-139.7
X84.455Y-142.24
X84.455Y-144.78
X84.455Y-147.32
X84.455Y-149.86
X84.455Y-152.4
X84.455Y-154.94
X84.455Y-157.48
X84.455Y-160.02
X84.455Y-162.56
X84.455Y-165.1
X84.455Y-167.64
X84.455Y-170.18
X89.535Y-40.64
X89.535Y-43.18
X89.535Y-45.72
X89.535Y-48.26
X89.535Y-50.8
X89.535Y-53.34
X89.535Y-55.88
X89.535Y-58.42
X89.535Y-60.96
X89.535Y-63.5
X89.535Y-66.04
X89.535Y-68.58
X89.535Y-71.12
X89.535Y-73.66
X89.535Y-76.2
X89.535Y-78.74
X89.535Y-81.28
X89.535Y-83.82
X89.535Y-86.36
X89.535Y-88.9
X89.535Y-91.44
X89.535Y-93.98
X89.535Y-96.52
X89.535Y-99.06
X89.535Y-101.6
X89.535Y-104.14
X89.535Y-106.68
X89.535Y-109.22
X89.535Y-111.76
X89.535Y-114.3
X89.535Y-116.84
X89.535Y-127.0
X89.535Y-129.54
X89.535Y-132.08
X89.535Y-134.62
X89.535Y-137.16
X89.535Y-139.7
X89.535Y-142.24
X89.535Y-144.78
X89.535Y-147.32
X89.535Y-149.86
X89.535Y-152.4
X89.535Y-154.94
X89.535Y-157.48
X89.535Y-160.02
X89.535Y-162.56
X89.535Y-165.1
X89.535Y-167.64
X89.535Y-170.18
X104.775Y-40.64
X104.775Y-43.18
X104.775Y-45.72
X104.775Y-48.26
X104.775Y-50.8
X104.775Y-53.34
X104.775Y-55.88
X104.775Y-58.42
X104.775Y-60.96
X104.775Y-63.5
X104.775Y-66.04
X104.775Y-68.58
X104.775Y-71.12
X104.775Y-73.66
X104.775Y-76.2
X104.775Y-78.74
X104.775Y-81.28
X104.775Y-83.82
X104.775Y-86.36
X104.775Y-88.9
X104.775Y-91.44
X104.775Y-93.98
X104.775Y-96.52
X104.775Y-99.06
X104.775Y-101.6
X104.775Y-104.14
X104.775Y-106.68
X104.775Y-109.22
X104.775Y-111.76
X104.775Y-114.3
X104.775Y-116.84
X104.775Y-127.0
X104.775Y-129.54
X104.775Y-132.08
X104.775Y-134.62
X104.775Y-137.16
X104.775Y-139.7
X104.775Y-142.24
X104.775Y-144.78
X104.775Y-147.32
X104.775Y-149.86
X104.775Y-152.4
X104.775Y-154.94
X104.775Y-157.48
X104.775Y-160.02
X104.775Y-162.56
X104.775Y-165.1
X104.775Y-167.64
X104.775Y-170.18
X109.855Y-40.64
X109.855Y-43.18
X109.855Y-45.72
X109.855Y-48.26
X109.855Y-50.8
X109.855Y-53.34
X109.855Y-55.88
X109.855Y-58.42
X109.855Y-60.96
X109.855Y-63.5
X109.855Y-66.04
X109.855Y-68.58
X109.855Y-71.12
X109.855Y-73.66
X109.855Y-76.2
X109.855Y-78.74
X109.855Y-81.28
X109.855Y-83.82
X109.855Y-86.36
X109.855Y-88.9
X109.855Y-91.44
X109.855Y-93.98
X109.855Y-96.52
X109.855Y-99.06
X109.855Y-101.6
X109.855Y-104.14
X109.855Y-106.68
X109.855Y-109.22
X109.855Y-111.76
X109.855Y-114.3
X109.855Y-116.84
X109.855Y-127.0
X109.855Y-129.54
X109.855Y-132.08
X109.855Y-134.62
X109.855Y-137.16
X109.855Y-139.7
X109.855Y-142.24
X109.855Y-144.78
X109.855Y-147.32
X109.855Y-149.86
X109.855Y-152.4
X109.855Y-154.94
X109.855Y-157.48
X109.855Y-160.02
X109.855Y-162.56
X109.855Y-165.1
X109.855Y-167.64
X109.855Y-170.18
X125.088Y-40.64
X125.088Y-43.18
X125.088Y-45.72
X125.088Y-48.26
X125.088Y-50.8
X125.088Y-53.34
X125.088Y-55.88
X125.088Y-58.42
X125.088Y-60.96
X125.088Y-63.5
X125.088Y-66.04
X125.088Y-68.58
X125.088Y-71.12
X125.088Y-73.66
X125.088Y-76.2
X125.088Y-78.74
X125.088Y-81.28
X125.088Y-83.82
X125.088Y-86.36
X125.088Y-88.9
X125.088Y-91.44
X125.088Y-93.98
X125.088Y-96.52
X125.088Y-99.06
X125.088Y-101.6
X125.088Y-104.14
X125.088Y-106.68
X125.088Y-109.22
X125.088Y-111.76
X125.088Y-114.3
X125.088Y-116.84
X125.088Y-127.0
X125.088Y-129.54
X125.088Y-132.08
X125.088Y-134.62
X125.088Y-137.16
X125.088Y-139.7
X125.088Y-142.24
X125.088Y-144.78
X125.088Y-147.32
X125.088Y-149.86
X125.088Y-152.4
X125.088Y-154.94
X125.088Y-157.48
X125.088Y-160.02
X125.088Y-162.56
X125.088Y-165.1
X125.088Y-167.64
X125.088Y-170.18
X130.168Y-40.64
X130.168Y-43.18
X130.168Y-45.72
X130.168Y-48.26
X130.168Y-50.8
X130.168Y-53.34
X130.168Y-55.88
X130.168Y-58.42
X130.168Y-60.96
X130.168Y-63.5
X130.168Y-66.04
X130.168Y-68.58
X130.168Y-71.12
X130.168Y-73.66
X130.168Y-76.2
X130.168Y-78.74
X130.168Y-81.28
X130.168Y-83.82
X130.168Y-86.36
X130.168Y-88.9
X130.168Y-91.44
X130.168Y-93.98
X130.168Y-96.52
X130.168Y-99.06
X130.168Y-101.6
X130.168Y-104.14
X130.168Y-106.68
X130.168Y-109.22
X130.168Y-111.76
X130.168Y-114.3
X130.168Y-116.84
X130.168Y-127.0
X130.168Y-129.54
X130.168Y-132.08
X130.168Y-134.62
X130.168Y-137.16
X130.168Y-139.7
X130.168Y-142.24
X130.168Y-144.78
X130.168Y-147.32
X130.168Y-149.86
X130.168Y-152.4
X130.168Y-154.94
X130.168Y-157.48
X130.168Y-160.02
X130.168Y-162.56
X130.168Y-165.1
X130.168Y-167.64
X130.168Y-170.18
X145.415Y-40.64
X145.415Y-43.18
X145.415Y-45.72
X145.415Y-48.26
X145.415Y-50.8
X145.415Y-53.34
X145.415Y-55.88
X145.415Y-58.42
X145.415Y-60.96
X145.415Y-63.5
X145.415Y-66.04
X145.415Y-68.58
X145.415Y-71.12
X145.415Y-73.66
X145.415Y-76.2
X145.415Y-78.74
X145.415Y-81.28
X145.415Y-83.82
X145.415Y-86.36
X145.415Y-88.9
X145.415Y-91.44
X145.415Y-93.98
X145.415Y-96.52
X145.415Y-99.06
X145.415Y-101.6
X145.415Y-104.14
X145.415Y-106.68
X145.415Y-109.22
X145.415Y-111.76
X145.415Y-114.3
X145.415Y-116.84
X145.415Y-127.0
X145.415Y-129.54
X145.415Y-132.08
X145.415Y-134.62
X145.415Y-137.16
X145.415Y-139.7
X145.415Y-142.24
X145.415Y-144.78
X145.415Y-147.32
X145.415Y-149.86
X145.415Y-152.4
X145.415Y-154.94
X145.415Y-157.48
X145.415Y-160.02
X145.415Y-162.56
X145.415Y-165.1
X145.415Y-167.64
X145.415Y-170.18
X150.495Y-40.64
X150.495Y-43.18
X150.495Y-45.72
X150.495Y-48.26
X150.495Y-50.8
X150.495Y-53.34
X150.495Y-55.88
X150.495Y-58.42
X150.495Y-60.96
X150.495Y-63.5
X150.495Y-66.04
X150.495Y-68.58
X150.495Y-71.12
X150.495Y-73.66
X150.495Y-76.2
X150.495Y-78.74
X150.495Y-81.28
X150.495Y-83.82
X150.495Y-86.36
X150.495Y-88.9
X150.495Y-91.44
X150.495Y-93.98
X150.495Y-96.52
X150.495Y-99.06
X150.495Y-101.6
X150.495Y-104.14
X150.495Y-106.68
X150.495Y-109.22
X150.495Y-111.76
X150.495Y-114.3
X150.495Y-116.84
X150.495Y-127.0
X150.495Y-129.54
X150.495Y-132.08
X150.495Y-134.62
X150.495Y-137.16
X150.495Y-139.7
X150.495Y-142.24
X150.495Y-144.78
X150.495Y-147.32
X150.495Y-149.86
X150.495Y-152.4
X150.495Y-154.94
X150.495Y-157.48
X150.495Y-160.02
X150.495Y-162.56
X150.495Y-165.1
X150.495Y-167.64
X150.495Y-170.18
T12
X152.232Y-22.86
X152.232Y-25.4
X152.232Y-27.94
X158.623Y-53.825
X158.75Y-83.734
X161.163Y-53.825
X161.29Y-83.734
X163.703Y-53.825
X163.83Y-83.734
T13
X164.545Y-140.535
X164.545Y-153.035
X164.545Y-159.585
X164.545Y-172.085
X169.545Y-140.535
X169.545Y-153.035
X169.545Y-159.585
X169.545Y-172.085
T14
X170.815Y-54.32
X170.815Y-58.52
X170.815Y-62.72
X170.815Y-66.92
X170.815Y-71.12
X170.815Y-75.32
X170.815Y-79.52
X170.815Y-83.72
X170.815Y-87.92
X170.815Y-92.12
X170.815Y-96.32
X170.815Y-100.52
X176.315Y-54.32
X176.315Y-58.52
X176.315Y-62.72
X176.315Y-66.92
X176.315Y-71.12
X176.315Y-75.32
X176.315Y-79.52
X176.315Y-83.72
X176.315Y-87.92
X176.315Y-92.12
X176.315Y-96.32
X176.315Y-100.52
T15
X36.188Y-25.4
X36.188Y-180.34
X94.608Y-180.34
X114.928Y-25.4
X114.928Y-180.34
X160.648Y-180.34
X160.655Y-25.4
T10
X170.882Y-25.495G85X170.882Y-27.495
G05
X176.582Y-23.495G85X174.582Y-23.495
G05
X176.582Y-29.495G85X174.582Y-29.495
G05
T0
M30
