G04 #@! TF.GenerationSoftware,KiCad,Pcbnew,7.0.7*
G04 #@! TF.CreationDate,2023-09-16T11:57:45-04:00*
G04 #@! TF.ProjectId,1 - ATX 16 bit ISA passive backplane,31202d20-4154-4582-9031-362062697420,2*
G04 #@! TF.SameCoordinates,Original*
G04 #@! TF.FileFunction,Soldermask,Bot*
G04 #@! TF.FilePolarity,Negative*
%FSLAX46Y46*%
G04 Gerber Fmt 4.6, Leading zero omitted, Abs format (unit mm)*
G04 Created by KiCad (PCBNEW 7.0.7) date 2023-09-16 11:57:45*
%MOMM*%
%LPD*%
G01*
G04 APERTURE LIST*
%ADD10C,1.600000*%
%ADD11O,1.600000X1.600000*%
%ADD12R,1.600000X1.600000*%
%ADD13R,1.635000X1.635000*%
%ADD14C,1.635000*%
%ADD15C,0.900000*%
%ADD16C,8.000000*%
%ADD17C,0.001000*%
%ADD18C,2.000000*%
%ADD19R,1.800000X1.800000*%
%ADD20C,1.800000*%
%ADD21O,3.500000X3.500000*%
%ADD22R,2.000000X1.905000*%
%ADD23O,2.000000X1.905000*%
%ADD24R,1.700000X1.700000*%
%ADD25O,1.700000X1.700000*%
%ADD26R,1.500000X1.500000*%
%ADD27C,1.500000*%
%ADD28O,2.500000X2.400000*%
%ADD29C,2.400000*%
G04 APERTURE END LIST*
D10*
X143510000Y-20320000D03*
D11*
X143510000Y-30480000D03*
D12*
X77470000Y-29210000D03*
D11*
X80010000Y-29210000D03*
X82550000Y-29210000D03*
X85090000Y-29210000D03*
X87630000Y-29210000D03*
X90170000Y-29210000D03*
X92710000Y-29210000D03*
X92710000Y-21590000D03*
X90170000Y-21590000D03*
X87630000Y-21590000D03*
X85090000Y-21590000D03*
X82550000Y-21590000D03*
X80010000Y-21590000D03*
X77470000Y-21590000D03*
D13*
X170815000Y-114808000D03*
D14*
X168275000Y-114808000D03*
D13*
X136520000Y-77475000D03*
D14*
X136520000Y-74935000D03*
X139060000Y-77475000D03*
X139060000Y-74935000D03*
D15*
X91383400Y-180340000D03*
X92327981Y-178059581D03*
X92327981Y-182620419D03*
X94608400Y-177115000D03*
D16*
X94608400Y-180340000D03*
D15*
X94608400Y-183565000D03*
X96888819Y-178059581D03*
X96888819Y-182620419D03*
X97833400Y-180340000D03*
D12*
X97155000Y-60960000D03*
D10*
X97155000Y-63460000D03*
D15*
X157430000Y-25400000D03*
X158374581Y-23119581D03*
X158374581Y-27680419D03*
X160655000Y-22175000D03*
D16*
X160655000Y-25400000D03*
D15*
X160655000Y-28625000D03*
X162935419Y-23119581D03*
X162935419Y-27680419D03*
X163880000Y-25400000D03*
D10*
X56515000Y-111780000D03*
X56515000Y-114280000D03*
D17*
X175855000Y-105220000D03*
D18*
X170815000Y-100520000D03*
X170815000Y-96320000D03*
X170815000Y-92120000D03*
X170815000Y-87920000D03*
X170815000Y-83720000D03*
X170815000Y-79520000D03*
X170815000Y-75320000D03*
X170815000Y-71120000D03*
X170815000Y-66920000D03*
X170815000Y-62720000D03*
X170815000Y-58520000D03*
X170815000Y-54320000D03*
X176315000Y-100520000D03*
X176315000Y-96320000D03*
X176315000Y-92120000D03*
X176315000Y-87920000D03*
X176315000Y-83720000D03*
X176315000Y-79520000D03*
X176315000Y-75320000D03*
X176315000Y-71120000D03*
X176315000Y-66920000D03*
X176315000Y-62720000D03*
X176315000Y-58520000D03*
X176315000Y-54320000D03*
D10*
X139700000Y-30480000D03*
D11*
X139700000Y-20320000D03*
D15*
X111703400Y-25400000D03*
X112647981Y-23119581D03*
X112647981Y-27680419D03*
X114928400Y-22175000D03*
D16*
X114928400Y-25400000D03*
D15*
X114928400Y-28625000D03*
X117208819Y-23119581D03*
X117208819Y-27680419D03*
X118153400Y-25400000D03*
D19*
X175636000Y-155956000D03*
D20*
X178176000Y-155956000D03*
D13*
X116200000Y-77475000D03*
D14*
X116200000Y-74935000D03*
X118740000Y-77475000D03*
X118740000Y-74935000D03*
D12*
X36195000Y-44410000D03*
D10*
X36195000Y-41910000D03*
D12*
X56515000Y-163870000D03*
D10*
X56515000Y-166370000D03*
D12*
X76835000Y-44410000D03*
D10*
X76835000Y-41910000D03*
X36195000Y-163850000D03*
X36195000Y-166350000D03*
D12*
X56515000Y-61047600D03*
D10*
X56515000Y-63547600D03*
D15*
X157423400Y-180340000D03*
X158367981Y-178059581D03*
X158367981Y-182620419D03*
X160648400Y-177115000D03*
D16*
X160648400Y-180340000D03*
D15*
X160648400Y-183565000D03*
X162928819Y-178059581D03*
X162928819Y-182620419D03*
X163873400Y-180340000D03*
D10*
X117475000Y-163830000D03*
X117475000Y-166330000D03*
X48260000Y-24130000D03*
X48260000Y-26630000D03*
D12*
X117475000Y-111800000D03*
D10*
X117475000Y-114300000D03*
D12*
X36195000Y-111800000D03*
D10*
X36195000Y-114300000D03*
X56515000Y-54630000D03*
X56515000Y-57130000D03*
D13*
X89535000Y-40640000D03*
D14*
X89535000Y-43180000D03*
X89535000Y-45720000D03*
X89535000Y-48260000D03*
X89535000Y-50800000D03*
X89535000Y-53340000D03*
X89535000Y-55880000D03*
X89535000Y-58420000D03*
X89535000Y-60960000D03*
X89535000Y-63500000D03*
X89535000Y-66040000D03*
X89535000Y-68580000D03*
X89535000Y-71120000D03*
X89535000Y-73660000D03*
X89535000Y-76200000D03*
X89535000Y-78740000D03*
X89535000Y-81280000D03*
X89535000Y-83820000D03*
X89535000Y-86360000D03*
X89535000Y-88900000D03*
X89535000Y-91440000D03*
X89535000Y-93980000D03*
X89535000Y-96520000D03*
X89535000Y-99060000D03*
X89535000Y-101600000D03*
X89535000Y-104140000D03*
X89535000Y-106680000D03*
X89535000Y-109220000D03*
X89535000Y-111760000D03*
X89535000Y-114300000D03*
X89535000Y-116840000D03*
X84455000Y-40640000D03*
X84455000Y-43180000D03*
X84455000Y-45720000D03*
X84455000Y-48260000D03*
X84455000Y-50800000D03*
X84455000Y-53340000D03*
X84455000Y-55880000D03*
X84455000Y-58420000D03*
X84455000Y-60960000D03*
X84455000Y-63500000D03*
X84455000Y-66040000D03*
X84455000Y-68580000D03*
X84455000Y-71120000D03*
X84455000Y-73660000D03*
X84455000Y-76200000D03*
X84455000Y-78740000D03*
X84455000Y-81280000D03*
X84455000Y-83820000D03*
X84455000Y-86360000D03*
X84455000Y-88900000D03*
X84455000Y-91440000D03*
X84455000Y-93980000D03*
X84455000Y-96520000D03*
X84455000Y-99060000D03*
X84455000Y-101600000D03*
X84455000Y-104140000D03*
X84455000Y-106680000D03*
X84455000Y-109220000D03*
X84455000Y-111760000D03*
X84455000Y-114300000D03*
X84455000Y-116840000D03*
X89535000Y-127000000D03*
X89535000Y-129540000D03*
X89535000Y-132080000D03*
X89535000Y-134620000D03*
X89535000Y-137160000D03*
X89535000Y-139700000D03*
X89535000Y-142240000D03*
X89535000Y-144780000D03*
X89535000Y-147320000D03*
X89535000Y-149860000D03*
X89535000Y-152400000D03*
X89535000Y-154940000D03*
X89535000Y-157480000D03*
X89535000Y-160020000D03*
X89535000Y-162560000D03*
X89535000Y-165100000D03*
X89535000Y-167640000D03*
X89535000Y-170180000D03*
X84455000Y-127000000D03*
X84455000Y-129540000D03*
X84455000Y-132080000D03*
X84455000Y-134620000D03*
X84455000Y-137160000D03*
X84455000Y-139700000D03*
X84455000Y-142240000D03*
X84455000Y-144780000D03*
X84455000Y-147320000D03*
X84455000Y-149860000D03*
X84455000Y-152400000D03*
X84455000Y-154940000D03*
X84455000Y-157480000D03*
X84455000Y-160020000D03*
X84455000Y-162560000D03*
X84455000Y-165100000D03*
X84455000Y-167640000D03*
X84455000Y-170180000D03*
D10*
X36195000Y-48280000D03*
X36195000Y-50780000D03*
X76835000Y-163850000D03*
X76835000Y-166350000D03*
X132080000Y-20320000D03*
D11*
X132080000Y-30480000D03*
D10*
X56515000Y-44410000D03*
X56515000Y-41910000D03*
D13*
X168275000Y-117348000D03*
D14*
X170815000Y-117348000D03*
D21*
X175070000Y-41275000D03*
D22*
X158410000Y-38735000D03*
D23*
X158410000Y-41275000D03*
X158410000Y-43815000D03*
D24*
X160655000Y-117460000D03*
D25*
X160655000Y-114920000D03*
X160655000Y-112380000D03*
D15*
X111703400Y-180340000D03*
X112647981Y-178059581D03*
X112647981Y-182620419D03*
X114928400Y-177115000D03*
D16*
X114928400Y-180340000D03*
D15*
X114928400Y-183565000D03*
X117208819Y-178059581D03*
X117208819Y-182620419D03*
X118153400Y-180340000D03*
D26*
X158105000Y-100780000D03*
D27*
X160645000Y-100780000D03*
X163185000Y-100780000D03*
D13*
X170815000Y-109728000D03*
D14*
X168275000Y-109728000D03*
D12*
X137795000Y-61000000D03*
D10*
X137795000Y-63500000D03*
D13*
X156845000Y-77470000D03*
D14*
X156845000Y-74930000D03*
X159385000Y-77470000D03*
X159385000Y-74930000D03*
D13*
X150495000Y-40640000D03*
D14*
X150495000Y-43180000D03*
X150495000Y-45720000D03*
X150495000Y-48260000D03*
X150495000Y-50800000D03*
X150495000Y-53340000D03*
X150495000Y-55880000D03*
X150495000Y-58420000D03*
X150495000Y-60960000D03*
X150495000Y-63500000D03*
X150495000Y-66040000D03*
X150495000Y-68580000D03*
X150495000Y-71120000D03*
X150495000Y-73660000D03*
X150495000Y-76200000D03*
X150495000Y-78740000D03*
X150495000Y-81280000D03*
X150495000Y-83820000D03*
X150495000Y-86360000D03*
X150495000Y-88900000D03*
X150495000Y-91440000D03*
X150495000Y-93980000D03*
X150495000Y-96520000D03*
X150495000Y-99060000D03*
X150495000Y-101600000D03*
X150495000Y-104140000D03*
X150495000Y-106680000D03*
X150495000Y-109220000D03*
X150495000Y-111760000D03*
X150495000Y-114300000D03*
X150495000Y-116840000D03*
X145415000Y-40640000D03*
X145415000Y-43180000D03*
X145415000Y-45720000D03*
X145415000Y-48260000D03*
X145415000Y-50800000D03*
X145415000Y-53340000D03*
X145415000Y-55880000D03*
X145415000Y-58420000D03*
X145415000Y-60960000D03*
X145415000Y-63500000D03*
X145415000Y-66040000D03*
X145415000Y-68580000D03*
X145415000Y-71120000D03*
X145415000Y-73660000D03*
X145415000Y-76200000D03*
X145415000Y-78740000D03*
X145415000Y-81280000D03*
X145415000Y-83820000D03*
X145415000Y-86360000D03*
X145415000Y-88900000D03*
X145415000Y-91440000D03*
X145415000Y-93980000D03*
X145415000Y-96520000D03*
X145415000Y-99060000D03*
X145415000Y-101600000D03*
X145415000Y-104140000D03*
X145415000Y-106680000D03*
X145415000Y-109220000D03*
X145415000Y-111760000D03*
X145415000Y-114300000D03*
X145415000Y-116840000D03*
X150495000Y-127000000D03*
X150495000Y-129540000D03*
X150495000Y-132080000D03*
X150495000Y-134620000D03*
X150495000Y-137160000D03*
X150495000Y-139700000D03*
X150495000Y-142240000D03*
X150495000Y-144780000D03*
X150495000Y-147320000D03*
X150495000Y-149860000D03*
X150495000Y-152400000D03*
X150495000Y-154940000D03*
X150495000Y-157480000D03*
X150495000Y-160020000D03*
X150495000Y-162560000D03*
X150495000Y-165100000D03*
X150495000Y-167640000D03*
X150495000Y-170180000D03*
X145415000Y-127000000D03*
X145415000Y-129540000D03*
X145415000Y-132080000D03*
X145415000Y-134620000D03*
X145415000Y-137160000D03*
X145415000Y-139700000D03*
X145415000Y-142240000D03*
X145415000Y-144780000D03*
X145415000Y-147320000D03*
X145415000Y-149860000D03*
X145415000Y-152400000D03*
X145415000Y-154940000D03*
X145415000Y-157480000D03*
X145415000Y-160020000D03*
X145415000Y-162560000D03*
X145415000Y-165100000D03*
X145415000Y-167640000D03*
X145415000Y-170180000D03*
D13*
X34920000Y-77475000D03*
D14*
X34920000Y-74935000D03*
X37460000Y-77475000D03*
X37460000Y-74935000D03*
D13*
X48895000Y-40640000D03*
D14*
X48895000Y-43180000D03*
X48895000Y-45720000D03*
X48895000Y-48260000D03*
X48895000Y-50800000D03*
X48895000Y-53340000D03*
X48895000Y-55880000D03*
X48895000Y-58420000D03*
X48895000Y-60960000D03*
X48895000Y-63500000D03*
X48895000Y-66040000D03*
X48895000Y-68580000D03*
X48895000Y-71120000D03*
X48895000Y-73660000D03*
X48895000Y-76200000D03*
X48895000Y-78740000D03*
X48895000Y-81280000D03*
X48895000Y-83820000D03*
X48895000Y-86360000D03*
X48895000Y-88900000D03*
X48895000Y-91440000D03*
X48895000Y-93980000D03*
X48895000Y-96520000D03*
X48895000Y-99060000D03*
X48895000Y-101600000D03*
X48895000Y-104140000D03*
X48895000Y-106680000D03*
X48895000Y-109220000D03*
X48895000Y-111760000D03*
X48895000Y-114300000D03*
X48895000Y-116840000D03*
X43815000Y-40640000D03*
X43815000Y-43180000D03*
X43815000Y-45720000D03*
X43815000Y-48260000D03*
X43815000Y-50800000D03*
X43815000Y-53340000D03*
X43815000Y-55880000D03*
X43815000Y-58420000D03*
X43815000Y-60960000D03*
X43815000Y-63500000D03*
X43815000Y-66040000D03*
X43815000Y-68580000D03*
X43815000Y-71120000D03*
X43815000Y-73660000D03*
X43815000Y-76200000D03*
X43815000Y-78740000D03*
X43815000Y-81280000D03*
X43815000Y-83820000D03*
X43815000Y-86360000D03*
X43815000Y-88900000D03*
X43815000Y-91440000D03*
X43815000Y-93980000D03*
X43815000Y-96520000D03*
X43815000Y-99060000D03*
X43815000Y-101600000D03*
X43815000Y-104140000D03*
X43815000Y-106680000D03*
X43815000Y-109220000D03*
X43815000Y-111760000D03*
X43815000Y-114300000D03*
X43815000Y-116840000D03*
X48895000Y-127000000D03*
X48895000Y-129540000D03*
X48895000Y-132080000D03*
X48895000Y-134620000D03*
X48895000Y-137160000D03*
X48895000Y-139700000D03*
X48895000Y-142240000D03*
X48895000Y-144780000D03*
X48895000Y-147320000D03*
X48895000Y-149860000D03*
X48895000Y-152400000D03*
X48895000Y-154940000D03*
X48895000Y-157480000D03*
X48895000Y-160020000D03*
X48895000Y-162560000D03*
X48895000Y-165100000D03*
X48895000Y-167640000D03*
X48895000Y-170180000D03*
X43815000Y-127000000D03*
X43815000Y-129540000D03*
X43815000Y-132080000D03*
X43815000Y-134620000D03*
X43815000Y-137160000D03*
X43815000Y-139700000D03*
X43815000Y-142240000D03*
X43815000Y-144780000D03*
X43815000Y-147320000D03*
X43815000Y-149860000D03*
X43815000Y-152400000D03*
X43815000Y-154940000D03*
X43815000Y-157480000D03*
X43815000Y-160020000D03*
X43815000Y-162560000D03*
X43815000Y-165100000D03*
X43815000Y-167640000D03*
X43815000Y-170180000D03*
D28*
X164545000Y-140535000D03*
D29*
X164545000Y-153035000D03*
D28*
X169545000Y-140535000D03*
D29*
X169545000Y-153035000D03*
D27*
X174705000Y-146685000D03*
X159465000Y-146685000D03*
D13*
X75560000Y-77475000D03*
D14*
X75560000Y-74935000D03*
X78100000Y-77475000D03*
X78100000Y-74935000D03*
D10*
X74295000Y-24150000D03*
X74295000Y-26650000D03*
D12*
X76835000Y-57110000D03*
D10*
X76835000Y-54610000D03*
D13*
X130168400Y-40640000D03*
D14*
X130168400Y-43180000D03*
X130168400Y-45720000D03*
X130168400Y-48260000D03*
X130168400Y-50800000D03*
X130168400Y-53340000D03*
X130168400Y-55880000D03*
X130168400Y-58420000D03*
X130168400Y-60960000D03*
X130168400Y-63500000D03*
X130168400Y-66040000D03*
X130168400Y-68580000D03*
X130168400Y-71120000D03*
X130168400Y-73660000D03*
X130168400Y-76200000D03*
X130168400Y-78740000D03*
X130168400Y-81280000D03*
X130168400Y-83820000D03*
X130168400Y-86360000D03*
X130168400Y-88900000D03*
X130168400Y-91440000D03*
X130168400Y-93980000D03*
X130168400Y-96520000D03*
X130168400Y-99060000D03*
X130168400Y-101600000D03*
X130168400Y-104140000D03*
X130168400Y-106680000D03*
X130168400Y-109220000D03*
X130168400Y-111760000D03*
X130168400Y-114300000D03*
X130168400Y-116840000D03*
X125088400Y-40640000D03*
X125088400Y-43180000D03*
X125088400Y-45720000D03*
X125088400Y-48260000D03*
X125088400Y-50800000D03*
X125088400Y-53340000D03*
X125088400Y-55880000D03*
X125088400Y-58420000D03*
X125088400Y-60960000D03*
X125088400Y-63500000D03*
X125088400Y-66040000D03*
X125088400Y-68580000D03*
X125088400Y-71120000D03*
X125088400Y-73660000D03*
X125088400Y-76200000D03*
X125088400Y-78740000D03*
X125088400Y-81280000D03*
X125088400Y-83820000D03*
X125088400Y-86360000D03*
X125088400Y-88900000D03*
X125088400Y-91440000D03*
X125088400Y-93980000D03*
X125088400Y-96520000D03*
X125088400Y-99060000D03*
X125088400Y-101600000D03*
X125088400Y-104140000D03*
X125088400Y-106680000D03*
X125088400Y-109220000D03*
X125088400Y-111760000D03*
X125088400Y-114300000D03*
X125088400Y-116840000D03*
X130168400Y-127000000D03*
X130168400Y-129540000D03*
X130168400Y-132080000D03*
X130168400Y-134620000D03*
X130168400Y-137160000D03*
X130168400Y-139700000D03*
X130168400Y-142240000D03*
X130168400Y-144780000D03*
X130168400Y-147320000D03*
X130168400Y-149860000D03*
X130168400Y-152400000D03*
X130168400Y-154940000D03*
X130168400Y-157480000D03*
X130168400Y-160020000D03*
X130168400Y-162560000D03*
X130168400Y-165100000D03*
X130168400Y-167640000D03*
X130168400Y-170180000D03*
X125088400Y-127000000D03*
X125088400Y-129540000D03*
X125088400Y-132080000D03*
X125088400Y-134620000D03*
X125088400Y-137160000D03*
X125088400Y-139700000D03*
X125088400Y-142240000D03*
X125088400Y-144780000D03*
X125088400Y-147320000D03*
X125088400Y-149860000D03*
X125088400Y-152400000D03*
X125088400Y-154940000D03*
X125088400Y-157480000D03*
X125088400Y-160020000D03*
X125088400Y-162560000D03*
X125088400Y-165100000D03*
X125088400Y-167640000D03*
X125088400Y-170180000D03*
D10*
X159004000Y-135890000D03*
D11*
X159004000Y-125730000D03*
D10*
X165354000Y-135890000D03*
D11*
X165354000Y-125730000D03*
D13*
X28575000Y-40640000D03*
D14*
X28575000Y-43180000D03*
X28575000Y-45720000D03*
X28575000Y-48260000D03*
X28575000Y-50800000D03*
X28575000Y-53340000D03*
X28575000Y-55880000D03*
X28575000Y-58420000D03*
X28575000Y-60960000D03*
X28575000Y-63500000D03*
X28575000Y-66040000D03*
X28575000Y-68580000D03*
X28575000Y-71120000D03*
X28575000Y-73660000D03*
X28575000Y-76200000D03*
X28575000Y-78740000D03*
X28575000Y-81280000D03*
X28575000Y-83820000D03*
X28575000Y-86360000D03*
X28575000Y-88900000D03*
X28575000Y-91440000D03*
X28575000Y-93980000D03*
X28575000Y-96520000D03*
X28575000Y-99060000D03*
X28575000Y-101600000D03*
X28575000Y-104140000D03*
X28575000Y-106680000D03*
X28575000Y-109220000D03*
X28575000Y-111760000D03*
X28575000Y-114300000D03*
X28575000Y-116840000D03*
X23495000Y-40640000D03*
X23495000Y-43180000D03*
X23495000Y-45720000D03*
X23495000Y-48260000D03*
X23495000Y-50800000D03*
X23495000Y-53340000D03*
X23495000Y-55880000D03*
X23495000Y-58420000D03*
X23495000Y-60960000D03*
X23495000Y-63500000D03*
X23495000Y-66040000D03*
X23495000Y-68580000D03*
X23495000Y-71120000D03*
X23495000Y-73660000D03*
X23495000Y-76200000D03*
X23495000Y-78740000D03*
X23495000Y-81280000D03*
X23495000Y-83820000D03*
X23495000Y-86360000D03*
X23495000Y-88900000D03*
X23495000Y-91440000D03*
X23495000Y-93980000D03*
X23495000Y-96520000D03*
X23495000Y-99060000D03*
X23495000Y-101600000D03*
X23495000Y-104140000D03*
X23495000Y-106680000D03*
X23495000Y-109220000D03*
X23495000Y-111760000D03*
X23495000Y-114300000D03*
X23495000Y-116840000D03*
X28575000Y-127000000D03*
X28575000Y-129540000D03*
X28575000Y-132080000D03*
X28575000Y-134620000D03*
X28575000Y-137160000D03*
X28575000Y-139700000D03*
X28575000Y-142240000D03*
X28575000Y-144780000D03*
X28575000Y-147320000D03*
X28575000Y-149860000D03*
X28575000Y-152400000D03*
X28575000Y-154940000D03*
X28575000Y-157480000D03*
X28575000Y-160020000D03*
X28575000Y-162560000D03*
X28575000Y-165100000D03*
X28575000Y-167640000D03*
X28575000Y-170180000D03*
X23495000Y-127000000D03*
X23495000Y-129540000D03*
X23495000Y-132080000D03*
X23495000Y-134620000D03*
X23495000Y-137160000D03*
X23495000Y-139700000D03*
X23495000Y-142240000D03*
X23495000Y-144780000D03*
X23495000Y-147320000D03*
X23495000Y-149860000D03*
X23495000Y-152400000D03*
X23495000Y-154940000D03*
X23495000Y-157480000D03*
X23495000Y-160020000D03*
X23495000Y-162560000D03*
X23495000Y-165100000D03*
X23495000Y-167640000D03*
X23495000Y-170180000D03*
D12*
X117475000Y-57110000D03*
D10*
X117475000Y-54610000D03*
D28*
X164545000Y-159585000D03*
D29*
X164545000Y-172085000D03*
D28*
X169545000Y-159585000D03*
D29*
X169545000Y-172085000D03*
D27*
X174705000Y-165735000D03*
X159465000Y-165735000D03*
D10*
X101600000Y-24150000D03*
X101600000Y-26650000D03*
X76835000Y-48300000D03*
X76835000Y-50800000D03*
X137795000Y-54630000D03*
X137795000Y-57130000D03*
D12*
X128270000Y-21590000D03*
D11*
X128270000Y-29210000D03*
D10*
X96520000Y-24170000D03*
X96520000Y-26670000D03*
D15*
X32963400Y-180340000D03*
X33907981Y-178059581D03*
X33907981Y-182620419D03*
X36188400Y-177115000D03*
D16*
X36188400Y-180340000D03*
D15*
X36188400Y-183565000D03*
X38468819Y-178059581D03*
X38468819Y-182620419D03*
X39413400Y-180340000D03*
D10*
X97155000Y-54630000D03*
X97155000Y-57130000D03*
X99060000Y-24150000D03*
X99060000Y-26650000D03*
X117475000Y-48300000D03*
X117475000Y-50800000D03*
D24*
X21590000Y-194945000D03*
D25*
X24130000Y-194945000D03*
X26670000Y-194945000D03*
X29210000Y-194945000D03*
X31750000Y-194945000D03*
X34290000Y-194945000D03*
X36830000Y-194945000D03*
X39370000Y-194945000D03*
X41910000Y-194945000D03*
X44450000Y-194945000D03*
X46990000Y-194945000D03*
X49530000Y-194945000D03*
X52070000Y-194945000D03*
X54610000Y-194945000D03*
X57150000Y-194945000D03*
X59690000Y-194945000D03*
X62230000Y-194945000D03*
X64770000Y-194945000D03*
X67310000Y-194945000D03*
X69850000Y-194945000D03*
X72390000Y-194945000D03*
X74930000Y-194945000D03*
X77470000Y-194945000D03*
X80010000Y-194945000D03*
X82550000Y-194945000D03*
X85090000Y-194945000D03*
X87630000Y-194945000D03*
X90170000Y-194945000D03*
X92710000Y-194945000D03*
X95250000Y-194945000D03*
X97790000Y-194945000D03*
D10*
X76835000Y-60980000D03*
X76835000Y-63480000D03*
X174879000Y-135890000D03*
D11*
X174879000Y-125730000D03*
D10*
X117475000Y-60980000D03*
X117475000Y-63480000D03*
D15*
X32963400Y-25400000D03*
X33907981Y-23119581D03*
X33907981Y-27680419D03*
X36188400Y-22175000D03*
D16*
X36188400Y-25400000D03*
D15*
X36188400Y-28625000D03*
X38468819Y-23119581D03*
X38468819Y-27680419D03*
X39413400Y-25400000D03*
D24*
X102870000Y-194945000D03*
D25*
X105410000Y-194945000D03*
X107950000Y-194945000D03*
X110490000Y-194945000D03*
X113030000Y-194945000D03*
X115570000Y-194945000D03*
X118110000Y-194945000D03*
X120650000Y-194945000D03*
X123190000Y-194945000D03*
X125730000Y-194945000D03*
X128270000Y-194945000D03*
X130810000Y-194945000D03*
X133350000Y-194945000D03*
X135890000Y-194945000D03*
X138430000Y-194945000D03*
X140970000Y-194945000D03*
X143510000Y-194945000D03*
X146050000Y-194945000D03*
X148590000Y-194945000D03*
X151130000Y-194945000D03*
X153670000Y-194945000D03*
X156210000Y-194945000D03*
X158750000Y-194945000D03*
X161290000Y-194945000D03*
X163830000Y-194945000D03*
X166370000Y-194945000D03*
X168910000Y-194945000D03*
X171450000Y-194945000D03*
X173990000Y-194945000D03*
X176530000Y-194945000D03*
X179070000Y-194945000D03*
D10*
X137795000Y-44430000D03*
X137795000Y-41930000D03*
X162179000Y-135890000D03*
D11*
X162179000Y-125730000D03*
D12*
X97155000Y-48300000D03*
D10*
X97155000Y-50800000D03*
D12*
X97155000Y-163870000D03*
D10*
X97155000Y-166370000D03*
D12*
X76835000Y-111800000D03*
D10*
X76835000Y-114300000D03*
D12*
X36195000Y-57062400D03*
D10*
X36195000Y-54562400D03*
D12*
X51435000Y-29190000D03*
D11*
X53975000Y-29190000D03*
X56515000Y-29190000D03*
X59055000Y-29190000D03*
X61595000Y-29190000D03*
X64135000Y-29190000D03*
X66675000Y-29190000D03*
X66675000Y-21570000D03*
X64135000Y-21570000D03*
X61595000Y-21570000D03*
X59055000Y-21570000D03*
X56515000Y-21570000D03*
X53975000Y-21570000D03*
X51435000Y-21570000D03*
D13*
X69215000Y-40640000D03*
D14*
X69215000Y-43180000D03*
X69215000Y-45720000D03*
X69215000Y-48260000D03*
X69215000Y-50800000D03*
X69215000Y-53340000D03*
X69215000Y-55880000D03*
X69215000Y-58420000D03*
X69215000Y-60960000D03*
X69215000Y-63500000D03*
X69215000Y-66040000D03*
X69215000Y-68580000D03*
X69215000Y-71120000D03*
X69215000Y-73660000D03*
X69215000Y-76200000D03*
X69215000Y-78740000D03*
X69215000Y-81280000D03*
X69215000Y-83820000D03*
X69215000Y-86360000D03*
X69215000Y-88900000D03*
X69215000Y-91440000D03*
X69215000Y-93980000D03*
X69215000Y-96520000D03*
X69215000Y-99060000D03*
X69215000Y-101600000D03*
X69215000Y-104140000D03*
X69215000Y-106680000D03*
X69215000Y-109220000D03*
X69215000Y-111760000D03*
X69215000Y-114300000D03*
X69215000Y-116840000D03*
X64135000Y-40640000D03*
X64135000Y-43180000D03*
X64135000Y-45720000D03*
X64135000Y-48260000D03*
X64135000Y-50800000D03*
X64135000Y-53340000D03*
X64135000Y-55880000D03*
X64135000Y-58420000D03*
X64135000Y-60960000D03*
X64135000Y-63500000D03*
X64135000Y-66040000D03*
X64135000Y-68580000D03*
X64135000Y-71120000D03*
X64135000Y-73660000D03*
X64135000Y-76200000D03*
X64135000Y-78740000D03*
X64135000Y-81280000D03*
X64135000Y-83820000D03*
X64135000Y-86360000D03*
X64135000Y-88900000D03*
X64135000Y-91440000D03*
X64135000Y-93980000D03*
X64135000Y-96520000D03*
X64135000Y-99060000D03*
X64135000Y-101600000D03*
X64135000Y-104140000D03*
X64135000Y-106680000D03*
X64135000Y-109220000D03*
X64135000Y-111760000D03*
X64135000Y-114300000D03*
X64135000Y-116840000D03*
X69215000Y-127000000D03*
X69215000Y-129540000D03*
X69215000Y-132080000D03*
X69215000Y-134620000D03*
X69215000Y-137160000D03*
X69215000Y-139700000D03*
X69215000Y-142240000D03*
X69215000Y-144780000D03*
X69215000Y-147320000D03*
X69215000Y-149860000D03*
X69215000Y-152400000D03*
X69215000Y-154940000D03*
X69215000Y-157480000D03*
X69215000Y-160020000D03*
X69215000Y-162560000D03*
X69215000Y-165100000D03*
X69215000Y-167640000D03*
X69215000Y-170180000D03*
X64135000Y-127000000D03*
X64135000Y-129540000D03*
X64135000Y-132080000D03*
X64135000Y-134620000D03*
X64135000Y-137160000D03*
X64135000Y-139700000D03*
X64135000Y-142240000D03*
X64135000Y-144780000D03*
X64135000Y-147320000D03*
X64135000Y-149860000D03*
X64135000Y-152400000D03*
X64135000Y-154940000D03*
X64135000Y-157480000D03*
X64135000Y-160020000D03*
X64135000Y-162560000D03*
X64135000Y-165100000D03*
X64135000Y-167640000D03*
X64135000Y-170180000D03*
D10*
X137795000Y-111780000D03*
X137795000Y-114280000D03*
X171704000Y-135890000D03*
D11*
X171704000Y-125730000D03*
D10*
X135890000Y-20320000D03*
D11*
X135890000Y-30480000D03*
D10*
X97155000Y-111780000D03*
X97155000Y-114280000D03*
X97155000Y-44450000D03*
X97155000Y-41950000D03*
D13*
X109855000Y-40640000D03*
D14*
X109855000Y-43180000D03*
X109855000Y-45720000D03*
X109855000Y-48260000D03*
X109855000Y-50800000D03*
X109855000Y-53340000D03*
X109855000Y-55880000D03*
X109855000Y-58420000D03*
X109855000Y-60960000D03*
X109855000Y-63500000D03*
X109855000Y-66040000D03*
X109855000Y-68580000D03*
X109855000Y-71120000D03*
X109855000Y-73660000D03*
X109855000Y-76200000D03*
X109855000Y-78740000D03*
X109855000Y-81280000D03*
X109855000Y-83820000D03*
X109855000Y-86360000D03*
X109855000Y-88900000D03*
X109855000Y-91440000D03*
X109855000Y-93980000D03*
X109855000Y-96520000D03*
X109855000Y-99060000D03*
X109855000Y-101600000D03*
X109855000Y-104140000D03*
X109855000Y-106680000D03*
X109855000Y-109220000D03*
X109855000Y-111760000D03*
X109855000Y-114300000D03*
X109855000Y-116840000D03*
X104775000Y-40640000D03*
X104775000Y-43180000D03*
X104775000Y-45720000D03*
X104775000Y-48260000D03*
X104775000Y-50800000D03*
X104775000Y-53340000D03*
X104775000Y-55880000D03*
X104775000Y-58420000D03*
X104775000Y-60960000D03*
X104775000Y-63500000D03*
X104775000Y-66040000D03*
X104775000Y-68580000D03*
X104775000Y-71120000D03*
X104775000Y-73660000D03*
X104775000Y-76200000D03*
X104775000Y-78740000D03*
X104775000Y-81280000D03*
X104775000Y-83820000D03*
X104775000Y-86360000D03*
X104775000Y-88900000D03*
X104775000Y-91440000D03*
X104775000Y-93980000D03*
X104775000Y-96520000D03*
X104775000Y-99060000D03*
X104775000Y-101600000D03*
X104775000Y-104140000D03*
X104775000Y-106680000D03*
X104775000Y-109220000D03*
X104775000Y-111760000D03*
X104775000Y-114300000D03*
X104775000Y-116840000D03*
X109855000Y-127000000D03*
X109855000Y-129540000D03*
X109855000Y-132080000D03*
X109855000Y-134620000D03*
X109855000Y-137160000D03*
X109855000Y-139700000D03*
X109855000Y-142240000D03*
X109855000Y-144780000D03*
X109855000Y-147320000D03*
X109855000Y-149860000D03*
X109855000Y-152400000D03*
X109855000Y-154940000D03*
X109855000Y-157480000D03*
X109855000Y-160020000D03*
X109855000Y-162560000D03*
X109855000Y-165100000D03*
X109855000Y-167640000D03*
X109855000Y-170180000D03*
X104775000Y-127000000D03*
X104775000Y-129540000D03*
X104775000Y-132080000D03*
X104775000Y-134620000D03*
X104775000Y-137160000D03*
X104775000Y-139700000D03*
X104775000Y-142240000D03*
X104775000Y-144780000D03*
X104775000Y-147320000D03*
X104775000Y-149860000D03*
X104775000Y-152400000D03*
X104775000Y-154940000D03*
X104775000Y-157480000D03*
X104775000Y-160020000D03*
X104775000Y-162560000D03*
X104775000Y-165100000D03*
X104775000Y-167640000D03*
X104775000Y-170180000D03*
D12*
X137795000Y-48300000D03*
D10*
X137795000Y-50800000D03*
D12*
X117475000Y-44410000D03*
D10*
X117475000Y-41910000D03*
X147320000Y-20320000D03*
D11*
X147320000Y-30480000D03*
D10*
X36195000Y-60980000D03*
X36195000Y-63480000D03*
D24*
X159385000Y-54610000D03*
D25*
X159385000Y-52070000D03*
X159385000Y-49530000D03*
D12*
X137795000Y-163870000D03*
D10*
X137795000Y-166370000D03*
D13*
X168275000Y-112268000D03*
D14*
X170815000Y-112268000D03*
D13*
X55245000Y-77470000D03*
D14*
X55245000Y-74930000D03*
X57785000Y-77470000D03*
X57785000Y-74930000D03*
D13*
X168275000Y-119888000D03*
D14*
X170815000Y-119888000D03*
D12*
X56515000Y-48300000D03*
D10*
X56515000Y-50800000D03*
X168529000Y-135890000D03*
D11*
X168529000Y-125730000D03*
D13*
X95880000Y-77475000D03*
D14*
X95880000Y-74935000D03*
X98420000Y-77475000D03*
X98420000Y-74935000D03*
M02*
