M48
; DRILL file {KiCad 7.0.6} date Tue Aug 15 13:49:35 2023
; FORMAT={-:-/ absolute / metric / decimal}
; #@! TF.CreationDate,2023-08-15T13:49:35-04:00
; #@! TF.GenerationSoftware,Kicad,Pcbnew,7.0.6
; #@! TF.FileFunction,Plated,1,2,PTH
FMAT,2
METRIC
; #@! TA.AperFunction,Plated,PTH,ViaDrill
T1C0.400
; #@! TA.AperFunction,Plated,PTH,ViaDrill
T2C0.600
; #@! TA.AperFunction,Plated,PTH,ComponentDrill
T3C0.600
; #@! TA.AperFunction,Plated,PTH,ComponentDrill
T4C0.800
; #@! TA.AperFunction,Plated,PTH,ComponentDrill
T5C0.900
; #@! TA.AperFunction,Plated,PTH,ComponentDrill
T6C1.000
; #@! TA.AperFunction,Plated,PTH,ComponentDrill
T7C1.090
; #@! TA.AperFunction,Plated,PTH,ComponentDrill
T8C1.100
; #@! TA.AperFunction,Plated,PTH,ComponentDrill
T9C1.300
; #@! TA.AperFunction,Plated,PTH,ComponentDrill
T10C1.400
; #@! TA.AperFunction,Plated,PTH,ComponentDrill
T11C3.960
%
G90
G05
T1
X59.193Y-36.529
X70.473Y-31.547
X71.748Y-88.265
X79.508Y-38.233
X86.988Y-67.945
X86.988Y-70.485
X86.988Y-73.025
X91.163Y-35.643
X92.71Y-32.756
X95.892Y-18.439
X96.884Y-27.504
X99.067Y-35.994
X103.829Y-34.425
X109.759Y-25.456
X110.621Y-38.035
X119.062Y-33.972
X122.0Y-119.487
X122.003Y-121.666
X127.083Y-83.817
X127.311Y-103.822
X128.562Y-19.766
X132.353Y-37.403
X147.724Y-47.826
X150.552Y-174.047
X153.5Y-41.537
X156.21Y-133.35
X156.303Y-113.983
X157.688Y-133.963
X163.71Y-156.845
X167.184Y-17.031
X168.593Y-123.19
X169.264Y-99.964
X171.689Y-135.688
X173.419Y-21.59
X177.321Y-78.635
X177.8Y-26.67
X178.704Y-32.206
T2
X36.188Y-39.37
X36.188Y-63.5
X36.188Y-117.475
X56.508Y-39.37
X56.508Y-116.84
X56.508Y-170.18
X76.822Y-39.37
X76.822Y-63.5
X76.822Y-117.475
X97.148Y-39.37
X97.148Y-116.84
X97.148Y-170.18
X108.461Y-36.878
X117.462Y-39.37
X117.462Y-63.5
X117.462Y-117.475
X137.788Y-39.37
X137.788Y-116.84
X137.788Y-170.18
X152.393Y-39.37
X152.393Y-62.23
X152.393Y-115.57
X152.393Y-168.91
X154.933Y-72.335
X154.933Y-110.49
X154.933Y-163.195
X154.94Y-44.45
X156.845Y-58.42
X157.48Y-48.26
X164.458Y-54.61
X164.458Y-78.74
X166.663Y-96.28
X167.337Y-89.583
X168.414Y-92.205
T3
X32.963Y-25.4
X32.963Y-180.34
X33.908Y-23.12
X33.908Y-27.68
X33.908Y-178.06
X33.908Y-182.62
X36.188Y-22.175
X36.188Y-28.625
X36.188Y-177.115
X36.188Y-183.565
X38.469Y-23.12
X38.469Y-27.68
X38.469Y-178.06
X38.469Y-182.62
X39.413Y-25.4
X39.413Y-180.34
X91.383Y-180.34
X92.328Y-178.06
X92.328Y-182.62
X94.608Y-177.115
X94.608Y-183.565
X96.889Y-178.06
X96.889Y-182.62
X97.833Y-180.34
X111.703Y-25.4
X111.703Y-180.34
X112.648Y-23.12
X112.648Y-27.68
X112.648Y-178.06
X112.648Y-182.62
X114.928Y-22.175
X114.928Y-28.625
X114.928Y-177.115
X114.928Y-183.565
X117.209Y-23.12
X117.209Y-27.68
X117.209Y-178.06
X117.209Y-182.62
X118.153Y-25.4
X118.153Y-180.34
X157.423Y-25.4
X157.423Y-180.34
X158.368Y-23.12
X158.368Y-27.68
X158.368Y-178.06
X158.368Y-182.62
X160.648Y-22.175
X160.648Y-28.625
X160.648Y-177.115
X160.648Y-183.565
X162.929Y-23.12
X162.929Y-27.68
X162.929Y-178.06
X162.929Y-182.62
X163.873Y-25.4
X163.873Y-180.34
T4
X23.1Y-20.32
X23.1Y-30.48
X26.515Y-20.32
X26.515Y-30.48
X29.845Y-20.32
X29.845Y-30.48
X36.188Y-43.18
X36.188Y-45.68
X36.188Y-55.92
X36.188Y-58.42
X36.188Y-111.76
X36.188Y-114.26
X41.903Y-24.15
X41.903Y-26.65
X45.078Y-21.58
X45.078Y-29.2
X47.618Y-21.58
X47.618Y-29.2
X50.158Y-21.58
X50.158Y-29.2
X52.698Y-21.58
X52.698Y-29.2
X55.238Y-21.58
X55.238Y-29.2
X56.508Y-48.26
X56.508Y-50.76
X56.508Y-60.96
X56.508Y-63.46
X56.508Y-86.4
X56.508Y-88.9
X56.508Y-163.918
X56.508Y-166.418
X57.778Y-21.58
X57.778Y-29.2
X60.318Y-21.58
X60.318Y-29.2
X64.763Y-24.15
X64.763Y-26.65
X66.675Y-33.02
X67.933Y-21.58
X67.933Y-29.2
X70.473Y-21.58
X70.473Y-29.2
X73.013Y-21.58
X73.013Y-29.2
X74.295Y-33.02
X75.553Y-21.58
X75.553Y-29.2
X76.828Y-43.18
X76.828Y-45.68
X76.828Y-55.88
X76.828Y-58.38
X76.828Y-111.76
X76.828Y-114.26
X76.835Y-33.02
X78.093Y-21.58
X78.093Y-29.2
X80.633Y-21.58
X80.633Y-29.2
X83.173Y-21.58
X83.173Y-29.2
X84.455Y-33.02
X89.535Y-20.32
X89.535Y-30.48
X92.71Y-20.32
X92.71Y-30.48
X95.892Y-20.32
X95.892Y-30.48
X97.148Y-50.8
X97.148Y-53.3
X97.148Y-60.96
X97.148Y-63.46
X97.148Y-86.36
X97.148Y-88.86
X97.148Y-163.918
X97.148Y-166.418
X99.067Y-20.32
X99.067Y-30.48
X102.242Y-20.32
X102.242Y-30.48
X105.417Y-20.32
X105.417Y-30.48
X108.592Y-20.32
X108.592Y-30.48
X117.468Y-43.18
X117.468Y-45.68
X117.468Y-55.88
X117.468Y-58.38
X117.468Y-111.76
X117.468Y-114.26
X122.548Y-20.995
X122.548Y-23.495
X122.548Y-28.575
X122.548Y-31.075
X137.788Y-50.8
X137.788Y-53.3
X137.788Y-60.96
X137.788Y-63.46
X137.788Y-86.4
X137.788Y-88.9
X137.788Y-163.87
X137.788Y-166.37
X158.098Y-114.3
X158.098Y-116.84
X158.098Y-119.38
X158.098Y-121.92
X158.098Y-124.46
X158.098Y-127.0
X158.098Y-129.54
X158.098Y-132.08
X160.658Y-111.125
X163.158Y-111.125
X165.718Y-114.3
X165.718Y-116.84
X165.718Y-119.38
X165.718Y-121.92
X165.718Y-124.46
X165.718Y-127.0
X165.718Y-129.54
X165.718Y-132.08
X169.545Y-114.3
X169.545Y-116.84
X169.545Y-119.38
X169.545Y-121.92
X169.545Y-124.46
X169.545Y-127.0
X169.545Y-129.54
X169.545Y-132.08
X170.815Y-97.155
X172.088Y-111.125
X173.355Y-97.155
X174.588Y-111.125
X175.895Y-97.155
X177.165Y-114.3
X177.165Y-116.84
X177.165Y-119.38
X177.165Y-121.92
X177.165Y-124.46
X177.165Y-127.0
X177.165Y-129.54
X177.165Y-132.08
T5
X160.013Y-139.7
X162.553Y-139.7
X166.358Y-139.7
X168.898Y-139.7
X172.708Y-139.7
X175.248Y-139.7
T6
X21.583Y-194.945
X24.123Y-194.945
X26.663Y-194.945
X29.203Y-194.945
X31.743Y-194.945
X34.283Y-194.945
X34.913Y-74.935
X34.913Y-77.475
X36.823Y-194.945
X37.453Y-74.935
X37.453Y-77.475
X39.363Y-194.945
X41.903Y-194.945
X44.443Y-194.945
X46.983Y-194.945
X49.523Y-194.945
X52.063Y-194.945
X54.603Y-194.945
X55.233Y-74.935
X55.233Y-77.475
X57.143Y-194.945
X57.773Y-74.935
X57.773Y-77.475
X59.683Y-194.945
X62.223Y-194.945
X64.763Y-194.945
X67.303Y-194.945
X69.843Y-194.945
X72.383Y-194.945
X74.923Y-194.945
X75.553Y-74.935
X75.553Y-77.475
X77.463Y-194.945
X78.093Y-74.935
X78.093Y-77.475
X80.003Y-194.945
X82.543Y-194.945
X85.083Y-194.945
X87.623Y-194.945
X90.163Y-194.945
X92.703Y-194.945
X95.243Y-194.945
X95.873Y-74.935
X95.873Y-77.475
X97.783Y-194.945
X98.413Y-74.935
X98.413Y-77.475
X100.323Y-194.945
X102.863Y-194.945
X105.403Y-194.945
X107.943Y-194.945
X110.483Y-194.945
X113.023Y-194.945
X115.563Y-194.945
X116.193Y-74.935
X116.193Y-77.475
X118.103Y-194.945
X118.733Y-74.935
X118.733Y-77.475
X120.643Y-194.945
X125.723Y-194.945
X128.263Y-194.945
X130.803Y-194.945
X133.343Y-194.945
X135.883Y-194.945
X136.518Y-74.93
X136.518Y-77.47
X138.423Y-194.945
X139.058Y-74.93
X139.058Y-77.47
X140.963Y-194.945
X143.503Y-194.945
X146.043Y-194.945
X148.583Y-194.945
X151.123Y-194.945
X153.663Y-194.945
X156.203Y-194.945
X156.838Y-74.93
X156.838Y-77.47
X156.845Y-87.63
X158.743Y-194.945
X159.378Y-74.93
X159.378Y-77.47
X159.385Y-87.63
X160.65Y-103.505
X161.283Y-194.945
X163.19Y-103.505
X163.823Y-194.945
X166.363Y-194.945
X168.898Y-20.32
X168.898Y-22.86
X168.898Y-25.4
X168.898Y-27.94
X168.903Y-194.945
X168.91Y-30.48
X170.815Y-103.505
X171.438Y-20.32
X171.438Y-22.86
X171.438Y-25.4
X171.438Y-27.94
X171.443Y-194.945
X171.45Y-30.48
X173.355Y-103.505
X173.983Y-194.945
X175.895Y-103.505
X176.523Y-194.945
X179.063Y-194.945
T7
X23.495Y-40.64
X23.495Y-43.18
X23.495Y-45.72
X23.495Y-48.26
X23.495Y-50.8
X23.495Y-53.34
X23.495Y-55.88
X23.495Y-58.42
X23.495Y-60.96
X23.495Y-63.5
X23.495Y-66.04
X23.495Y-68.58
X23.495Y-71.12
X23.495Y-73.66
X23.495Y-76.2
X23.495Y-78.74
X23.495Y-81.28
X23.495Y-83.82
X23.495Y-86.36
X23.495Y-88.9
X23.495Y-91.44
X23.495Y-93.98
X23.495Y-96.52
X23.495Y-99.06
X23.495Y-101.6
X23.495Y-104.14
X23.495Y-106.68
X23.495Y-109.22
X23.495Y-111.76
X23.495Y-114.3
X23.495Y-116.84
X23.495Y-127.0
X23.495Y-129.54
X23.495Y-132.08
X23.495Y-134.62
X23.495Y-137.16
X23.495Y-139.7
X23.495Y-142.24
X23.495Y-144.78
X23.495Y-147.32
X23.495Y-149.86
X23.495Y-152.4
X23.495Y-154.94
X23.495Y-157.48
X23.495Y-160.02
X23.495Y-162.56
X23.495Y-165.1
X23.495Y-167.64
X23.495Y-170.18
X28.575Y-40.64
X28.575Y-43.18
X28.575Y-45.72
X28.575Y-48.26
X28.575Y-50.8
X28.575Y-53.34
X28.575Y-55.88
X28.575Y-58.42
X28.575Y-60.96
X28.575Y-63.5
X28.575Y-66.04
X28.575Y-68.58
X28.575Y-71.12
X28.575Y-73.66
X28.575Y-76.2
X28.575Y-78.74
X28.575Y-81.28
X28.575Y-83.82
X28.575Y-86.36
X28.575Y-88.9
X28.575Y-91.44
X28.575Y-93.98
X28.575Y-96.52
X28.575Y-99.06
X28.575Y-101.6
X28.575Y-104.14
X28.575Y-106.68
X28.575Y-109.22
X28.575Y-111.76
X28.575Y-114.3
X28.575Y-116.84
X28.575Y-127.0
X28.575Y-129.54
X28.575Y-132.08
X28.575Y-134.62
X28.575Y-137.16
X28.575Y-139.7
X28.575Y-142.24
X28.575Y-144.78
X28.575Y-147.32
X28.575Y-149.86
X28.575Y-152.4
X28.575Y-154.94
X28.575Y-157.48
X28.575Y-160.02
X28.575Y-162.56
X28.575Y-165.1
X28.575Y-167.64
X28.575Y-170.18
X43.815Y-40.64
X43.815Y-43.18
X43.815Y-45.72
X43.815Y-48.26
X43.815Y-50.8
X43.815Y-53.34
X43.815Y-55.88
X43.815Y-58.42
X43.815Y-60.96
X43.815Y-63.5
X43.815Y-66.04
X43.815Y-68.58
X43.815Y-71.12
X43.815Y-73.66
X43.815Y-76.2
X43.815Y-78.74
X43.815Y-81.28
X43.815Y-83.82
X43.815Y-86.36
X43.815Y-88.9
X43.815Y-91.44
X43.815Y-93.98
X43.815Y-96.52
X43.815Y-99.06
X43.815Y-101.6
X43.815Y-104.14
X43.815Y-106.68
X43.815Y-109.22
X43.815Y-111.76
X43.815Y-114.3
X43.815Y-116.84
X43.815Y-127.0
X43.815Y-129.54
X43.815Y-132.08
X43.815Y-134.62
X43.815Y-137.16
X43.815Y-139.7
X43.815Y-142.24
X43.815Y-144.78
X43.815Y-147.32
X43.815Y-149.86
X43.815Y-152.4
X43.815Y-154.94
X43.815Y-157.48
X43.815Y-160.02
X43.815Y-162.56
X43.815Y-165.1
X43.815Y-167.64
X43.815Y-170.18
X48.895Y-40.64
X48.895Y-43.18
X48.895Y-45.72
X48.895Y-48.26
X48.895Y-50.8
X48.895Y-53.34
X48.895Y-55.88
X48.895Y-58.42
X48.895Y-60.96
X48.895Y-63.5
X48.895Y-66.04
X48.895Y-68.58
X48.895Y-71.12
X48.895Y-73.66
X48.895Y-76.2
X48.895Y-78.74
X48.895Y-81.28
X48.895Y-83.82
X48.895Y-86.36
X48.895Y-88.9
X48.895Y-91.44
X48.895Y-93.98
X48.895Y-96.52
X48.895Y-99.06
X48.895Y-101.6
X48.895Y-104.14
X48.895Y-106.68
X48.895Y-109.22
X48.895Y-111.76
X48.895Y-114.3
X48.895Y-116.84
X48.895Y-127.0
X48.895Y-129.54
X48.895Y-132.08
X48.895Y-134.62
X48.895Y-137.16
X48.895Y-139.7
X48.895Y-142.24
X48.895Y-144.78
X48.895Y-147.32
X48.895Y-149.86
X48.895Y-152.4
X48.895Y-154.94
X48.895Y-157.48
X48.895Y-160.02
X48.895Y-162.56
X48.895Y-165.1
X48.895Y-167.64
X48.895Y-170.18
X64.135Y-40.64
X64.135Y-43.18
X64.135Y-45.72
X64.135Y-48.26
X64.135Y-50.8
X64.135Y-53.34
X64.135Y-55.88
X64.135Y-58.42
X64.135Y-60.96
X64.135Y-63.5
X64.135Y-66.04
X64.135Y-68.58
X64.135Y-71.12
X64.135Y-73.66
X64.135Y-76.2
X64.135Y-78.74
X64.135Y-81.28
X64.135Y-83.82
X64.135Y-86.36
X64.135Y-88.9
X64.135Y-91.44
X64.135Y-93.98
X64.135Y-96.52
X64.135Y-99.06
X64.135Y-101.6
X64.135Y-104.14
X64.135Y-106.68
X64.135Y-109.22
X64.135Y-111.76
X64.135Y-114.3
X64.135Y-116.84
X64.135Y-127.0
X64.135Y-129.54
X64.135Y-132.08
X64.135Y-134.62
X64.135Y-137.16
X64.135Y-139.7
X64.135Y-142.24
X64.135Y-144.78
X64.135Y-147.32
X64.135Y-149.86
X64.135Y-152.4
X64.135Y-154.94
X64.135Y-157.48
X64.135Y-160.02
X64.135Y-162.56
X64.135Y-165.1
X64.135Y-167.64
X64.135Y-170.18
X69.215Y-40.64
X69.215Y-43.18
X69.215Y-45.72
X69.215Y-48.26
X69.215Y-50.8
X69.215Y-53.34
X69.215Y-55.88
X69.215Y-58.42
X69.215Y-60.96
X69.215Y-63.5
X69.215Y-66.04
X69.215Y-68.58
X69.215Y-71.12
X69.215Y-73.66
X69.215Y-76.2
X69.215Y-78.74
X69.215Y-81.28
X69.215Y-83.82
X69.215Y-86.36
X69.215Y-88.9
X69.215Y-91.44
X69.215Y-93.98
X69.215Y-96.52
X69.215Y-99.06
X69.215Y-101.6
X69.215Y-104.14
X69.215Y-106.68
X69.215Y-109.22
X69.215Y-111.76
X69.215Y-114.3
X69.215Y-116.84
X69.215Y-127.0
X69.215Y-129.54
X69.215Y-132.08
X69.215Y-134.62
X69.215Y-137.16
X69.215Y-139.7
X69.215Y-142.24
X69.215Y-144.78
X69.215Y-147.32
X69.215Y-149.86
X69.215Y-152.4
X69.215Y-154.94
X69.215Y-157.48
X69.215Y-160.02
X69.215Y-162.56
X69.215Y-165.1
X69.215Y-167.64
X69.215Y-170.18
X84.455Y-40.64
X84.455Y-43.18
X84.455Y-45.72
X84.455Y-48.26
X84.455Y-50.8
X84.455Y-53.34
X84.455Y-55.88
X84.455Y-58.42
X84.455Y-60.96
X84.455Y-63.5
X84.455Y-66.04
X84.455Y-68.58
X84.455Y-71.12
X84.455Y-73.66
X84.455Y-76.2
X84.455Y-78.74
X84.455Y-81.28
X84.455Y-83.82
X84.455Y-86.36
X84.455Y-88.9
X84.455Y-91.44
X84.455Y-93.98
X84.455Y-96.52
X84.455Y-99.06
X84.455Y-101.6
X84.455Y-104.14
X84.455Y-106.68
X84.455Y-109.22
X84.455Y-111.76
X84.455Y-114.3
X84.455Y-116.84
X84.455Y-127.0
X84.455Y-129.54
X84.455Y-132.08
X84.455Y-134.62
X84.455Y-137.16
X84.455Y-139.7
X84.455Y-142.24
X84.455Y-144.78
X84.455Y-147.32
X84.455Y-149.86
X84.455Y-152.4
X84.455Y-154.94
X84.455Y-157.48
X84.455Y-160.02
X84.455Y-162.56
X84.455Y-165.1
X84.455Y-167.64
X84.455Y-170.18
X89.535Y-40.64
X89.535Y-43.18
X89.535Y-45.72
X89.535Y-48.26
X89.535Y-50.8
X89.535Y-53.34
X89.535Y-55.88
X89.535Y-58.42
X89.535Y-60.96
X89.535Y-63.5
X89.535Y-66.04
X89.535Y-68.58
X89.535Y-71.12
X89.535Y-73.66
X89.535Y-76.2
X89.535Y-78.74
X89.535Y-81.28
X89.535Y-83.82
X89.535Y-86.36
X89.535Y-88.9
X89.535Y-91.44
X89.535Y-93.98
X89.535Y-96.52
X89.535Y-99.06
X89.535Y-101.6
X89.535Y-104.14
X89.535Y-106.68
X89.535Y-109.22
X89.535Y-111.76
X89.535Y-114.3
X89.535Y-116.84
X89.535Y-127.0
X89.535Y-129.54
X89.535Y-132.08
X89.535Y-134.62
X89.535Y-137.16
X89.535Y-139.7
X89.535Y-142.24
X89.535Y-144.78
X89.535Y-147.32
X89.535Y-149.86
X89.535Y-152.4
X89.535Y-154.94
X89.535Y-157.48
X89.535Y-160.02
X89.535Y-162.56
X89.535Y-165.1
X89.535Y-167.64
X89.535Y-170.18
X104.775Y-40.64
X104.775Y-43.18
X104.775Y-45.72
X104.775Y-48.26
X104.775Y-50.8
X104.775Y-53.34
X104.775Y-55.88
X104.775Y-58.42
X104.775Y-60.96
X104.775Y-63.5
X104.775Y-66.04
X104.775Y-68.58
X104.775Y-71.12
X104.775Y-73.66
X104.775Y-76.2
X104.775Y-78.74
X104.775Y-81.28
X104.775Y-83.82
X104.775Y-86.36
X104.775Y-88.9
X104.775Y-91.44
X104.775Y-93.98
X104.775Y-96.52
X104.775Y-99.06
X104.775Y-101.6
X104.775Y-104.14
X104.775Y-106.68
X104.775Y-109.22
X104.775Y-111.76
X104.775Y-114.3
X104.775Y-116.84
X104.775Y-127.0
X104.775Y-129.54
X104.775Y-132.08
X104.775Y-134.62
X104.775Y-137.16
X104.775Y-139.7
X104.775Y-142.24
X104.775Y-144.78
X104.775Y-147.32
X104.775Y-149.86
X104.775Y-152.4
X104.775Y-154.94
X104.775Y-157.48
X104.775Y-160.02
X104.775Y-162.56
X104.775Y-165.1
X104.775Y-167.64
X104.775Y-170.18
X109.855Y-40.64
X109.855Y-43.18
X109.855Y-45.72
X109.855Y-48.26
X109.855Y-50.8
X109.855Y-53.34
X109.855Y-55.88
X109.855Y-58.42
X109.855Y-60.96
X109.855Y-63.5
X109.855Y-66.04
X109.855Y-68.58
X109.855Y-71.12
X109.855Y-73.66
X109.855Y-76.2
X109.855Y-78.74
X109.855Y-81.28
X109.855Y-83.82
X109.855Y-86.36
X109.855Y-88.9
X109.855Y-91.44
X109.855Y-93.98
X109.855Y-96.52
X109.855Y-99.06
X109.855Y-101.6
X109.855Y-104.14
X109.855Y-106.68
X109.855Y-109.22
X109.855Y-111.76
X109.855Y-114.3
X109.855Y-116.84
X109.855Y-127.0
X109.855Y-129.54
X109.855Y-132.08
X109.855Y-134.62
X109.855Y-137.16
X109.855Y-139.7
X109.855Y-142.24
X109.855Y-144.78
X109.855Y-147.32
X109.855Y-149.86
X109.855Y-152.4
X109.855Y-154.94
X109.855Y-157.48
X109.855Y-160.02
X109.855Y-162.56
X109.855Y-165.1
X109.855Y-167.64
X109.855Y-170.18
X125.088Y-40.64
X125.088Y-43.18
X125.088Y-45.72
X125.088Y-48.26
X125.088Y-50.8
X125.088Y-53.34
X125.088Y-55.88
X125.088Y-58.42
X125.088Y-60.96
X125.088Y-63.5
X125.088Y-66.04
X125.088Y-68.58
X125.088Y-71.12
X125.088Y-73.66
X125.088Y-76.2
X125.088Y-78.74
X125.088Y-81.28
X125.088Y-83.82
X125.088Y-86.36
X125.088Y-88.9
X125.088Y-91.44
X125.088Y-93.98
X125.088Y-96.52
X125.088Y-99.06
X125.088Y-101.6
X125.088Y-104.14
X125.088Y-106.68
X125.088Y-109.22
X125.088Y-111.76
X125.088Y-114.3
X125.088Y-116.84
X125.088Y-127.0
X125.088Y-129.54
X125.088Y-132.08
X125.088Y-134.62
X125.088Y-137.16
X125.088Y-139.7
X125.088Y-142.24
X125.088Y-144.78
X125.088Y-147.32
X125.088Y-149.86
X125.088Y-152.4
X125.088Y-154.94
X125.088Y-157.48
X125.088Y-160.02
X125.088Y-162.56
X125.088Y-165.1
X125.088Y-167.64
X125.088Y-170.18
X130.168Y-40.64
X130.168Y-43.18
X130.168Y-45.72
X130.168Y-48.26
X130.168Y-50.8
X130.168Y-53.34
X130.168Y-55.88
X130.168Y-58.42
X130.168Y-60.96
X130.168Y-63.5
X130.168Y-66.04
X130.168Y-68.58
X130.168Y-71.12
X130.168Y-73.66
X130.168Y-76.2
X130.168Y-78.74
X130.168Y-81.28
X130.168Y-83.82
X130.168Y-86.36
X130.168Y-88.9
X130.168Y-91.44
X130.168Y-93.98
X130.168Y-96.52
X130.168Y-99.06
X130.168Y-101.6
X130.168Y-104.14
X130.168Y-106.68
X130.168Y-109.22
X130.168Y-111.76
X130.168Y-114.3
X130.168Y-116.84
X130.168Y-127.0
X130.168Y-129.54
X130.168Y-132.08
X130.168Y-134.62
X130.168Y-137.16
X130.168Y-139.7
X130.168Y-142.24
X130.168Y-144.78
X130.168Y-147.32
X130.168Y-149.86
X130.168Y-152.4
X130.168Y-154.94
X130.168Y-157.48
X130.168Y-160.02
X130.168Y-162.56
X130.168Y-165.1
X130.168Y-167.64
X130.168Y-170.18
X145.415Y-40.64
X145.415Y-43.18
X145.415Y-45.72
X145.415Y-48.26
X145.415Y-50.8
X145.415Y-53.34
X145.415Y-55.88
X145.415Y-58.42
X145.415Y-60.96
X145.415Y-63.5
X145.415Y-66.04
X145.415Y-68.58
X145.415Y-71.12
X145.415Y-73.66
X145.415Y-76.2
X145.415Y-78.74
X145.415Y-81.28
X145.415Y-83.82
X145.415Y-86.36
X145.415Y-88.9
X145.415Y-91.44
X145.415Y-93.98
X145.415Y-96.52
X145.415Y-99.06
X145.415Y-101.6
X145.415Y-104.14
X145.415Y-106.68
X145.415Y-109.22
X145.415Y-111.76
X145.415Y-114.3
X145.415Y-116.84
X145.415Y-127.0
X145.415Y-129.54
X145.415Y-132.08
X145.415Y-134.62
X145.415Y-137.16
X145.415Y-139.7
X145.415Y-142.24
X145.415Y-144.78
X145.415Y-147.32
X145.415Y-149.86
X145.415Y-152.4
X145.415Y-154.94
X145.415Y-157.48
X145.415Y-160.02
X145.415Y-162.56
X145.415Y-165.1
X145.415Y-167.64
X145.415Y-170.18
X150.495Y-40.64
X150.495Y-43.18
X150.495Y-45.72
X150.495Y-48.26
X150.495Y-50.8
X150.495Y-53.34
X150.495Y-55.88
X150.495Y-58.42
X150.495Y-60.96
X150.495Y-63.5
X150.495Y-66.04
X150.495Y-68.58
X150.495Y-71.12
X150.495Y-73.66
X150.495Y-76.2
X150.495Y-78.74
X150.495Y-81.28
X150.495Y-83.82
X150.495Y-86.36
X150.495Y-88.9
X150.495Y-91.44
X150.495Y-93.98
X150.495Y-96.52
X150.495Y-99.06
X150.495Y-101.6
X150.495Y-104.14
X150.495Y-106.68
X150.495Y-109.22
X150.495Y-111.76
X150.495Y-114.3
X150.495Y-116.84
X150.495Y-127.0
X150.495Y-129.54
X150.495Y-132.08
X150.495Y-134.62
X150.495Y-137.16
X150.495Y-139.7
X150.495Y-142.24
X150.495Y-144.78
X150.495Y-147.32
X150.495Y-149.86
X150.495Y-152.4
X150.495Y-154.94
X150.495Y-157.48
X150.495Y-160.02
X150.495Y-162.56
X150.495Y-165.1
X150.495Y-167.64
X150.495Y-170.18
T8
X150.488Y-22.86
X150.488Y-25.4
X150.488Y-27.94
T9
X160.848Y-149.305
X160.848Y-154.305
X160.848Y-165.815
X160.848Y-170.815
X173.348Y-149.305
X173.348Y-154.305
X173.348Y-165.815
X173.348Y-170.815
T10
X169.313Y-38.735
X169.313Y-42.935
X169.313Y-47.135
X169.313Y-51.335
X169.313Y-55.535
X169.313Y-59.735
X169.313Y-63.935
X169.313Y-68.135
X169.313Y-72.335
X169.313Y-76.535
X169.313Y-80.735
X169.313Y-84.935
X174.813Y-38.735
X174.813Y-42.935
X174.813Y-47.135
X174.813Y-51.335
X174.813Y-55.535
X174.813Y-59.735
X174.813Y-63.935
X174.813Y-68.135
X174.813Y-72.335
X174.813Y-76.535
X174.813Y-80.735
X174.813Y-84.935
T11
X36.188Y-25.4
X36.188Y-180.34
X94.608Y-180.34
X114.928Y-25.4
X114.928Y-180.34
X160.648Y-25.4
X160.648Y-180.34
T0
M30
