G04 #@! TF.GenerationSoftware,KiCad,Pcbnew,7.0.6*
G04 #@! TF.CreationDate,2023-08-16T20:37:00-04:00*
G04 #@! TF.ProjectId,1 - ATX 16 bit ISA passive backplane,31202d20-4154-4582-9031-362062697420,2*
G04 #@! TF.SameCoordinates,Original*
G04 #@! TF.FileFunction,Soldermask,Top*
G04 #@! TF.FilePolarity,Negative*
%FSLAX46Y46*%
G04 Gerber Fmt 4.6, Leading zero omitted, Abs format (unit mm)*
G04 Created by KiCad (PCBNEW 7.0.6) date 2023-08-16 20:37:00*
%MOMM*%
%LPD*%
G01*
G04 APERTURE LIST*
%ADD10R,1.635000X1.635000*%
%ADD11C,1.635000*%
%ADD12C,0.900000*%
%ADD13C,8.000000*%
%ADD14C,1.600000*%
%ADD15O,1.600000X1.600000*%
%ADD16R,1.700000X1.700000*%
%ADD17O,1.700000X1.700000*%
%ADD18R,1.600000X1.600000*%
%ADD19O,3.048000X1.850000*%
%ADD20R,1.500000X1.500000*%
%ADD21C,1.500000*%
%ADD22R,1.800000X1.800000*%
%ADD23C,1.800000*%
%ADD24C,2.000000*%
%ADD25C,0.001000*%
%ADD26O,3.500000X3.500000*%
%ADD27R,2.000000X1.905000*%
%ADD28O,2.000000X1.905000*%
G04 APERTURE END LIST*
D10*
X75553400Y-77475000D03*
D11*
X75553400Y-74935000D03*
X78093400Y-77475000D03*
X78093400Y-74935000D03*
X57773400Y-74935000D03*
X57773400Y-77475000D03*
X55233400Y-74935000D03*
D10*
X55233400Y-77475000D03*
D12*
X91383400Y-180340000D03*
X92327981Y-178059581D03*
X92327981Y-182620419D03*
X94608400Y-177115000D03*
D13*
X94608400Y-180340000D03*
D12*
X94608400Y-183565000D03*
X96888819Y-178059581D03*
X96888819Y-182620419D03*
X97833400Y-180340000D03*
D14*
X172085000Y-125984000D03*
D15*
X161925000Y-125984000D03*
D10*
X168275000Y-103505000D03*
D11*
X165735000Y-103505000D03*
D14*
X36195000Y-48260000D03*
X36195000Y-50760000D03*
D16*
X21583400Y-194945000D03*
D17*
X24123400Y-194945000D03*
X26663400Y-194945000D03*
X29203400Y-194945000D03*
X31743400Y-194945000D03*
X34283400Y-194945000D03*
X36823400Y-194945000D03*
X39363400Y-194945000D03*
X41903400Y-194945000D03*
X44443400Y-194945000D03*
X46983400Y-194945000D03*
X49523400Y-194945000D03*
X52063400Y-194945000D03*
X54603400Y-194945000D03*
X57143400Y-194945000D03*
X59683400Y-194945000D03*
X62223400Y-194945000D03*
X64763400Y-194945000D03*
X67303400Y-194945000D03*
X69843400Y-194945000D03*
X72383400Y-194945000D03*
X74923400Y-194945000D03*
X77463400Y-194945000D03*
X80003400Y-194945000D03*
X82543400Y-194945000D03*
X85083400Y-194945000D03*
X87623400Y-194945000D03*
X90163400Y-194945000D03*
X92703400Y-194945000D03*
X95243400Y-194945000D03*
X97783400Y-194945000D03*
X100323400Y-194945000D03*
X102863400Y-194945000D03*
X105403400Y-194945000D03*
X107943400Y-194945000D03*
X110483400Y-194945000D03*
X113023400Y-194945000D03*
X115563400Y-194945000D03*
X118103400Y-194945000D03*
X120643400Y-194945000D03*
D18*
X97155000Y-60960000D03*
D14*
X97155000Y-63460000D03*
X56515000Y-111780000D03*
X56515000Y-114280000D03*
D10*
X95873400Y-77475000D03*
D11*
X95873400Y-74935000D03*
X98413400Y-77475000D03*
X98413400Y-74935000D03*
D10*
X34913400Y-77475000D03*
D11*
X34913400Y-74935000D03*
X37453400Y-77475000D03*
X37453400Y-74935000D03*
D14*
X172085000Y-116840000D03*
D15*
X161925000Y-116840000D03*
D12*
X111703400Y-25400000D03*
X112647981Y-23119581D03*
X112647981Y-27680419D03*
X114928400Y-22175000D03*
D13*
X114928400Y-25400000D03*
D12*
X114928400Y-28625000D03*
X117208819Y-23119581D03*
X117208819Y-27680419D03*
X118153400Y-25400000D03*
D10*
X168275000Y-98425000D03*
D11*
X165735000Y-98425000D03*
D19*
X160855000Y-164465000D03*
X173355000Y-164465000D03*
X160855000Y-169465000D03*
X173355000Y-169465000D03*
D16*
X125723400Y-194945000D03*
D17*
X128263400Y-194945000D03*
X130803400Y-194945000D03*
X133343400Y-194945000D03*
X135883400Y-194945000D03*
X138423400Y-194945000D03*
X140963400Y-194945000D03*
X143503400Y-194945000D03*
X146043400Y-194945000D03*
X148583400Y-194945000D03*
X151123400Y-194945000D03*
X153663400Y-194945000D03*
X156203400Y-194945000D03*
X158743400Y-194945000D03*
X161283400Y-194945000D03*
X163823400Y-194945000D03*
X166363400Y-194945000D03*
X168903400Y-194945000D03*
X171443400Y-194945000D03*
X173983400Y-194945000D03*
X176523400Y-194945000D03*
X179063400Y-194945000D03*
D14*
X172085000Y-113792000D03*
D15*
X161925000Y-113792000D03*
D14*
X102870000Y-30480000D03*
D15*
X102870000Y-20320000D03*
D18*
X36195000Y-44410000D03*
D14*
X36195000Y-41910000D03*
D18*
X56515000Y-163870000D03*
D14*
X56515000Y-166370000D03*
D20*
X125095000Y-27940000D03*
D21*
X125095000Y-25400000D03*
X125095000Y-22860000D03*
D16*
X159390000Y-86360000D03*
D17*
X156850000Y-86360000D03*
D18*
X76835000Y-44410000D03*
D14*
X76835000Y-41910000D03*
X36195000Y-163850000D03*
X36195000Y-166350000D03*
X106680000Y-26650000D03*
X106680000Y-24150000D03*
D18*
X56515000Y-61047600D03*
D14*
X56515000Y-63547600D03*
D12*
X157423400Y-180340000D03*
X158367981Y-178059581D03*
X158367981Y-182620419D03*
X160648400Y-177115000D03*
D13*
X160648400Y-180340000D03*
D12*
X160648400Y-183565000D03*
X162928819Y-178059581D03*
X162928819Y-182620419D03*
X163873400Y-180340000D03*
D22*
X175895000Y-137160000D03*
D23*
X173355000Y-137160000D03*
D14*
X117475000Y-163830000D03*
X117475000Y-166330000D03*
D18*
X117475000Y-111800000D03*
D14*
X117475000Y-114300000D03*
D18*
X36195000Y-111800000D03*
D14*
X36195000Y-114300000D03*
X56515000Y-54630000D03*
X56515000Y-57130000D03*
D10*
X89535000Y-40640000D03*
D11*
X89535000Y-43180000D03*
X89535000Y-45720000D03*
X89535000Y-48260000D03*
X89535000Y-50800000D03*
X89535000Y-53340000D03*
X89535000Y-55880000D03*
X89535000Y-58420000D03*
X89535000Y-60960000D03*
X89535000Y-63500000D03*
X89535000Y-66040000D03*
X89535000Y-68580000D03*
X89535000Y-71120000D03*
X89535000Y-73660000D03*
X89535000Y-76200000D03*
X89535000Y-78740000D03*
X89535000Y-81280000D03*
X89535000Y-83820000D03*
X89535000Y-86360000D03*
X89535000Y-88900000D03*
X89535000Y-91440000D03*
X89535000Y-93980000D03*
X89535000Y-96520000D03*
X89535000Y-99060000D03*
X89535000Y-101600000D03*
X89535000Y-104140000D03*
X89535000Y-106680000D03*
X89535000Y-109220000D03*
X89535000Y-111760000D03*
X89535000Y-114300000D03*
X89535000Y-116840000D03*
X84455000Y-40640000D03*
X84455000Y-43180000D03*
X84455000Y-45720000D03*
X84455000Y-48260000D03*
X84455000Y-50800000D03*
X84455000Y-53340000D03*
X84455000Y-55880000D03*
X84455000Y-58420000D03*
X84455000Y-60960000D03*
X84455000Y-63500000D03*
X84455000Y-66040000D03*
X84455000Y-68580000D03*
X84455000Y-71120000D03*
X84455000Y-73660000D03*
X84455000Y-76200000D03*
X84455000Y-78740000D03*
X84455000Y-81280000D03*
X84455000Y-83820000D03*
X84455000Y-86360000D03*
X84455000Y-88900000D03*
X84455000Y-91440000D03*
X84455000Y-93980000D03*
X84455000Y-96520000D03*
X84455000Y-99060000D03*
X84455000Y-101600000D03*
X84455000Y-104140000D03*
X84455000Y-106680000D03*
X84455000Y-109220000D03*
X84455000Y-111760000D03*
X84455000Y-114300000D03*
X84455000Y-116840000D03*
X89535000Y-127000000D03*
X89535000Y-129540000D03*
X89535000Y-132080000D03*
X89535000Y-134620000D03*
X89535000Y-137160000D03*
X89535000Y-139700000D03*
X89535000Y-142240000D03*
X89535000Y-144780000D03*
X89535000Y-147320000D03*
X89535000Y-149860000D03*
X89535000Y-152400000D03*
X89535000Y-154940000D03*
X89535000Y-157480000D03*
X89535000Y-160020000D03*
X89535000Y-162560000D03*
X89535000Y-165100000D03*
X89535000Y-167640000D03*
X89535000Y-170180000D03*
X84455000Y-127000000D03*
X84455000Y-129540000D03*
X84455000Y-132080000D03*
X84455000Y-134620000D03*
X84455000Y-137160000D03*
X84455000Y-139700000D03*
X84455000Y-142240000D03*
X84455000Y-144780000D03*
X84455000Y-147320000D03*
X84455000Y-149860000D03*
X84455000Y-152400000D03*
X84455000Y-154940000D03*
X84455000Y-157480000D03*
X84455000Y-160020000D03*
X84455000Y-162560000D03*
X84455000Y-165100000D03*
X84455000Y-167640000D03*
X84455000Y-170180000D03*
D14*
X36195000Y-86360000D03*
X36195000Y-88860000D03*
D18*
X137795000Y-50712400D03*
D14*
X137795000Y-48212400D03*
D18*
X97155000Y-50760000D03*
D14*
X97155000Y-48260000D03*
X76835000Y-163850000D03*
X76835000Y-166350000D03*
D18*
X56515000Y-50760000D03*
D14*
X56515000Y-48260000D03*
X161925000Y-119888000D03*
D15*
X172085000Y-119888000D03*
D14*
X56515000Y-44410000D03*
X56515000Y-41910000D03*
D12*
X111703400Y-180340000D03*
X112647981Y-178059581D03*
X112647981Y-182620419D03*
X114928400Y-177115000D03*
D13*
X114928400Y-180340000D03*
D12*
X114928400Y-183565000D03*
X117208819Y-178059581D03*
X117208819Y-182620419D03*
X118153400Y-180340000D03*
X157423400Y-25400000D03*
X158367981Y-23119581D03*
X158367981Y-27680419D03*
X160648400Y-22175000D03*
D13*
X160648400Y-25400000D03*
D12*
X160648400Y-28625000D03*
X162928819Y-23119581D03*
X162928819Y-27680419D03*
X163873400Y-25400000D03*
D10*
X156838400Y-77470000D03*
D11*
X156838400Y-74930000D03*
X159378400Y-77470000D03*
X159378400Y-74930000D03*
D18*
X137795000Y-61000000D03*
D14*
X137795000Y-63500000D03*
X69215000Y-24150000D03*
X69215000Y-26650000D03*
D22*
X168280000Y-137160000D03*
D23*
X165740000Y-137160000D03*
D10*
X116193400Y-77475000D03*
D11*
X116193400Y-74935000D03*
X118733400Y-77475000D03*
X118733400Y-74935000D03*
D14*
X106680000Y-31730000D03*
X106680000Y-29230000D03*
D22*
X160655000Y-137160000D03*
D23*
X158115000Y-137160000D03*
D10*
X150495000Y-40640000D03*
D11*
X150495000Y-43180000D03*
X150495000Y-45720000D03*
X150495000Y-48260000D03*
X150495000Y-50800000D03*
X150495000Y-53340000D03*
X150495000Y-55880000D03*
X150495000Y-58420000D03*
X150495000Y-60960000D03*
X150495000Y-63500000D03*
X150495000Y-66040000D03*
X150495000Y-68580000D03*
X150495000Y-71120000D03*
X150495000Y-73660000D03*
X150495000Y-76200000D03*
X150495000Y-78740000D03*
X150495000Y-81280000D03*
X150495000Y-83820000D03*
X150495000Y-86360000D03*
X150495000Y-88900000D03*
X150495000Y-91440000D03*
X150495000Y-93980000D03*
X150495000Y-96520000D03*
X150495000Y-99060000D03*
X150495000Y-101600000D03*
X150495000Y-104140000D03*
X150495000Y-106680000D03*
X150495000Y-109220000D03*
X150495000Y-111760000D03*
X150495000Y-114300000D03*
X150495000Y-116840000D03*
X145415000Y-40640000D03*
X145415000Y-43180000D03*
X145415000Y-45720000D03*
X145415000Y-48260000D03*
X145415000Y-50800000D03*
X145415000Y-53340000D03*
X145415000Y-55880000D03*
X145415000Y-58420000D03*
X145415000Y-60960000D03*
X145415000Y-63500000D03*
X145415000Y-66040000D03*
X145415000Y-68580000D03*
X145415000Y-71120000D03*
X145415000Y-73660000D03*
X145415000Y-76200000D03*
X145415000Y-78740000D03*
X145415000Y-81280000D03*
X145415000Y-83820000D03*
X145415000Y-86360000D03*
X145415000Y-88900000D03*
X145415000Y-91440000D03*
X145415000Y-93980000D03*
X145415000Y-96520000D03*
X145415000Y-99060000D03*
X145415000Y-101600000D03*
X145415000Y-104140000D03*
X145415000Y-106680000D03*
X145415000Y-109220000D03*
X145415000Y-111760000D03*
X145415000Y-114300000D03*
X145415000Y-116840000D03*
X150495000Y-127000000D03*
X150495000Y-129540000D03*
X150495000Y-132080000D03*
X150495000Y-134620000D03*
X150495000Y-137160000D03*
X150495000Y-139700000D03*
X150495000Y-142240000D03*
X150495000Y-144780000D03*
X150495000Y-147320000D03*
X150495000Y-149860000D03*
X150495000Y-152400000D03*
X150495000Y-154940000D03*
X150495000Y-157480000D03*
X150495000Y-160020000D03*
X150495000Y-162560000D03*
X150495000Y-165100000D03*
X150495000Y-167640000D03*
X150495000Y-170180000D03*
X145415000Y-127000000D03*
X145415000Y-129540000D03*
X145415000Y-132080000D03*
X145415000Y-134620000D03*
X145415000Y-137160000D03*
X145415000Y-139700000D03*
X145415000Y-142240000D03*
X145415000Y-144780000D03*
X145415000Y-147320000D03*
X145415000Y-149860000D03*
X145415000Y-152400000D03*
X145415000Y-154940000D03*
X145415000Y-157480000D03*
X145415000Y-160020000D03*
X145415000Y-162560000D03*
X145415000Y-165100000D03*
X145415000Y-167640000D03*
X145415000Y-170180000D03*
D10*
X136518400Y-77470000D03*
D11*
X136518400Y-74930000D03*
X139058400Y-77470000D03*
X139058400Y-74930000D03*
D10*
X48895000Y-40640000D03*
D11*
X48895000Y-43180000D03*
X48895000Y-45720000D03*
X48895000Y-48260000D03*
X48895000Y-50800000D03*
X48895000Y-53340000D03*
X48895000Y-55880000D03*
X48895000Y-58420000D03*
X48895000Y-60960000D03*
X48895000Y-63500000D03*
X48895000Y-66040000D03*
X48895000Y-68580000D03*
X48895000Y-71120000D03*
X48895000Y-73660000D03*
X48895000Y-76200000D03*
X48895000Y-78740000D03*
X48895000Y-81280000D03*
X48895000Y-83820000D03*
X48895000Y-86360000D03*
X48895000Y-88900000D03*
X48895000Y-91440000D03*
X48895000Y-93980000D03*
X48895000Y-96520000D03*
X48895000Y-99060000D03*
X48895000Y-101600000D03*
X48895000Y-104140000D03*
X48895000Y-106680000D03*
X48895000Y-109220000D03*
X48895000Y-111760000D03*
X48895000Y-114300000D03*
X48895000Y-116840000D03*
X43815000Y-40640000D03*
X43815000Y-43180000D03*
X43815000Y-45720000D03*
X43815000Y-48260000D03*
X43815000Y-50800000D03*
X43815000Y-53340000D03*
X43815000Y-55880000D03*
X43815000Y-58420000D03*
X43815000Y-60960000D03*
X43815000Y-63500000D03*
X43815000Y-66040000D03*
X43815000Y-68580000D03*
X43815000Y-71120000D03*
X43815000Y-73660000D03*
X43815000Y-76200000D03*
X43815000Y-78740000D03*
X43815000Y-81280000D03*
X43815000Y-83820000D03*
X43815000Y-86360000D03*
X43815000Y-88900000D03*
X43815000Y-91440000D03*
X43815000Y-93980000D03*
X43815000Y-96520000D03*
X43815000Y-99060000D03*
X43815000Y-101600000D03*
X43815000Y-104140000D03*
X43815000Y-106680000D03*
X43815000Y-109220000D03*
X43815000Y-111760000D03*
X43815000Y-114300000D03*
X43815000Y-116840000D03*
X48895000Y-127000000D03*
X48895000Y-129540000D03*
X48895000Y-132080000D03*
X48895000Y-134620000D03*
X48895000Y-137160000D03*
X48895000Y-139700000D03*
X48895000Y-142240000D03*
X48895000Y-144780000D03*
X48895000Y-147320000D03*
X48895000Y-149860000D03*
X48895000Y-152400000D03*
X48895000Y-154940000D03*
X48895000Y-157480000D03*
X48895000Y-160020000D03*
X48895000Y-162560000D03*
X48895000Y-165100000D03*
X48895000Y-167640000D03*
X48895000Y-170180000D03*
X43815000Y-127000000D03*
X43815000Y-129540000D03*
X43815000Y-132080000D03*
X43815000Y-134620000D03*
X43815000Y-137160000D03*
X43815000Y-139700000D03*
X43815000Y-142240000D03*
X43815000Y-144780000D03*
X43815000Y-147320000D03*
X43815000Y-149860000D03*
X43815000Y-152400000D03*
X43815000Y-154940000D03*
X43815000Y-157480000D03*
X43815000Y-160020000D03*
X43815000Y-162560000D03*
X43815000Y-165100000D03*
X43815000Y-167640000D03*
X43815000Y-170180000D03*
D14*
X172085000Y-132080000D03*
D15*
X161925000Y-132080000D03*
D18*
X76835000Y-57110000D03*
D14*
X76835000Y-54610000D03*
D10*
X130168400Y-40640000D03*
D11*
X130168400Y-43180000D03*
X130168400Y-45720000D03*
X130168400Y-48260000D03*
X130168400Y-50800000D03*
X130168400Y-53340000D03*
X130168400Y-55880000D03*
X130168400Y-58420000D03*
X130168400Y-60960000D03*
X130168400Y-63500000D03*
X130168400Y-66040000D03*
X130168400Y-68580000D03*
X130168400Y-71120000D03*
X130168400Y-73660000D03*
X130168400Y-76200000D03*
X130168400Y-78740000D03*
X130168400Y-81280000D03*
X130168400Y-83820000D03*
X130168400Y-86360000D03*
X130168400Y-88900000D03*
X130168400Y-91440000D03*
X130168400Y-93980000D03*
X130168400Y-96520000D03*
X130168400Y-99060000D03*
X130168400Y-101600000D03*
X130168400Y-104140000D03*
X130168400Y-106680000D03*
X130168400Y-109220000D03*
X130168400Y-111760000D03*
X130168400Y-114300000D03*
X130168400Y-116840000D03*
X125088400Y-40640000D03*
X125088400Y-43180000D03*
X125088400Y-45720000D03*
X125088400Y-48260000D03*
X125088400Y-50800000D03*
X125088400Y-53340000D03*
X125088400Y-55880000D03*
X125088400Y-58420000D03*
X125088400Y-60960000D03*
X125088400Y-63500000D03*
X125088400Y-66040000D03*
X125088400Y-68580000D03*
X125088400Y-71120000D03*
X125088400Y-73660000D03*
X125088400Y-76200000D03*
X125088400Y-78740000D03*
X125088400Y-81280000D03*
X125088400Y-83820000D03*
X125088400Y-86360000D03*
X125088400Y-88900000D03*
X125088400Y-91440000D03*
X125088400Y-93980000D03*
X125088400Y-96520000D03*
X125088400Y-99060000D03*
X125088400Y-101600000D03*
X125088400Y-104140000D03*
X125088400Y-106680000D03*
X125088400Y-109220000D03*
X125088400Y-111760000D03*
X125088400Y-114300000D03*
X125088400Y-116840000D03*
X130168400Y-127000000D03*
X130168400Y-129540000D03*
X130168400Y-132080000D03*
X130168400Y-134620000D03*
X130168400Y-137160000D03*
X130168400Y-139700000D03*
X130168400Y-142240000D03*
X130168400Y-144780000D03*
X130168400Y-147320000D03*
X130168400Y-149860000D03*
X130168400Y-152400000D03*
X130168400Y-154940000D03*
X130168400Y-157480000D03*
X130168400Y-160020000D03*
X130168400Y-162560000D03*
X130168400Y-165100000D03*
X130168400Y-167640000D03*
X130168400Y-170180000D03*
X125088400Y-127000000D03*
X125088400Y-129540000D03*
X125088400Y-132080000D03*
X125088400Y-134620000D03*
X125088400Y-137160000D03*
X125088400Y-139700000D03*
X125088400Y-142240000D03*
X125088400Y-144780000D03*
X125088400Y-147320000D03*
X125088400Y-149860000D03*
X125088400Y-152400000D03*
X125088400Y-154940000D03*
X125088400Y-157480000D03*
X125088400Y-160020000D03*
X125088400Y-162560000D03*
X125088400Y-165100000D03*
X125088400Y-167640000D03*
X125088400Y-170180000D03*
D14*
X106680000Y-19070000D03*
X106680000Y-21570000D03*
D10*
X28575000Y-40640000D03*
D11*
X28575000Y-43180000D03*
X28575000Y-45720000D03*
X28575000Y-48260000D03*
X28575000Y-50800000D03*
X28575000Y-53340000D03*
X28575000Y-55880000D03*
X28575000Y-58420000D03*
X28575000Y-60960000D03*
X28575000Y-63500000D03*
X28575000Y-66040000D03*
X28575000Y-68580000D03*
X28575000Y-71120000D03*
X28575000Y-73660000D03*
X28575000Y-76200000D03*
X28575000Y-78740000D03*
X28575000Y-81280000D03*
X28575000Y-83820000D03*
X28575000Y-86360000D03*
X28575000Y-88900000D03*
X28575000Y-91440000D03*
X28575000Y-93980000D03*
X28575000Y-96520000D03*
X28575000Y-99060000D03*
X28575000Y-101600000D03*
X28575000Y-104140000D03*
X28575000Y-106680000D03*
X28575000Y-109220000D03*
X28575000Y-111760000D03*
X28575000Y-114300000D03*
X28575000Y-116840000D03*
X23495000Y-40640000D03*
X23495000Y-43180000D03*
X23495000Y-45720000D03*
X23495000Y-48260000D03*
X23495000Y-50800000D03*
X23495000Y-53340000D03*
X23495000Y-55880000D03*
X23495000Y-58420000D03*
X23495000Y-60960000D03*
X23495000Y-63500000D03*
X23495000Y-66040000D03*
X23495000Y-68580000D03*
X23495000Y-71120000D03*
X23495000Y-73660000D03*
X23495000Y-76200000D03*
X23495000Y-78740000D03*
X23495000Y-81280000D03*
X23495000Y-83820000D03*
X23495000Y-86360000D03*
X23495000Y-88900000D03*
X23495000Y-91440000D03*
X23495000Y-93980000D03*
X23495000Y-96520000D03*
X23495000Y-99060000D03*
X23495000Y-101600000D03*
X23495000Y-104140000D03*
X23495000Y-106680000D03*
X23495000Y-109220000D03*
X23495000Y-111760000D03*
X23495000Y-114300000D03*
X23495000Y-116840000D03*
X28575000Y-127000000D03*
X28575000Y-129540000D03*
X28575000Y-132080000D03*
X28575000Y-134620000D03*
X28575000Y-137160000D03*
X28575000Y-139700000D03*
X28575000Y-142240000D03*
X28575000Y-144780000D03*
X28575000Y-147320000D03*
X28575000Y-149860000D03*
X28575000Y-152400000D03*
X28575000Y-154940000D03*
X28575000Y-157480000D03*
X28575000Y-160020000D03*
X28575000Y-162560000D03*
X28575000Y-165100000D03*
X28575000Y-167640000D03*
X28575000Y-170180000D03*
X23495000Y-127000000D03*
X23495000Y-129540000D03*
X23495000Y-132080000D03*
X23495000Y-134620000D03*
X23495000Y-137160000D03*
X23495000Y-139700000D03*
X23495000Y-142240000D03*
X23495000Y-144780000D03*
X23495000Y-147320000D03*
X23495000Y-149860000D03*
X23495000Y-152400000D03*
X23495000Y-154940000D03*
X23495000Y-157480000D03*
X23495000Y-160020000D03*
X23495000Y-162560000D03*
X23495000Y-165100000D03*
X23495000Y-167640000D03*
X23495000Y-170180000D03*
D18*
X117475000Y-57110000D03*
D14*
X117475000Y-54610000D03*
X76835000Y-86380000D03*
X76835000Y-88880000D03*
X137795000Y-54630000D03*
X137795000Y-57130000D03*
D10*
X168275000Y-108585000D03*
D11*
X165735000Y-108585000D03*
D12*
X32963400Y-180340000D03*
X33907981Y-178059581D03*
X33907981Y-182620419D03*
X36188400Y-177115000D03*
D13*
X36188400Y-180340000D03*
D12*
X36188400Y-183565000D03*
X38468819Y-178059581D03*
X38468819Y-182620419D03*
X39413400Y-180340000D03*
D14*
X97155000Y-54630000D03*
X97155000Y-57130000D03*
X117475000Y-86380000D03*
X117475000Y-88880000D03*
X117475000Y-48280000D03*
X117475000Y-50780000D03*
X76835000Y-60980000D03*
X76835000Y-63480000D03*
D10*
X168275000Y-106045000D03*
D11*
X165735000Y-106045000D03*
D14*
X172085000Y-129032000D03*
D15*
X161925000Y-129032000D03*
D14*
X117475000Y-60980000D03*
X117475000Y-63480000D03*
X93726000Y-20320000D03*
D15*
X93726000Y-30480000D03*
D19*
X160855000Y-147955000D03*
X173355000Y-147955000D03*
X160855000Y-152955000D03*
X173355000Y-152955000D03*
D12*
X32963400Y-25400000D03*
X33907981Y-23119581D03*
X33907981Y-27680419D03*
X36188400Y-22175000D03*
D13*
X36188400Y-25400000D03*
D12*
X36188400Y-28625000D03*
X38468819Y-23119581D03*
X38468819Y-27680419D03*
X39413400Y-25400000D03*
D16*
X26035000Y-22860000D03*
D17*
X26035000Y-25400000D03*
X26035000Y-27940000D03*
D14*
X137795000Y-44430000D03*
X137795000Y-41930000D03*
X96774000Y-20320000D03*
D15*
X96774000Y-30480000D03*
D18*
X97155000Y-86360000D03*
D14*
X97155000Y-88860000D03*
D18*
X72390000Y-29200000D03*
D15*
X74930000Y-29200000D03*
X77470000Y-29200000D03*
X80010000Y-29200000D03*
X82550000Y-29200000D03*
X85090000Y-29200000D03*
X87630000Y-29200000D03*
X87630000Y-21580000D03*
X85090000Y-21580000D03*
X82550000Y-21580000D03*
X80010000Y-21580000D03*
X77470000Y-21580000D03*
X74930000Y-21580000D03*
X72390000Y-21580000D03*
D10*
X168275000Y-100965000D03*
D11*
X165735000Y-100965000D03*
D18*
X97155000Y-163870000D03*
D14*
X97155000Y-166370000D03*
D24*
X175260000Y-38645000D03*
X175260000Y-42845000D03*
X175260000Y-47045000D03*
X175260000Y-51245000D03*
X175260000Y-55445000D03*
X175260000Y-59645000D03*
X175260000Y-63845000D03*
X175260000Y-68045000D03*
X175260000Y-72245000D03*
X175260000Y-76445000D03*
X175260000Y-80645000D03*
X175260000Y-84845000D03*
X169760000Y-38645000D03*
X169760000Y-42845000D03*
X169760000Y-47045000D03*
X169760000Y-51245000D03*
X169760000Y-55445000D03*
X169760000Y-59645000D03*
X169760000Y-63845000D03*
X169760000Y-68045000D03*
X169760000Y-72245000D03*
X169760000Y-76445000D03*
X169760000Y-80645000D03*
X169760000Y-84845000D03*
D25*
X174800000Y-89545000D03*
D18*
X76835000Y-111800000D03*
D14*
X76835000Y-114300000D03*
X99822000Y-20320000D03*
D15*
X99822000Y-30480000D03*
D18*
X36195000Y-57062400D03*
D14*
X36195000Y-54562400D03*
D10*
X69215000Y-40640000D03*
D11*
X69215000Y-43180000D03*
X69215000Y-45720000D03*
X69215000Y-48260000D03*
X69215000Y-50800000D03*
X69215000Y-53340000D03*
X69215000Y-55880000D03*
X69215000Y-58420000D03*
X69215000Y-60960000D03*
X69215000Y-63500000D03*
X69215000Y-66040000D03*
X69215000Y-68580000D03*
X69215000Y-71120000D03*
X69215000Y-73660000D03*
X69215000Y-76200000D03*
X69215000Y-78740000D03*
X69215000Y-81280000D03*
X69215000Y-83820000D03*
X69215000Y-86360000D03*
X69215000Y-88900000D03*
X69215000Y-91440000D03*
X69215000Y-93980000D03*
X69215000Y-96520000D03*
X69215000Y-99060000D03*
X69215000Y-101600000D03*
X69215000Y-104140000D03*
X69215000Y-106680000D03*
X69215000Y-109220000D03*
X69215000Y-111760000D03*
X69215000Y-114300000D03*
X69215000Y-116840000D03*
X64135000Y-40640000D03*
X64135000Y-43180000D03*
X64135000Y-45720000D03*
X64135000Y-48260000D03*
X64135000Y-50800000D03*
X64135000Y-53340000D03*
X64135000Y-55880000D03*
X64135000Y-58420000D03*
X64135000Y-60960000D03*
X64135000Y-63500000D03*
X64135000Y-66040000D03*
X64135000Y-68580000D03*
X64135000Y-71120000D03*
X64135000Y-73660000D03*
X64135000Y-76200000D03*
X64135000Y-78740000D03*
X64135000Y-81280000D03*
X64135000Y-83820000D03*
X64135000Y-86360000D03*
X64135000Y-88900000D03*
X64135000Y-91440000D03*
X64135000Y-93980000D03*
X64135000Y-96520000D03*
X64135000Y-99060000D03*
X64135000Y-101600000D03*
X64135000Y-104140000D03*
X64135000Y-106680000D03*
X64135000Y-109220000D03*
X64135000Y-111760000D03*
X64135000Y-114300000D03*
X64135000Y-116840000D03*
X69215000Y-127000000D03*
X69215000Y-129540000D03*
X69215000Y-132080000D03*
X69215000Y-134620000D03*
X69215000Y-137160000D03*
X69215000Y-139700000D03*
X69215000Y-142240000D03*
X69215000Y-144780000D03*
X69215000Y-147320000D03*
X69215000Y-149860000D03*
X69215000Y-152400000D03*
X69215000Y-154940000D03*
X69215000Y-157480000D03*
X69215000Y-160020000D03*
X69215000Y-162560000D03*
X69215000Y-165100000D03*
X69215000Y-167640000D03*
X69215000Y-170180000D03*
X64135000Y-127000000D03*
X64135000Y-129540000D03*
X64135000Y-132080000D03*
X64135000Y-134620000D03*
X64135000Y-137160000D03*
X64135000Y-139700000D03*
X64135000Y-142240000D03*
X64135000Y-144780000D03*
X64135000Y-147320000D03*
X64135000Y-149860000D03*
X64135000Y-152400000D03*
X64135000Y-154940000D03*
X64135000Y-157480000D03*
X64135000Y-160020000D03*
X64135000Y-162560000D03*
X64135000Y-165100000D03*
X64135000Y-167640000D03*
X64135000Y-170180000D03*
D14*
X137795000Y-111780000D03*
X137795000Y-114280000D03*
D26*
X133985000Y-25400000D03*
D27*
X150645000Y-27940000D03*
D28*
X150645000Y-25400000D03*
X150645000Y-22860000D03*
D14*
X97155000Y-111780000D03*
X97155000Y-114280000D03*
X97155000Y-41950000D03*
X97155000Y-44450000D03*
D10*
X109855000Y-40640000D03*
D11*
X109855000Y-43180000D03*
X109855000Y-45720000D03*
X109855000Y-48260000D03*
X109855000Y-50800000D03*
X109855000Y-53340000D03*
X109855000Y-55880000D03*
X109855000Y-58420000D03*
X109855000Y-60960000D03*
X109855000Y-63500000D03*
X109855000Y-66040000D03*
X109855000Y-68580000D03*
X109855000Y-71120000D03*
X109855000Y-73660000D03*
X109855000Y-76200000D03*
X109855000Y-78740000D03*
X109855000Y-81280000D03*
X109855000Y-83820000D03*
X109855000Y-86360000D03*
X109855000Y-88900000D03*
X109855000Y-91440000D03*
X109855000Y-93980000D03*
X109855000Y-96520000D03*
X109855000Y-99060000D03*
X109855000Y-101600000D03*
X109855000Y-104140000D03*
X109855000Y-106680000D03*
X109855000Y-109220000D03*
X109855000Y-111760000D03*
X109855000Y-114300000D03*
X109855000Y-116840000D03*
X104775000Y-40640000D03*
X104775000Y-43180000D03*
X104775000Y-45720000D03*
X104775000Y-48260000D03*
X104775000Y-50800000D03*
X104775000Y-53340000D03*
X104775000Y-55880000D03*
X104775000Y-58420000D03*
X104775000Y-60960000D03*
X104775000Y-63500000D03*
X104775000Y-66040000D03*
X104775000Y-68580000D03*
X104775000Y-71120000D03*
X104775000Y-73660000D03*
X104775000Y-76200000D03*
X104775000Y-78740000D03*
X104775000Y-81280000D03*
X104775000Y-83820000D03*
X104775000Y-86360000D03*
X104775000Y-88900000D03*
X104775000Y-91440000D03*
X104775000Y-93980000D03*
X104775000Y-96520000D03*
X104775000Y-99060000D03*
X104775000Y-101600000D03*
X104775000Y-104140000D03*
X104775000Y-106680000D03*
X104775000Y-109220000D03*
X104775000Y-111760000D03*
X104775000Y-114300000D03*
X104775000Y-116840000D03*
X109855000Y-127000000D03*
X109855000Y-129540000D03*
X109855000Y-132080000D03*
X109855000Y-134620000D03*
X109855000Y-137160000D03*
X109855000Y-139700000D03*
X109855000Y-142240000D03*
X109855000Y-144780000D03*
X109855000Y-147320000D03*
X109855000Y-149860000D03*
X109855000Y-152400000D03*
X109855000Y-154940000D03*
X109855000Y-157480000D03*
X109855000Y-160020000D03*
X109855000Y-162560000D03*
X109855000Y-165100000D03*
X109855000Y-167640000D03*
X109855000Y-170180000D03*
X104775000Y-127000000D03*
X104775000Y-129540000D03*
X104775000Y-132080000D03*
X104775000Y-134620000D03*
X104775000Y-137160000D03*
X104775000Y-139700000D03*
X104775000Y-142240000D03*
X104775000Y-144780000D03*
X104775000Y-147320000D03*
X104775000Y-149860000D03*
X104775000Y-152400000D03*
X104775000Y-154940000D03*
X104775000Y-157480000D03*
X104775000Y-160020000D03*
X104775000Y-162560000D03*
X104775000Y-165100000D03*
X104775000Y-167640000D03*
X104775000Y-170180000D03*
D14*
X76835000Y-48280000D03*
X76835000Y-50780000D03*
D18*
X137795000Y-86400000D03*
D14*
X137795000Y-88900000D03*
D10*
X156845000Y-49530000D03*
D11*
X159385000Y-49530000D03*
D18*
X117475000Y-44410000D03*
D14*
X117475000Y-41910000D03*
X36195000Y-60980000D03*
X36195000Y-63480000D03*
X161925000Y-122936000D03*
D15*
X172085000Y-122936000D03*
D18*
X137795000Y-163870000D03*
D14*
X137795000Y-166370000D03*
X43815000Y-24150000D03*
X43815000Y-26650000D03*
D18*
X46985000Y-29200000D03*
D15*
X49525000Y-29200000D03*
X52065000Y-29200000D03*
X54605000Y-29200000D03*
X57145000Y-29200000D03*
X59685000Y-29200000D03*
X62225000Y-29200000D03*
X62225000Y-21580000D03*
X59685000Y-21580000D03*
X57145000Y-21580000D03*
X54605000Y-21580000D03*
X52065000Y-21580000D03*
X49525000Y-21580000D03*
X46985000Y-21580000D03*
D18*
X56515000Y-86400000D03*
D14*
X56515000Y-88900000D03*
M02*
