G04 #@! TF.GenerationSoftware,KiCad,Pcbnew,7.0.6*
G04 #@! TF.CreationDate,2023-08-15T13:49:21-04:00*
G04 #@! TF.ProjectId,1 - ATX 16 bit ISA passive backplane,31202d20-4154-4582-9031-362062697420,2*
G04 #@! TF.SameCoordinates,Original*
G04 #@! TF.FileFunction,Soldermask,Top*
G04 #@! TF.FilePolarity,Negative*
%FSLAX46Y46*%
G04 Gerber Fmt 4.6, Leading zero omitted, Abs format (unit mm)*
G04 Created by KiCad (PCBNEW 7.0.6) date 2023-08-15 13:49:21*
%MOMM*%
%LPD*%
G01*
G04 APERTURE LIST*
%ADD10C,0.100000*%
%ADD11R,1.635000X1.635000*%
%ADD12C,1.635000*%
%ADD13C,0.900000*%
%ADD14C,8.000000*%
%ADD15C,1.600000*%
%ADD16O,1.600000X1.600000*%
%ADD17R,1.600000X1.600000*%
%ADD18R,1.700000X1.700000*%
%ADD19O,1.700000X1.700000*%
%ADD20O,3.048000X1.850000*%
%ADD21R,1.500000X1.500000*%
%ADD22C,1.500000*%
%ADD23R,1.800000X1.800000*%
%ADD24C,1.800000*%
%ADD25O,3.500000X3.500000*%
%ADD26R,2.000000X1.905000*%
%ADD27O,2.000000X1.905000*%
%ADD28C,0.001000*%
%ADD29C,2.000000*%
G04 APERTURE END LIST*
D10*
X131318000Y-20701000D02*
X146431000Y-20701000D01*
X146431000Y-30099000D01*
X131318000Y-30099000D01*
X131318000Y-20701000D01*
G36*
X131318000Y-20701000D02*
G01*
X146431000Y-20701000D01*
X146431000Y-30099000D01*
X131318000Y-30099000D01*
X131318000Y-20701000D01*
G37*
D11*
X75553400Y-77475000D03*
D12*
X75553400Y-74935000D03*
X78093400Y-77475000D03*
X78093400Y-74935000D03*
D11*
X55233400Y-77475000D03*
D12*
X55233400Y-74935000D03*
X57773400Y-77475000D03*
X57773400Y-74935000D03*
D13*
X91383400Y-180340000D03*
X92327981Y-178059581D03*
X92327981Y-182620419D03*
X94608400Y-177115000D03*
D14*
X94608400Y-180340000D03*
D13*
X94608400Y-183565000D03*
X96888819Y-178059581D03*
X96888819Y-182620419D03*
X97833400Y-180340000D03*
D15*
X99066600Y-30480000D03*
D16*
X99066600Y-20320000D03*
D17*
X56508400Y-48260000D03*
D15*
X56508400Y-50760000D03*
D18*
X21583400Y-194945000D03*
D19*
X24123400Y-194945000D03*
X26663400Y-194945000D03*
X29203400Y-194945000D03*
X31743400Y-194945000D03*
X34283400Y-194945000D03*
X36823400Y-194945000D03*
X39363400Y-194945000D03*
X41903400Y-194945000D03*
X44443400Y-194945000D03*
X46983400Y-194945000D03*
X49523400Y-194945000D03*
X52063400Y-194945000D03*
X54603400Y-194945000D03*
X57143400Y-194945000D03*
X59683400Y-194945000D03*
X62223400Y-194945000D03*
X64763400Y-194945000D03*
X67303400Y-194945000D03*
X69843400Y-194945000D03*
X72383400Y-194945000D03*
X74923400Y-194945000D03*
X77463400Y-194945000D03*
X80003400Y-194945000D03*
X82543400Y-194945000D03*
X85083400Y-194945000D03*
X87623400Y-194945000D03*
X90163400Y-194945000D03*
X92703400Y-194945000D03*
X95243400Y-194945000D03*
X97783400Y-194945000D03*
X100323400Y-194945000D03*
X102863400Y-194945000D03*
X105403400Y-194945000D03*
X107943400Y-194945000D03*
X110483400Y-194945000D03*
X113023400Y-194945000D03*
X115563400Y-194945000D03*
X118103400Y-194945000D03*
X120643400Y-194945000D03*
D17*
X137788400Y-163870000D03*
D15*
X137788400Y-166370000D03*
D17*
X97148400Y-60960000D03*
D15*
X97148400Y-63460000D03*
D11*
X95873400Y-77475000D03*
D12*
X95873400Y-74935000D03*
X98413400Y-77475000D03*
X98413400Y-74935000D03*
D11*
X34913400Y-77475000D03*
D12*
X34913400Y-74935000D03*
X37453400Y-77475000D03*
X37453400Y-74935000D03*
D15*
X89535000Y-30480000D03*
D16*
X89535000Y-20320000D03*
D13*
X111703400Y-25400000D03*
X112647981Y-23119581D03*
X112647981Y-27680419D03*
X114928400Y-22175000D03*
D14*
X114928400Y-25400000D03*
D13*
X114928400Y-28625000D03*
X117208819Y-23119581D03*
X117208819Y-27680419D03*
X118153400Y-25400000D03*
D20*
X160848400Y-165815000D03*
X173348400Y-165815000D03*
X160848400Y-170815000D03*
X173348400Y-170815000D03*
D18*
X125723400Y-194945000D03*
D19*
X128263400Y-194945000D03*
X130803400Y-194945000D03*
X133343400Y-194945000D03*
X135883400Y-194945000D03*
X138423400Y-194945000D03*
X140963400Y-194945000D03*
X143503400Y-194945000D03*
X146043400Y-194945000D03*
X148583400Y-194945000D03*
X151123400Y-194945000D03*
X153663400Y-194945000D03*
X156203400Y-194945000D03*
X158743400Y-194945000D03*
X161283400Y-194945000D03*
X163823400Y-194945000D03*
X166363400Y-194945000D03*
X168903400Y-194945000D03*
X171443400Y-194945000D03*
X173983400Y-194945000D03*
X176523400Y-194945000D03*
X179063400Y-194945000D03*
D15*
X108591600Y-20320000D03*
D16*
X108591600Y-30480000D03*
D15*
X163158400Y-111125000D03*
X160658400Y-111125000D03*
D21*
X170815000Y-97155000D03*
D22*
X173355000Y-97155000D03*
X175895000Y-97155000D03*
D18*
X168910000Y-30480000D03*
D19*
X171450000Y-30480000D03*
D18*
X168898400Y-22860000D03*
D19*
X171438400Y-22860000D03*
D18*
X168898400Y-27940000D03*
D19*
X171438400Y-27940000D03*
D15*
X172088400Y-111125000D03*
X174588400Y-111125000D03*
X41903400Y-24150000D03*
X41903400Y-26650000D03*
D17*
X56508400Y-60960000D03*
D15*
X56508400Y-63460000D03*
X105416600Y-30480000D03*
D16*
X105416600Y-20320000D03*
D13*
X157423400Y-180340000D03*
X158367981Y-178059581D03*
X158367981Y-182620419D03*
X160648400Y-177115000D03*
D14*
X160648400Y-180340000D03*
D13*
X160648400Y-183565000D03*
X162928819Y-178059581D03*
X162928819Y-182620419D03*
X163873400Y-180340000D03*
D17*
X74295000Y-33020000D03*
D16*
X66675000Y-33020000D03*
D17*
X97148400Y-53300000D03*
D15*
X97148400Y-50800000D03*
D17*
X76828400Y-111760000D03*
D15*
X76828400Y-114260000D03*
D11*
X89535000Y-40640000D03*
D12*
X89535000Y-43180000D03*
X89535000Y-45720000D03*
X89535000Y-48260000D03*
X89535000Y-50800000D03*
X89535000Y-53340000D03*
X89535000Y-55880000D03*
X89535000Y-58420000D03*
X89535000Y-60960000D03*
X89535000Y-63500000D03*
X89535000Y-66040000D03*
X89535000Y-68580000D03*
X89535000Y-71120000D03*
X89535000Y-73660000D03*
X89535000Y-76200000D03*
X89535000Y-78740000D03*
X89535000Y-81280000D03*
X89535000Y-83820000D03*
X89535000Y-86360000D03*
X89535000Y-88900000D03*
X89535000Y-91440000D03*
X89535000Y-93980000D03*
X89535000Y-96520000D03*
X89535000Y-99060000D03*
X89535000Y-101600000D03*
X89535000Y-104140000D03*
X89535000Y-106680000D03*
X89535000Y-109220000D03*
X89535000Y-111760000D03*
X89535000Y-114300000D03*
X89535000Y-116840000D03*
X84455000Y-40640000D03*
X84455000Y-43180000D03*
X84455000Y-45720000D03*
X84455000Y-48260000D03*
X84455000Y-50800000D03*
X84455000Y-53340000D03*
X84455000Y-55880000D03*
X84455000Y-58420000D03*
X84455000Y-60960000D03*
X84455000Y-63500000D03*
X84455000Y-66040000D03*
X84455000Y-68580000D03*
X84455000Y-71120000D03*
X84455000Y-73660000D03*
X84455000Y-76200000D03*
X84455000Y-78740000D03*
X84455000Y-81280000D03*
X84455000Y-83820000D03*
X84455000Y-86360000D03*
X84455000Y-88900000D03*
X84455000Y-91440000D03*
X84455000Y-93980000D03*
X84455000Y-96520000D03*
X84455000Y-99060000D03*
X84455000Y-101600000D03*
X84455000Y-104140000D03*
X84455000Y-106680000D03*
X84455000Y-109220000D03*
X84455000Y-111760000D03*
X84455000Y-114300000D03*
X84455000Y-116840000D03*
X89535000Y-127000000D03*
X89535000Y-129540000D03*
X89535000Y-132080000D03*
X89535000Y-134620000D03*
X89535000Y-137160000D03*
X89535000Y-139700000D03*
X89535000Y-142240000D03*
X89535000Y-144780000D03*
X89535000Y-147320000D03*
X89535000Y-149860000D03*
X89535000Y-152400000D03*
X89535000Y-154940000D03*
X89535000Y-157480000D03*
X89535000Y-160020000D03*
X89535000Y-162560000D03*
X89535000Y-165100000D03*
X89535000Y-167640000D03*
X89535000Y-170180000D03*
X84455000Y-127000000D03*
X84455000Y-129540000D03*
X84455000Y-132080000D03*
X84455000Y-134620000D03*
X84455000Y-137160000D03*
X84455000Y-139700000D03*
X84455000Y-142240000D03*
X84455000Y-144780000D03*
X84455000Y-147320000D03*
X84455000Y-149860000D03*
X84455000Y-152400000D03*
X84455000Y-154940000D03*
X84455000Y-157480000D03*
X84455000Y-160020000D03*
X84455000Y-162560000D03*
X84455000Y-165100000D03*
X84455000Y-167640000D03*
X84455000Y-170180000D03*
D17*
X36188400Y-111760000D03*
D15*
X36188400Y-114260000D03*
D18*
X175895000Y-103505000D03*
D19*
X173355000Y-103505000D03*
X170815000Y-103505000D03*
D17*
X56508400Y-163917600D03*
D15*
X56508400Y-166417600D03*
D17*
X117468400Y-45680000D03*
D15*
X117468400Y-43180000D03*
X95891600Y-30480000D03*
D16*
X95891600Y-20320000D03*
D23*
X172708400Y-139700000D03*
D24*
X175248400Y-139700000D03*
D13*
X111703400Y-180340000D03*
X112647981Y-178059581D03*
X112647981Y-182620419D03*
X114928400Y-177115000D03*
D14*
X114928400Y-180340000D03*
D13*
X114928400Y-183565000D03*
X117208819Y-178059581D03*
X117208819Y-182620419D03*
X118153400Y-180340000D03*
X157423400Y-25400000D03*
X158367981Y-23119581D03*
X158367981Y-27680419D03*
X160648400Y-22175000D03*
D14*
X160648400Y-25400000D03*
D13*
X160648400Y-28625000D03*
X162928819Y-23119581D03*
X162928819Y-27680419D03*
X163873400Y-25400000D03*
D11*
X156838400Y-77470000D03*
D12*
X156838400Y-74930000D03*
X159378400Y-77470000D03*
X159378400Y-74930000D03*
D17*
X122548400Y-31075000D03*
D15*
X122548400Y-28575000D03*
D17*
X84455000Y-33020000D03*
D16*
X76835000Y-33020000D03*
D11*
X116193400Y-77475000D03*
D12*
X116193400Y-74935000D03*
X118733400Y-77475000D03*
X118733400Y-74935000D03*
D15*
X64763400Y-24150000D03*
X64763400Y-26650000D03*
D23*
X160013400Y-139700000D03*
D24*
X162553400Y-139700000D03*
D11*
X150495000Y-40640000D03*
D12*
X150495000Y-43180000D03*
X150495000Y-45720000D03*
X150495000Y-48260000D03*
X150495000Y-50800000D03*
X150495000Y-53340000D03*
X150495000Y-55880000D03*
X150495000Y-58420000D03*
X150495000Y-60960000D03*
X150495000Y-63500000D03*
X150495000Y-66040000D03*
X150495000Y-68580000D03*
X150495000Y-71120000D03*
X150495000Y-73660000D03*
X150495000Y-76200000D03*
X150495000Y-78740000D03*
X150495000Y-81280000D03*
X150495000Y-83820000D03*
X150495000Y-86360000D03*
X150495000Y-88900000D03*
X150495000Y-91440000D03*
X150495000Y-93980000D03*
X150495000Y-96520000D03*
X150495000Y-99060000D03*
X150495000Y-101600000D03*
X150495000Y-104140000D03*
X150495000Y-106680000D03*
X150495000Y-109220000D03*
X150495000Y-111760000D03*
X150495000Y-114300000D03*
X150495000Y-116840000D03*
X145415000Y-40640000D03*
X145415000Y-43180000D03*
X145415000Y-45720000D03*
X145415000Y-48260000D03*
X145415000Y-50800000D03*
X145415000Y-53340000D03*
X145415000Y-55880000D03*
X145415000Y-58420000D03*
X145415000Y-60960000D03*
X145415000Y-63500000D03*
X145415000Y-66040000D03*
X145415000Y-68580000D03*
X145415000Y-71120000D03*
X145415000Y-73660000D03*
X145415000Y-76200000D03*
X145415000Y-78740000D03*
X145415000Y-81280000D03*
X145415000Y-83820000D03*
X145415000Y-86360000D03*
X145415000Y-88900000D03*
X145415000Y-91440000D03*
X145415000Y-93980000D03*
X145415000Y-96520000D03*
X145415000Y-99060000D03*
X145415000Y-101600000D03*
X145415000Y-104140000D03*
X145415000Y-106680000D03*
X145415000Y-109220000D03*
X145415000Y-111760000D03*
X145415000Y-114300000D03*
X145415000Y-116840000D03*
X150495000Y-127000000D03*
X150495000Y-129540000D03*
X150495000Y-132080000D03*
X150495000Y-134620000D03*
X150495000Y-137160000D03*
X150495000Y-139700000D03*
X150495000Y-142240000D03*
X150495000Y-144780000D03*
X150495000Y-147320000D03*
X150495000Y-149860000D03*
X150495000Y-152400000D03*
X150495000Y-154940000D03*
X150495000Y-157480000D03*
X150495000Y-160020000D03*
X150495000Y-162560000D03*
X150495000Y-165100000D03*
X150495000Y-167640000D03*
X150495000Y-170180000D03*
X145415000Y-127000000D03*
X145415000Y-129540000D03*
X145415000Y-132080000D03*
X145415000Y-134620000D03*
X145415000Y-137160000D03*
X145415000Y-139700000D03*
X145415000Y-142240000D03*
X145415000Y-144780000D03*
X145415000Y-147320000D03*
X145415000Y-149860000D03*
X145415000Y-152400000D03*
X145415000Y-154940000D03*
X145415000Y-157480000D03*
X145415000Y-160020000D03*
X145415000Y-162560000D03*
X145415000Y-165100000D03*
X145415000Y-167640000D03*
X145415000Y-170180000D03*
D11*
X136518400Y-77470000D03*
D12*
X136518400Y-74930000D03*
X139058400Y-77470000D03*
X139058400Y-74930000D03*
D11*
X48895000Y-40640000D03*
D12*
X48895000Y-43180000D03*
X48895000Y-45720000D03*
X48895000Y-48260000D03*
X48895000Y-50800000D03*
X48895000Y-53340000D03*
X48895000Y-55880000D03*
X48895000Y-58420000D03*
X48895000Y-60960000D03*
X48895000Y-63500000D03*
X48895000Y-66040000D03*
X48895000Y-68580000D03*
X48895000Y-71120000D03*
X48895000Y-73660000D03*
X48895000Y-76200000D03*
X48895000Y-78740000D03*
X48895000Y-81280000D03*
X48895000Y-83820000D03*
X48895000Y-86360000D03*
X48895000Y-88900000D03*
X48895000Y-91440000D03*
X48895000Y-93980000D03*
X48895000Y-96520000D03*
X48895000Y-99060000D03*
X48895000Y-101600000D03*
X48895000Y-104140000D03*
X48895000Y-106680000D03*
X48895000Y-109220000D03*
X48895000Y-111760000D03*
X48895000Y-114300000D03*
X48895000Y-116840000D03*
X43815000Y-40640000D03*
X43815000Y-43180000D03*
X43815000Y-45720000D03*
X43815000Y-48260000D03*
X43815000Y-50800000D03*
X43815000Y-53340000D03*
X43815000Y-55880000D03*
X43815000Y-58420000D03*
X43815000Y-60960000D03*
X43815000Y-63500000D03*
X43815000Y-66040000D03*
X43815000Y-68580000D03*
X43815000Y-71120000D03*
X43815000Y-73660000D03*
X43815000Y-76200000D03*
X43815000Y-78740000D03*
X43815000Y-81280000D03*
X43815000Y-83820000D03*
X43815000Y-86360000D03*
X43815000Y-88900000D03*
X43815000Y-91440000D03*
X43815000Y-93980000D03*
X43815000Y-96520000D03*
X43815000Y-99060000D03*
X43815000Y-101600000D03*
X43815000Y-104140000D03*
X43815000Y-106680000D03*
X43815000Y-109220000D03*
X43815000Y-111760000D03*
X43815000Y-114300000D03*
X43815000Y-116840000D03*
X48895000Y-127000000D03*
X48895000Y-129540000D03*
X48895000Y-132080000D03*
X48895000Y-134620000D03*
X48895000Y-137160000D03*
X48895000Y-139700000D03*
X48895000Y-142240000D03*
X48895000Y-144780000D03*
X48895000Y-147320000D03*
X48895000Y-149860000D03*
X48895000Y-152400000D03*
X48895000Y-154940000D03*
X48895000Y-157480000D03*
X48895000Y-160020000D03*
X48895000Y-162560000D03*
X48895000Y-165100000D03*
X48895000Y-167640000D03*
X48895000Y-170180000D03*
X43815000Y-127000000D03*
X43815000Y-129540000D03*
X43815000Y-132080000D03*
X43815000Y-134620000D03*
X43815000Y-137160000D03*
X43815000Y-139700000D03*
X43815000Y-142240000D03*
X43815000Y-144780000D03*
X43815000Y-147320000D03*
X43815000Y-149860000D03*
X43815000Y-152400000D03*
X43815000Y-154940000D03*
X43815000Y-157480000D03*
X43815000Y-160020000D03*
X43815000Y-162560000D03*
X43815000Y-165100000D03*
X43815000Y-167640000D03*
X43815000Y-170180000D03*
D17*
X137788400Y-60960000D03*
D15*
X137788400Y-63460000D03*
D11*
X130168400Y-40640000D03*
D12*
X130168400Y-43180000D03*
X130168400Y-45720000D03*
X130168400Y-48260000D03*
X130168400Y-50800000D03*
X130168400Y-53340000D03*
X130168400Y-55880000D03*
X130168400Y-58420000D03*
X130168400Y-60960000D03*
X130168400Y-63500000D03*
X130168400Y-66040000D03*
X130168400Y-68580000D03*
X130168400Y-71120000D03*
X130168400Y-73660000D03*
X130168400Y-76200000D03*
X130168400Y-78740000D03*
X130168400Y-81280000D03*
X130168400Y-83820000D03*
X130168400Y-86360000D03*
X130168400Y-88900000D03*
X130168400Y-91440000D03*
X130168400Y-93980000D03*
X130168400Y-96520000D03*
X130168400Y-99060000D03*
X130168400Y-101600000D03*
X130168400Y-104140000D03*
X130168400Y-106680000D03*
X130168400Y-109220000D03*
X130168400Y-111760000D03*
X130168400Y-114300000D03*
X130168400Y-116840000D03*
X125088400Y-40640000D03*
X125088400Y-43180000D03*
X125088400Y-45720000D03*
X125088400Y-48260000D03*
X125088400Y-50800000D03*
X125088400Y-53340000D03*
X125088400Y-55880000D03*
X125088400Y-58420000D03*
X125088400Y-60960000D03*
X125088400Y-63500000D03*
X125088400Y-66040000D03*
X125088400Y-68580000D03*
X125088400Y-71120000D03*
X125088400Y-73660000D03*
X125088400Y-76200000D03*
X125088400Y-78740000D03*
X125088400Y-81280000D03*
X125088400Y-83820000D03*
X125088400Y-86360000D03*
X125088400Y-88900000D03*
X125088400Y-91440000D03*
X125088400Y-93980000D03*
X125088400Y-96520000D03*
X125088400Y-99060000D03*
X125088400Y-101600000D03*
X125088400Y-104140000D03*
X125088400Y-106680000D03*
X125088400Y-109220000D03*
X125088400Y-111760000D03*
X125088400Y-114300000D03*
X125088400Y-116840000D03*
X130168400Y-127000000D03*
X130168400Y-129540000D03*
X130168400Y-132080000D03*
X130168400Y-134620000D03*
X130168400Y-137160000D03*
X130168400Y-139700000D03*
X130168400Y-142240000D03*
X130168400Y-144780000D03*
X130168400Y-147320000D03*
X130168400Y-149860000D03*
X130168400Y-152400000D03*
X130168400Y-154940000D03*
X130168400Y-157480000D03*
X130168400Y-160020000D03*
X130168400Y-162560000D03*
X130168400Y-165100000D03*
X130168400Y-167640000D03*
X130168400Y-170180000D03*
X125088400Y-127000000D03*
X125088400Y-129540000D03*
X125088400Y-132080000D03*
X125088400Y-134620000D03*
X125088400Y-137160000D03*
X125088400Y-139700000D03*
X125088400Y-142240000D03*
X125088400Y-144780000D03*
X125088400Y-147320000D03*
X125088400Y-149860000D03*
X125088400Y-152400000D03*
X125088400Y-154940000D03*
X125088400Y-157480000D03*
X125088400Y-160020000D03*
X125088400Y-162560000D03*
X125088400Y-165100000D03*
X125088400Y-167640000D03*
X125088400Y-170180000D03*
D11*
X28575000Y-40640000D03*
D12*
X28575000Y-43180000D03*
X28575000Y-45720000D03*
X28575000Y-48260000D03*
X28575000Y-50800000D03*
X28575000Y-53340000D03*
X28575000Y-55880000D03*
X28575000Y-58420000D03*
X28575000Y-60960000D03*
X28575000Y-63500000D03*
X28575000Y-66040000D03*
X28575000Y-68580000D03*
X28575000Y-71120000D03*
X28575000Y-73660000D03*
X28575000Y-76200000D03*
X28575000Y-78740000D03*
X28575000Y-81280000D03*
X28575000Y-83820000D03*
X28575000Y-86360000D03*
X28575000Y-88900000D03*
X28575000Y-91440000D03*
X28575000Y-93980000D03*
X28575000Y-96520000D03*
X28575000Y-99060000D03*
X28575000Y-101600000D03*
X28575000Y-104140000D03*
X28575000Y-106680000D03*
X28575000Y-109220000D03*
X28575000Y-111760000D03*
X28575000Y-114300000D03*
X28575000Y-116840000D03*
X23495000Y-40640000D03*
X23495000Y-43180000D03*
X23495000Y-45720000D03*
X23495000Y-48260000D03*
X23495000Y-50800000D03*
X23495000Y-53340000D03*
X23495000Y-55880000D03*
X23495000Y-58420000D03*
X23495000Y-60960000D03*
X23495000Y-63500000D03*
X23495000Y-66040000D03*
X23495000Y-68580000D03*
X23495000Y-71120000D03*
X23495000Y-73660000D03*
X23495000Y-76200000D03*
X23495000Y-78740000D03*
X23495000Y-81280000D03*
X23495000Y-83820000D03*
X23495000Y-86360000D03*
X23495000Y-88900000D03*
X23495000Y-91440000D03*
X23495000Y-93980000D03*
X23495000Y-96520000D03*
X23495000Y-99060000D03*
X23495000Y-101600000D03*
X23495000Y-104140000D03*
X23495000Y-106680000D03*
X23495000Y-109220000D03*
X23495000Y-111760000D03*
X23495000Y-114300000D03*
X23495000Y-116840000D03*
X28575000Y-127000000D03*
X28575000Y-129540000D03*
X28575000Y-132080000D03*
X28575000Y-134620000D03*
X28575000Y-137160000D03*
X28575000Y-139700000D03*
X28575000Y-142240000D03*
X28575000Y-144780000D03*
X28575000Y-147320000D03*
X28575000Y-149860000D03*
X28575000Y-152400000D03*
X28575000Y-154940000D03*
X28575000Y-157480000D03*
X28575000Y-160020000D03*
X28575000Y-162560000D03*
X28575000Y-165100000D03*
X28575000Y-167640000D03*
X28575000Y-170180000D03*
X23495000Y-127000000D03*
X23495000Y-129540000D03*
X23495000Y-132080000D03*
X23495000Y-134620000D03*
X23495000Y-137160000D03*
X23495000Y-139700000D03*
X23495000Y-142240000D03*
X23495000Y-144780000D03*
X23495000Y-147320000D03*
X23495000Y-149860000D03*
X23495000Y-152400000D03*
X23495000Y-154940000D03*
X23495000Y-157480000D03*
X23495000Y-160020000D03*
X23495000Y-162560000D03*
X23495000Y-165100000D03*
X23495000Y-167640000D03*
X23495000Y-170180000D03*
D18*
X168898400Y-20320000D03*
D19*
X171438400Y-20320000D03*
D13*
X32963400Y-180340000D03*
X33907981Y-178059581D03*
X33907981Y-182620419D03*
X36188400Y-177115000D03*
D14*
X36188400Y-180340000D03*
D13*
X36188400Y-183565000D03*
X38468819Y-178059581D03*
X38468819Y-182620419D03*
X39413400Y-180340000D03*
D18*
X168898400Y-25400000D03*
D19*
X171438400Y-25400000D03*
D17*
X117468400Y-58380000D03*
D15*
X117468400Y-55880000D03*
D17*
X158098400Y-114300000D03*
D16*
X158098400Y-116840000D03*
X158098400Y-119380000D03*
X158098400Y-121920000D03*
X158098400Y-124460000D03*
X158098400Y-127000000D03*
X158098400Y-129540000D03*
X158098400Y-132080000D03*
X165718400Y-132080000D03*
X165718400Y-129540000D03*
X165718400Y-127000000D03*
X165718400Y-124460000D03*
X165718400Y-121920000D03*
X165718400Y-119380000D03*
X165718400Y-116840000D03*
X165718400Y-114300000D03*
D17*
X137788400Y-53300000D03*
D15*
X137788400Y-50800000D03*
D18*
X160650000Y-103505000D03*
D19*
X163190000Y-103505000D03*
D15*
X92710000Y-30480000D03*
D16*
X92710000Y-20320000D03*
D15*
X102241600Y-30480000D03*
D16*
X102241600Y-20320000D03*
D23*
X166358400Y-139700000D03*
D24*
X168898400Y-139700000D03*
D20*
X160848400Y-149305000D03*
X173348400Y-149305000D03*
X160848400Y-154305000D03*
X173348400Y-154305000D03*
D13*
X32963400Y-25400000D03*
X33907981Y-23119581D03*
X33907981Y-27680419D03*
X36188400Y-22175000D03*
D14*
X36188400Y-25400000D03*
D13*
X36188400Y-28625000D03*
X38468819Y-23119581D03*
X38468819Y-27680419D03*
X39413400Y-25400000D03*
D17*
X76828400Y-45680000D03*
D15*
X76828400Y-43180000D03*
X26515000Y-20320000D03*
D16*
X26515000Y-30480000D03*
D17*
X137788400Y-86400000D03*
D15*
X137788400Y-88900000D03*
D25*
X133828400Y-25400000D03*
D26*
X150488400Y-27940000D03*
D27*
X150488400Y-25400000D03*
X150488400Y-22860000D03*
D18*
X159385000Y-87630000D03*
D19*
X156845000Y-87630000D03*
D17*
X117468400Y-111760000D03*
D15*
X117468400Y-114260000D03*
X29845000Y-20320000D03*
D16*
X29845000Y-30480000D03*
D17*
X56508400Y-86400000D03*
D15*
X56508400Y-88900000D03*
D11*
X69215000Y-40640000D03*
D12*
X69215000Y-43180000D03*
X69215000Y-45720000D03*
X69215000Y-48260000D03*
X69215000Y-50800000D03*
X69215000Y-53340000D03*
X69215000Y-55880000D03*
X69215000Y-58420000D03*
X69215000Y-60960000D03*
X69215000Y-63500000D03*
X69215000Y-66040000D03*
X69215000Y-68580000D03*
X69215000Y-71120000D03*
X69215000Y-73660000D03*
X69215000Y-76200000D03*
X69215000Y-78740000D03*
X69215000Y-81280000D03*
X69215000Y-83820000D03*
X69215000Y-86360000D03*
X69215000Y-88900000D03*
X69215000Y-91440000D03*
X69215000Y-93980000D03*
X69215000Y-96520000D03*
X69215000Y-99060000D03*
X69215000Y-101600000D03*
X69215000Y-104140000D03*
X69215000Y-106680000D03*
X69215000Y-109220000D03*
X69215000Y-111760000D03*
X69215000Y-114300000D03*
X69215000Y-116840000D03*
X64135000Y-40640000D03*
X64135000Y-43180000D03*
X64135000Y-45720000D03*
X64135000Y-48260000D03*
X64135000Y-50800000D03*
X64135000Y-53340000D03*
X64135000Y-55880000D03*
X64135000Y-58420000D03*
X64135000Y-60960000D03*
X64135000Y-63500000D03*
X64135000Y-66040000D03*
X64135000Y-68580000D03*
X64135000Y-71120000D03*
X64135000Y-73660000D03*
X64135000Y-76200000D03*
X64135000Y-78740000D03*
X64135000Y-81280000D03*
X64135000Y-83820000D03*
X64135000Y-86360000D03*
X64135000Y-88900000D03*
X64135000Y-91440000D03*
X64135000Y-93980000D03*
X64135000Y-96520000D03*
X64135000Y-99060000D03*
X64135000Y-101600000D03*
X64135000Y-104140000D03*
X64135000Y-106680000D03*
X64135000Y-109220000D03*
X64135000Y-111760000D03*
X64135000Y-114300000D03*
X64135000Y-116840000D03*
X69215000Y-127000000D03*
X69215000Y-129540000D03*
X69215000Y-132080000D03*
X69215000Y-134620000D03*
X69215000Y-137160000D03*
X69215000Y-139700000D03*
X69215000Y-142240000D03*
X69215000Y-144780000D03*
X69215000Y-147320000D03*
X69215000Y-149860000D03*
X69215000Y-152400000D03*
X69215000Y-154940000D03*
X69215000Y-157480000D03*
X69215000Y-160020000D03*
X69215000Y-162560000D03*
X69215000Y-165100000D03*
X69215000Y-167640000D03*
X69215000Y-170180000D03*
X64135000Y-127000000D03*
X64135000Y-129540000D03*
X64135000Y-132080000D03*
X64135000Y-134620000D03*
X64135000Y-137160000D03*
X64135000Y-139700000D03*
X64135000Y-142240000D03*
X64135000Y-144780000D03*
X64135000Y-147320000D03*
X64135000Y-149860000D03*
X64135000Y-152400000D03*
X64135000Y-154940000D03*
X64135000Y-157480000D03*
X64135000Y-160020000D03*
X64135000Y-162560000D03*
X64135000Y-165100000D03*
X64135000Y-167640000D03*
X64135000Y-170180000D03*
D17*
X97148400Y-86360000D03*
D15*
X97148400Y-88860000D03*
D17*
X45078400Y-29200000D03*
D16*
X47618400Y-29200000D03*
X50158400Y-29200000D03*
X52698400Y-29200000D03*
X55238400Y-29200000D03*
X57778400Y-29200000D03*
X60318400Y-29200000D03*
X60318400Y-21580000D03*
X57778400Y-21580000D03*
X55238400Y-21580000D03*
X52698400Y-21580000D03*
X50158400Y-21580000D03*
X47618400Y-21580000D03*
X45078400Y-21580000D03*
D17*
X76828400Y-58380000D03*
D15*
X76828400Y-55880000D03*
D17*
X36188400Y-45680000D03*
D15*
X36188400Y-43180000D03*
D11*
X109855000Y-40640000D03*
D12*
X109855000Y-43180000D03*
X109855000Y-45720000D03*
X109855000Y-48260000D03*
X109855000Y-50800000D03*
X109855000Y-53340000D03*
X109855000Y-55880000D03*
X109855000Y-58420000D03*
X109855000Y-60960000D03*
X109855000Y-63500000D03*
X109855000Y-66040000D03*
X109855000Y-68580000D03*
X109855000Y-71120000D03*
X109855000Y-73660000D03*
X109855000Y-76200000D03*
X109855000Y-78740000D03*
X109855000Y-81280000D03*
X109855000Y-83820000D03*
X109855000Y-86360000D03*
X109855000Y-88900000D03*
X109855000Y-91440000D03*
X109855000Y-93980000D03*
X109855000Y-96520000D03*
X109855000Y-99060000D03*
X109855000Y-101600000D03*
X109855000Y-104140000D03*
X109855000Y-106680000D03*
X109855000Y-109220000D03*
X109855000Y-111760000D03*
X109855000Y-114300000D03*
X109855000Y-116840000D03*
X104775000Y-40640000D03*
X104775000Y-43180000D03*
X104775000Y-45720000D03*
X104775000Y-48260000D03*
X104775000Y-50800000D03*
X104775000Y-53340000D03*
X104775000Y-55880000D03*
X104775000Y-58420000D03*
X104775000Y-60960000D03*
X104775000Y-63500000D03*
X104775000Y-66040000D03*
X104775000Y-68580000D03*
X104775000Y-71120000D03*
X104775000Y-73660000D03*
X104775000Y-76200000D03*
X104775000Y-78740000D03*
X104775000Y-81280000D03*
X104775000Y-83820000D03*
X104775000Y-86360000D03*
X104775000Y-88900000D03*
X104775000Y-91440000D03*
X104775000Y-93980000D03*
X104775000Y-96520000D03*
X104775000Y-99060000D03*
X104775000Y-101600000D03*
X104775000Y-104140000D03*
X104775000Y-106680000D03*
X104775000Y-109220000D03*
X104775000Y-111760000D03*
X104775000Y-114300000D03*
X104775000Y-116840000D03*
X109855000Y-127000000D03*
X109855000Y-129540000D03*
X109855000Y-132080000D03*
X109855000Y-134620000D03*
X109855000Y-137160000D03*
X109855000Y-139700000D03*
X109855000Y-142240000D03*
X109855000Y-144780000D03*
X109855000Y-147320000D03*
X109855000Y-149860000D03*
X109855000Y-152400000D03*
X109855000Y-154940000D03*
X109855000Y-157480000D03*
X109855000Y-160020000D03*
X109855000Y-162560000D03*
X109855000Y-165100000D03*
X109855000Y-167640000D03*
X109855000Y-170180000D03*
X104775000Y-127000000D03*
X104775000Y-129540000D03*
X104775000Y-132080000D03*
X104775000Y-134620000D03*
X104775000Y-137160000D03*
X104775000Y-139700000D03*
X104775000Y-142240000D03*
X104775000Y-144780000D03*
X104775000Y-147320000D03*
X104775000Y-149860000D03*
X104775000Y-152400000D03*
X104775000Y-154940000D03*
X104775000Y-157480000D03*
X104775000Y-160020000D03*
X104775000Y-162560000D03*
X104775000Y-165100000D03*
X104775000Y-167640000D03*
X104775000Y-170180000D03*
D17*
X97148400Y-163917600D03*
D15*
X97148400Y-166417600D03*
D28*
X174353400Y-89635000D03*
D29*
X169313400Y-84935000D03*
X169313400Y-80735000D03*
X169313400Y-76535000D03*
X169313400Y-72335000D03*
X169313400Y-68135000D03*
X169313400Y-63935000D03*
X169313400Y-59735000D03*
X169313400Y-55535000D03*
X169313400Y-51335000D03*
X169313400Y-47135000D03*
X169313400Y-42935000D03*
X169313400Y-38735000D03*
X174813400Y-84935000D03*
X174813400Y-80735000D03*
X174813400Y-76535000D03*
X174813400Y-72335000D03*
X174813400Y-68135000D03*
X174813400Y-63935000D03*
X174813400Y-59735000D03*
X174813400Y-55535000D03*
X174813400Y-51335000D03*
X174813400Y-47135000D03*
X174813400Y-42935000D03*
X174813400Y-38735000D03*
D17*
X169545000Y-114300000D03*
D16*
X169545000Y-116840000D03*
X169545000Y-119380000D03*
X169545000Y-121920000D03*
X169545000Y-124460000D03*
X169545000Y-127000000D03*
X169545000Y-129540000D03*
X169545000Y-132080000D03*
X177165000Y-132080000D03*
X177165000Y-129540000D03*
X177165000Y-127000000D03*
X177165000Y-124460000D03*
X177165000Y-121920000D03*
X177165000Y-119380000D03*
X177165000Y-116840000D03*
X177165000Y-114300000D03*
D17*
X36188400Y-58420000D03*
D15*
X36188400Y-55920000D03*
X23100000Y-20320000D03*
D16*
X23100000Y-30480000D03*
D17*
X122548400Y-20995000D03*
D15*
X122548400Y-23495000D03*
D17*
X67933400Y-29200000D03*
D16*
X70473400Y-29200000D03*
X73013400Y-29200000D03*
X75553400Y-29200000D03*
X78093400Y-29200000D03*
X80633400Y-29200000D03*
X83173400Y-29200000D03*
X83173400Y-21580000D03*
X80633400Y-21580000D03*
X78093400Y-21580000D03*
X75553400Y-21580000D03*
X73013400Y-21580000D03*
X70473400Y-21580000D03*
X67933400Y-21580000D03*
M02*
