G04 #@! TF.GenerationSoftware,KiCad,Pcbnew,7.0.7*
G04 #@! TF.CreationDate,2023-09-23T19:41:28-04:00*
G04 #@! TF.ProjectId,2 - CPU and core components (Rev 3),32202d20-4350-4552-9061-6e6420636f72,rev?*
G04 #@! TF.SameCoordinates,Original*
G04 #@! TF.FileFunction,Soldermask,Top*
G04 #@! TF.FilePolarity,Negative*
%FSLAX46Y46*%
G04 Gerber Fmt 4.6, Leading zero omitted, Abs format (unit mm)*
G04 Created by KiCad (PCBNEW 7.0.7) date 2023-09-23 19:41:28*
%MOMM*%
%LPD*%
G01*
G04 APERTURE LIST*
%ADD10R,1.600000X1.600000*%
%ADD11O,1.600000X1.600000*%
%ADD12C,1.600000*%
%ADD13R,1.800000X1.800000*%
%ADD14C,1.800000*%
%ADD15R,1.440000X2.000000*%
%ADD16O,1.440000X2.000000*%
%ADD17R,1.780000X7.620000*%
%ADD18C,4.000000*%
%ADD19C,3.000000*%
G04 APERTURE END LIST*
D10*
X176843100Y-125032600D03*
D11*
X179383100Y-125032600D03*
X181923100Y-125032600D03*
X184463100Y-125032600D03*
X187003100Y-125032600D03*
X189543100Y-125032600D03*
X192083100Y-125032600D03*
X194623100Y-125032600D03*
X194623100Y-117412600D03*
X192083100Y-117412600D03*
X189543100Y-117412600D03*
X187003100Y-117412600D03*
X184463100Y-117412600D03*
X181923100Y-117412600D03*
X179383100Y-117412600D03*
X176843100Y-117412600D03*
D10*
X176858100Y-114227600D03*
D11*
X179398100Y-114227600D03*
X181938100Y-114227600D03*
X184478100Y-114227600D03*
X187018100Y-114227600D03*
X189558100Y-114227600D03*
X192098100Y-114227600D03*
X194638100Y-114227600D03*
X197178100Y-114227600D03*
X199718100Y-114227600D03*
X199718100Y-106607600D03*
X197178100Y-106607600D03*
X194638100Y-106607600D03*
X192098100Y-106607600D03*
X189558100Y-106607600D03*
X187018100Y-106607600D03*
X184478100Y-106607600D03*
X181938100Y-106607600D03*
X179398100Y-106607600D03*
X176858100Y-106607600D03*
D12*
X202273100Y-78042600D03*
X204773100Y-78042600D03*
D10*
X199713100Y-81852600D03*
D11*
X202253100Y-81852600D03*
X204793100Y-81852600D03*
X207333100Y-81852600D03*
X209873100Y-81852600D03*
X212413100Y-81852600D03*
X214953100Y-81852600D03*
X214953100Y-74232600D03*
X212413100Y-74232600D03*
X209873100Y-74232600D03*
X207333100Y-74232600D03*
X204793100Y-74232600D03*
X202253100Y-74232600D03*
X199713100Y-74232600D03*
D12*
X181953100Y-78042600D03*
X184453100Y-78042600D03*
D13*
X175842100Y-87059600D03*
D14*
X173302100Y-87059600D03*
D12*
X167963100Y-92647600D03*
D11*
X157803100Y-92647600D03*
D10*
X173043100Y-115507600D03*
D11*
X173043100Y-118047600D03*
X173043100Y-120587600D03*
X173043100Y-123127600D03*
X173043100Y-125667600D03*
X173043100Y-128207600D03*
D12*
X157803100Y-77407600D03*
D11*
X167963100Y-77407600D03*
D13*
X197173100Y-135212600D03*
D14*
X197173100Y-132672600D03*
D15*
X129863100Y-71057600D03*
D16*
X132403100Y-71057600D03*
X134943100Y-71057600D03*
X137483100Y-71057600D03*
X140023100Y-71057600D03*
X142563100Y-71057600D03*
X145103100Y-71057600D03*
X147643100Y-71057600D03*
X150183100Y-71057600D03*
X152723100Y-71057600D03*
X155263100Y-71057600D03*
X157803100Y-71057600D03*
X160343100Y-71057600D03*
X162883100Y-71057600D03*
X165423100Y-71057600D03*
X167963100Y-71057600D03*
X167963100Y-55817600D03*
X165423100Y-55817600D03*
X162883100Y-55817600D03*
X160343100Y-55817600D03*
X157803100Y-55817600D03*
X155263100Y-55817600D03*
X152723100Y-55817600D03*
X150183100Y-55817600D03*
X147643100Y-55817600D03*
X145103100Y-55817600D03*
X142563100Y-55817600D03*
X140023100Y-55817600D03*
X137483100Y-55817600D03*
X134943100Y-55817600D03*
X132403100Y-55817600D03*
X129863100Y-55817600D03*
D10*
X199713100Y-92647600D03*
D11*
X202253100Y-92647600D03*
X204793100Y-92647600D03*
X207333100Y-92647600D03*
X209873100Y-92647600D03*
X212413100Y-92647600D03*
X214953100Y-92647600D03*
X214953100Y-85027600D03*
X212413100Y-85027600D03*
X209873100Y-85027600D03*
X207333100Y-85027600D03*
X204793100Y-85027600D03*
X202253100Y-85027600D03*
X199713100Y-85027600D03*
D10*
X120973100Y-129477600D03*
D11*
X123513100Y-129477600D03*
X126053100Y-129477600D03*
X128593100Y-129477600D03*
X131133100Y-129477600D03*
X133673100Y-129477600D03*
X136213100Y-129477600D03*
X138753100Y-129477600D03*
X141293100Y-129477600D03*
X143833100Y-129477600D03*
X146373100Y-129477600D03*
X148913100Y-129477600D03*
X151453100Y-129477600D03*
X153993100Y-129477600D03*
X156533100Y-129477600D03*
X159073100Y-129477600D03*
X161613100Y-129477600D03*
X164153100Y-129477600D03*
X166693100Y-129477600D03*
X169233100Y-129477600D03*
X169233100Y-114237600D03*
X166693100Y-114237600D03*
X164153100Y-114237600D03*
X161613100Y-114237600D03*
X159073100Y-114237600D03*
X156533100Y-114237600D03*
X153993100Y-114237600D03*
X151453100Y-114237600D03*
X148913100Y-114237600D03*
X146373100Y-114237600D03*
X143833100Y-114237600D03*
X141293100Y-114237600D03*
X138753100Y-114237600D03*
X136213100Y-114237600D03*
X133673100Y-114237600D03*
X131133100Y-114237600D03*
X128593100Y-114237600D03*
X126053100Y-114237600D03*
X123513100Y-114237600D03*
X120973100Y-114237600D03*
D12*
X179413100Y-110427600D03*
X181913100Y-110427600D03*
X161633100Y-85027600D03*
X164133100Y-85027600D03*
D17*
X197808100Y-147257600D03*
X195268100Y-147257600D03*
X192728100Y-147257600D03*
X190188100Y-147257600D03*
X187648100Y-147257600D03*
X185108100Y-147257600D03*
X182568100Y-147257600D03*
X180028100Y-147257600D03*
X177488100Y-147257600D03*
X174948100Y-147257600D03*
X172408100Y-147257600D03*
X169868100Y-147257600D03*
X167328100Y-147257600D03*
X164788100Y-147257600D03*
X162248100Y-147257600D03*
X159708100Y-147257600D03*
X157168100Y-147257600D03*
X154628100Y-147257600D03*
X152088100Y-147257600D03*
X149548100Y-147257600D03*
X147008100Y-147257600D03*
X144468100Y-147257600D03*
X141928100Y-147257600D03*
X139388100Y-147257600D03*
X136848100Y-147257600D03*
X134308100Y-147257600D03*
X131768100Y-147257600D03*
X129228100Y-147257600D03*
X126688100Y-147257600D03*
X124148100Y-147257600D03*
X121608100Y-147257600D03*
D12*
X207988100Y-101537600D03*
X210488100Y-101537600D03*
D13*
X175837100Y-91758600D03*
D14*
X173297100Y-91758600D03*
D12*
X124783100Y-105347600D03*
D11*
X134943100Y-105347600D03*
D10*
X176843100Y-128842600D03*
D11*
X179383100Y-128842600D03*
X181923100Y-128842600D03*
X184463100Y-128842600D03*
X187003100Y-128842600D03*
X189543100Y-128842600D03*
X192083100Y-128842600D03*
X194623100Y-128842600D03*
X197163100Y-128842600D03*
D13*
X197173100Y-140272600D03*
D14*
X197173100Y-137732600D03*
D12*
X124803100Y-136462600D03*
X127303100Y-136462600D03*
D10*
X120973100Y-140272600D03*
D11*
X123513100Y-140272600D03*
X126053100Y-140272600D03*
X128593100Y-140272600D03*
X131133100Y-140272600D03*
X133673100Y-140272600D03*
X136213100Y-140272600D03*
X138753100Y-140272600D03*
X141293100Y-140272600D03*
X143833100Y-140272600D03*
X146373100Y-140272600D03*
X148913100Y-140272600D03*
X148913100Y-132652600D03*
X146373100Y-132652600D03*
X143833100Y-132652600D03*
X141293100Y-132652600D03*
X138753100Y-132652600D03*
X136213100Y-132652600D03*
X133673100Y-132652600D03*
X131133100Y-132652600D03*
X128593100Y-132652600D03*
X126053100Y-132652600D03*
X123513100Y-132652600D03*
X120973100Y-132652600D03*
D10*
X179388100Y-92647600D03*
D11*
X181928100Y-92647600D03*
X184468100Y-92647600D03*
X187008100Y-92647600D03*
X189548100Y-92647600D03*
X192088100Y-92647600D03*
X194628100Y-92647600D03*
X194628100Y-85027600D03*
X192088100Y-85027600D03*
X189548100Y-85027600D03*
X187008100Y-85027600D03*
X184468100Y-85027600D03*
X181928100Y-85027600D03*
X179388100Y-85027600D03*
D12*
X129883100Y-85027600D03*
X132383100Y-85027600D03*
X124783100Y-101537600D03*
D11*
X134943100Y-101537600D03*
D12*
X181953100Y-88837600D03*
X184453100Y-88837600D03*
D13*
X199713100Y-125037600D03*
D14*
X199713100Y-122497600D03*
D12*
X209893100Y-78042600D03*
X212393100Y-78042600D03*
X134943100Y-63437600D03*
X137443100Y-63437600D03*
D10*
X179393100Y-81852600D03*
D11*
X181933100Y-81852600D03*
X184473100Y-81852600D03*
X187013100Y-81852600D03*
X189553100Y-81852600D03*
X192093100Y-81852600D03*
X194633100Y-81852600D03*
X194633100Y-74232600D03*
X192093100Y-74232600D03*
X189553100Y-74232600D03*
X187013100Y-74232600D03*
X184473100Y-74232600D03*
X181933100Y-74232600D03*
X179393100Y-74232600D03*
D13*
X199713100Y-119957600D03*
D14*
X199713100Y-117417600D03*
D10*
X176853100Y-71057600D03*
D11*
X179393100Y-71057600D03*
X181933100Y-71057600D03*
X184473100Y-71057600D03*
X187013100Y-71057600D03*
X189553100Y-71057600D03*
X192093100Y-71057600D03*
X194633100Y-71057600D03*
X197173100Y-71057600D03*
X199713100Y-71057600D03*
X202253100Y-71057600D03*
X204793100Y-71057600D03*
X207333100Y-71057600D03*
X209873100Y-71057600D03*
X212413100Y-71057600D03*
X214953100Y-71057600D03*
X214953100Y-55817600D03*
X212413100Y-55817600D03*
X209873100Y-55817600D03*
X207333100Y-55817600D03*
X204793100Y-55817600D03*
X202253100Y-55817600D03*
X199713100Y-55817600D03*
X197173100Y-55817600D03*
X194633100Y-55817600D03*
X192093100Y-55817600D03*
X189553100Y-55817600D03*
X187013100Y-55817600D03*
X184473100Y-55817600D03*
X181933100Y-55817600D03*
X179393100Y-55817600D03*
X176853100Y-55817600D03*
D12*
X202273100Y-88837600D03*
X204773100Y-88837600D03*
X181953100Y-63437600D03*
X184453100Y-63437600D03*
D13*
X175842100Y-77661600D03*
D14*
X173302100Y-77661600D03*
D12*
X179413100Y-121222600D03*
X181913100Y-121222600D03*
X179413100Y-136462600D03*
X181913100Y-136462600D03*
D10*
X202755400Y-132672600D03*
D12*
X202755400Y-135172600D03*
X204755400Y-135172600D03*
X204755400Y-132672600D03*
D18*
X207615400Y-127922600D03*
X207615400Y-139922600D03*
D10*
X173043100Y-97092600D03*
D11*
X173043100Y-99632600D03*
X173043100Y-102172600D03*
X173043100Y-104712600D03*
X173043100Y-107252600D03*
X173043100Y-109792600D03*
D10*
X159083100Y-88827600D03*
D11*
X166703100Y-88827600D03*
X166703100Y-81207600D03*
X159083100Y-81207600D03*
D10*
X153993100Y-140272600D03*
D11*
X156533100Y-140272600D03*
X159073100Y-140272600D03*
X161613100Y-140272600D03*
X164153100Y-140272600D03*
X166693100Y-140272600D03*
X169233100Y-140272600D03*
X171773100Y-140272600D03*
X171773100Y-132652600D03*
X169233100Y-132652600D03*
X166693100Y-132652600D03*
X164153100Y-132652600D03*
X161613100Y-132652600D03*
X159073100Y-132652600D03*
X156533100Y-132652600D03*
X153993100Y-132652600D03*
D12*
X157823100Y-136462600D03*
X160323100Y-136462600D03*
D10*
X205026100Y-119642600D03*
D12*
X205026100Y-117142600D03*
X205026100Y-115142600D03*
X205026100Y-112642600D03*
D19*
X207736100Y-122712600D03*
X207736100Y-109572600D03*
D13*
X175842100Y-82360600D03*
D14*
X173302100Y-82360600D03*
D12*
X209893100Y-88837600D03*
X212393100Y-88837600D03*
D10*
X205438100Y-105337600D03*
D11*
X213058100Y-105337600D03*
X213058100Y-97717600D03*
X205438100Y-97717600D03*
D10*
X120973100Y-92647600D03*
D11*
X123513100Y-92647600D03*
X126053100Y-92647600D03*
X128593100Y-92647600D03*
X131133100Y-92647600D03*
X133673100Y-92647600D03*
X136213100Y-92647600D03*
X138753100Y-92647600D03*
X141293100Y-92647600D03*
X143833100Y-92647600D03*
X146373100Y-92647600D03*
X148913100Y-92647600D03*
X151453100Y-92647600D03*
X153993100Y-92647600D03*
X153993100Y-77407600D03*
X151453100Y-77407600D03*
X148913100Y-77407600D03*
X146373100Y-77407600D03*
X143833100Y-77407600D03*
X141293100Y-77407600D03*
X138753100Y-77407600D03*
X136213100Y-77407600D03*
X133673100Y-77407600D03*
X131133100Y-77407600D03*
X128593100Y-77407600D03*
X126053100Y-77407600D03*
X123513100Y-77407600D03*
X120973100Y-77407600D03*
D12*
X141313100Y-103442600D03*
X143813100Y-103442600D03*
D10*
X120973100Y-111062600D03*
D11*
X123513100Y-111062600D03*
X126053100Y-111062600D03*
X128593100Y-111062600D03*
X131133100Y-111062600D03*
X133673100Y-111062600D03*
X136213100Y-111062600D03*
X138753100Y-111062600D03*
X141293100Y-111062600D03*
X143833100Y-111062600D03*
X146373100Y-111062600D03*
X148913100Y-111062600D03*
X151453100Y-111062600D03*
X153993100Y-111062600D03*
X156533100Y-111062600D03*
X159073100Y-111062600D03*
X161613100Y-111062600D03*
X164153100Y-111062600D03*
X166693100Y-111062600D03*
X169233100Y-111062600D03*
X169233100Y-95822600D03*
X166693100Y-95822600D03*
X164153100Y-95822600D03*
X161613100Y-95822600D03*
X159073100Y-95822600D03*
X156533100Y-95822600D03*
X153993100Y-95822600D03*
X151453100Y-95822600D03*
X148913100Y-95822600D03*
X146373100Y-95822600D03*
X143833100Y-95822600D03*
X141293100Y-95822600D03*
X138753100Y-95822600D03*
X136213100Y-95822600D03*
X133673100Y-95822600D03*
X131133100Y-95822600D03*
X128593100Y-95822600D03*
X126053100Y-95822600D03*
X123513100Y-95822600D03*
X120973100Y-95822600D03*
D10*
X176853100Y-103442600D03*
D11*
X179393100Y-103442600D03*
X181933100Y-103442600D03*
X184473100Y-103442600D03*
X187013100Y-103442600D03*
X189553100Y-103442600D03*
X192093100Y-103442600D03*
X194633100Y-103442600D03*
X197173100Y-103442600D03*
X199713100Y-103442600D03*
X199713100Y-95822600D03*
X197173100Y-95822600D03*
X194633100Y-95822600D03*
X192093100Y-95822600D03*
X189553100Y-95822600D03*
X187013100Y-95822600D03*
X184473100Y-95822600D03*
X181933100Y-95822600D03*
X179393100Y-95822600D03*
X176853100Y-95822600D03*
D12*
X146393100Y-121857600D03*
X148893100Y-121857600D03*
X179413100Y-99632600D03*
X181913100Y-99632600D03*
D10*
X176853100Y-140272600D03*
D11*
X179393100Y-140272600D03*
X181933100Y-140272600D03*
X184473100Y-140272600D03*
X187013100Y-140272600D03*
X189553100Y-140272600D03*
X192093100Y-140272600D03*
X192093100Y-132652600D03*
X189553100Y-132652600D03*
X187013100Y-132652600D03*
X184473100Y-132652600D03*
X181933100Y-132652600D03*
X179393100Y-132652600D03*
X176853100Y-132652600D03*
M02*
