M48
; DRILL file {KiCad 7.0.7} date Sat Sep 23 19:41:31 2023
; FORMAT={-:-/ absolute / metric / decimal}
; #@! TF.CreationDate,2023-09-23T19:41:31-04:00
; #@! TF.GenerationSoftware,Kicad,Pcbnew,7.0.7
; #@! TF.FileFunction,Plated,1,4,PTH
FMAT,2
METRIC
; #@! TA.AperFunction,Plated,PTH,ViaDrill
T1C0.400
; #@! TA.AperFunction,Plated,PTH,ViaDrill
T2C0.600
; #@! TA.AperFunction,Plated,PTH,ComponentDrill
T3C0.800
; #@! TA.AperFunction,Plated,PTH,ComponentDrill
T4C0.900
; #@! TA.AperFunction,Plated,PTH,ComponentDrill
T5C0.920
; #@! TA.AperFunction,Plated,PTH,ComponentDrill
T6C0.950
; #@! TA.AperFunction,Plated,PTH,ComponentDrill
T7C1.000
; #@! TA.AperFunction,Plated,PTH,ComponentDrill
T8C2.300
%
G90
G05
T1
X119.74Y-143.194
X119.933Y-134.298
X120.069Y-74.344
X120.846Y-87.822
X120.846Y-101.157
X121.035Y-74.282
X123.513Y-87.822
X123.571Y-98.044
X123.767Y-108.065
X123.767Y-109.568
X123.767Y-127.396
X124.333Y-134.366
X124.46Y-123.19
X124.647Y-131.256
X125.488Y-127.77
X125.926Y-82.996
X125.951Y-117.66
X125.975Y-134.867
X126.238Y-99.441
X126.238Y-123.19
X127.113Y-109.95
X127.275Y-117.158
X127.307Y-115.514
X127.875Y-90.202
X128.052Y-125.451
X128.129Y-127.722
X128.212Y-99.252
X128.345Y-118.656
X128.403Y-123.646
X128.524Y-81.534
X128.914Y-120.903
X129.725Y-110.043
X129.803Y-118.13
X130.244Y-136.209
X130.248Y-139.277
X130.302Y-86.868
X130.921Y-127.748
X131.16Y-106.398
X131.572Y-100.838
X132.445Y-112.908
X132.583Y-117.968
X132.597Y-141.207
X132.703Y-126.178
X133.096Y-122.428
X133.223Y-134.62
X133.396Y-118.78
X133.604Y-90.805
X134.154Y-128.003
X134.747Y-99.568
X134.81Y-130.875
X134.846Y-126.019
X134.943Y-90.87
X134.992Y-133.879
X135.302Y-113.209
X135.636Y-119.507
X135.739Y-137.25
X135.926Y-120.812
X136.221Y-124.376
X136.271Y-80.899
X136.271Y-98.044
X136.379Y-134.036
X136.398Y-90.805
X136.523Y-75.519
X136.561Y-123.149
X137.214Y-112.511
X137.567Y-137.736
X137.991Y-90.87
X138.049Y-116.459
X138.176Y-69.215
X138.204Y-120.931
X138.246Y-124.15
X138.557Y-88.519
X138.557Y-125.857
X138.914Y-99.567
X139.319Y-90.805
X139.92Y-130.727
X140.258Y-59.091
X140.716Y-69.215
X140.786Y-115.605
X140.843Y-127.889
X140.97Y-117.221
X141.219Y-118.41
X141.351Y-101.219
X141.605Y-88.519
X141.748Y-123.761
X142.227Y-108.326
X142.542Y-125.933
X143.256Y-69.215
X143.384Y-121.647
X143.51Y-89.789
X143.539Y-122.574
X143.637Y-118.11
X143.764Y-58.039
X143.919Y-120.165
X143.985Y-137.585
X144.214Y-134.721
X144.701Y-126.689
X144.944Y-94.841
X145.095Y-141.535
X145.113Y-124.453
X145.213Y-130.631
X145.31Y-108.875
X145.6Y-90.653
X145.608Y-137.91
X145.669Y-69.215
X145.932Y-135.499
X146.119Y-80.202
X146.246Y-100.776
X146.917Y-107.911
X147.145Y-123.051
X147.262Y-118.556
X147.401Y-94.033
X147.516Y-136.606
X147.574Y-130.661
X148.27Y-127.462
X148.418Y-105.912
X148.43Y-135.955
X148.844Y-90.805
X148.978Y-134.721
X149.04Y-98.744
X149.087Y-109.331
X150.183Y-68.518
X150.183Y-112.841
X150.909Y-134.762
X151.141Y-132.018
X151.263Y-80.392
X151.302Y-127.001
X151.384Y-90.805
X151.58Y-106.237
X151.707Y-57.85
X151.836Y-132.792
X151.863Y-120.362
X152.228Y-81.118
X152.286Y-79.369
X152.596Y-94.245
X152.953Y-82.007
X153.094Y-137.022
X153.416Y-126.619
X153.947Y-141.751
X153.993Y-108.269
X155.009Y-122.366
X155.103Y-100.988
X155.74Y-128.024
X155.786Y-104.546
X155.829Y-107.823
X156.063Y-137.168
X156.196Y-141.97
X156.406Y-72.963
X156.718Y-80.772
X157.519Y-130.415
X157.734Y-59.944
X157.734Y-112.903
X158.184Y-141.924
X158.565Y-75.63
X158.565Y-104.713
X158.586Y-118.696
X159.144Y-92.862
X159.2Y-126.557
X160.17Y-130.401
X161.105Y-123.382
X161.359Y-142.813
X161.392Y-120.677
X161.671Y-108.458
X162.32Y-121.029
X162.941Y-126.746
X162.973Y-98.29
X163.056Y-142.326
X163.259Y-89.717
X163.947Y-93.352
X164.022Y-137.282
X164.534Y-107.253
X164.555Y-142.4
X164.749Y-112.357
X164.981Y-137.731
X165.021Y-89.89
X165.423Y-76.017
X165.55Y-109.311
X165.613Y-118.961
X165.735Y-103.505
X166.116Y-127.381
X166.439Y-142.362
X166.853Y-135.241
X167.328Y-127.446
X167.97Y-96.525
X168.129Y-99.692
X168.184Y-112.714
X168.656Y-67.656
X168.684Y-83.296
X169.052Y-97.65
X169.291Y-121.793
X169.467Y-88.881
X169.537Y-123.411
X169.886Y-135.861
X169.995Y-109.412
X170.128Y-92.991
X170.355Y-125.287
X170.392Y-99.822
X170.659Y-114.123
X170.817Y-83.639
X171.011Y-56.326
X171.196Y-65.913
X171.208Y-117.39
X171.392Y-137.092
X171.626Y-115.83
X172.339Y-129.794
X173.228Y-131.445
X173.424Y-52.516
X173.484Y-142.804
X173.878Y-134.953
X175.774Y-136.101
X175.778Y-121.415
X176.022Y-99.949
X176.449Y-101.907
X176.53Y-119.634
X177.397Y-122.787
X177.728Y-96.835
X177.919Y-101.03
X178.123Y-126.684
X178.377Y-53.532
X179.629Y-89.249
X180.221Y-101.967
X180.594Y-142.24
X180.663Y-134.05
X180.663Y-66.77
X180.975Y-112.395
X181.175Y-101.327
X181.199Y-127.602
X181.933Y-66.59
X182.822Y-90.997
X185.148Y-139.021
X186.266Y-135.636
X187.325Y-135.636
X187.394Y-89.727
X188.914Y-142.098
X189.299Y-89.092
X189.553Y-67.828
X189.611Y-109.474
X190.414Y-131.564
X190.569Y-136.334
X191.074Y-72.83
X191.552Y-135.505
X191.844Y-137.593
X191.856Y-58.584
X192.024Y-79.375
X192.093Y-68.4
X192.151Y-90.043
X192.405Y-66.421
X192.405Y-108.204
X192.478Y-101.327
X193.179Y-60.28
X194.252Y-67.502
X194.691Y-108.204
X195.318Y-123.382
X196.029Y-104.749
X197.03Y-101.737
X197.111Y-68.713
X197.612Y-66.802
X198.501Y-57.023
X199.136Y-131.572
X199.136Y-137.287
X199.517Y-110.109
X199.713Y-58.633
X199.771Y-66.675
X202.126Y-137.479
X205.359Y-103.124
X208.768Y-93.691
X210.826Y-90.923
T2
X121.77Y-142.66
X126.688Y-142.821
X174.948Y-142.821
X192.706Y-142.799
X197.808Y-142.821
T3
X120.973Y-77.408
X120.973Y-92.648
X120.973Y-95.823
X120.973Y-111.063
X120.973Y-114.238
X120.973Y-129.478
X120.973Y-132.653
X120.973Y-140.273
X123.513Y-77.408
X123.513Y-92.648
X123.513Y-95.823
X123.513Y-111.063
X123.513Y-114.238
X123.513Y-129.478
X123.513Y-132.653
X123.513Y-140.273
X124.783Y-101.538
X124.783Y-105.348
X124.803Y-136.463
X126.053Y-77.408
X126.053Y-92.648
X126.053Y-95.823
X126.053Y-111.063
X126.053Y-114.238
X126.053Y-129.478
X126.053Y-132.653
X126.053Y-140.273
X127.303Y-136.463
X128.593Y-77.408
X128.593Y-92.648
X128.593Y-95.823
X128.593Y-111.063
X128.593Y-114.238
X128.593Y-129.478
X128.593Y-132.653
X128.593Y-140.273
X129.883Y-85.028
X131.133Y-77.408
X131.133Y-92.648
X131.133Y-95.823
X131.133Y-111.063
X131.133Y-114.238
X131.133Y-129.478
X131.133Y-132.653
X131.133Y-140.273
X132.383Y-85.028
X133.673Y-77.408
X133.673Y-92.648
X133.673Y-95.823
X133.673Y-111.063
X133.673Y-114.238
X133.673Y-129.478
X133.673Y-132.653
X133.673Y-140.273
X134.943Y-63.438
X134.943Y-101.538
X134.943Y-105.348
X136.213Y-77.408
X136.213Y-92.648
X136.213Y-95.823
X136.213Y-111.063
X136.213Y-114.238
X136.213Y-129.478
X136.213Y-132.653
X136.213Y-140.273
X137.443Y-63.438
X138.753Y-77.408
X138.753Y-92.648
X138.753Y-95.823
X138.753Y-111.063
X138.753Y-114.238
X138.753Y-129.478
X138.753Y-132.653
X138.753Y-140.273
X141.293Y-77.408
X141.293Y-92.648
X141.293Y-95.823
X141.293Y-111.063
X141.293Y-114.238
X141.293Y-129.478
X141.293Y-132.653
X141.293Y-140.273
X141.313Y-103.443
X143.813Y-103.443
X143.833Y-77.408
X143.833Y-92.648
X143.833Y-95.823
X143.833Y-111.063
X143.833Y-114.238
X143.833Y-129.478
X143.833Y-132.653
X143.833Y-140.273
X146.373Y-77.408
X146.373Y-92.648
X146.373Y-95.823
X146.373Y-111.063
X146.373Y-114.238
X146.373Y-129.478
X146.373Y-132.653
X146.373Y-140.273
X146.393Y-121.858
X148.893Y-121.858
X148.913Y-77.408
X148.913Y-92.648
X148.913Y-95.823
X148.913Y-111.063
X148.913Y-114.238
X148.913Y-129.478
X148.913Y-132.653
X148.913Y-140.273
X151.453Y-77.408
X151.453Y-92.648
X151.453Y-95.823
X151.453Y-111.063
X151.453Y-114.238
X151.453Y-129.478
X153.993Y-77.408
X153.993Y-92.648
X153.993Y-95.823
X153.993Y-111.063
X153.993Y-114.238
X153.993Y-129.478
X153.993Y-132.653
X153.993Y-140.273
X156.533Y-95.823
X156.533Y-111.063
X156.533Y-114.238
X156.533Y-129.478
X156.533Y-132.653
X156.533Y-140.273
X157.803Y-77.408
X157.803Y-92.648
X157.823Y-136.463
X159.073Y-95.823
X159.073Y-111.063
X159.073Y-114.238
X159.073Y-129.478
X159.073Y-132.653
X159.073Y-140.273
X159.083Y-81.208
X159.083Y-88.828
X160.323Y-136.463
X161.613Y-95.823
X161.613Y-111.063
X161.613Y-114.238
X161.613Y-129.478
X161.613Y-132.653
X161.613Y-140.273
X161.633Y-85.028
X164.133Y-85.028
X164.153Y-95.823
X164.153Y-111.063
X164.153Y-114.238
X164.153Y-129.478
X164.153Y-132.653
X164.153Y-140.273
X166.693Y-95.823
X166.693Y-111.063
X166.693Y-114.238
X166.693Y-129.478
X166.693Y-132.653
X166.693Y-140.273
X166.703Y-81.208
X166.703Y-88.828
X167.963Y-77.408
X167.963Y-92.648
X169.233Y-95.823
X169.233Y-111.063
X169.233Y-114.238
X169.233Y-129.478
X169.233Y-132.653
X169.233Y-140.273
X171.773Y-132.653
X171.773Y-140.273
X173.043Y-97.093
X173.043Y-99.633
X173.043Y-102.173
X173.043Y-104.713
X173.043Y-107.253
X173.043Y-109.793
X173.043Y-115.508
X173.043Y-118.048
X173.043Y-120.588
X173.043Y-123.128
X173.043Y-125.668
X173.043Y-128.208
X176.843Y-117.413
X176.843Y-125.033
X176.843Y-128.843
X176.853Y-55.818
X176.853Y-71.058
X176.853Y-95.823
X176.853Y-103.443
X176.853Y-132.653
X176.853Y-140.273
X176.858Y-106.608
X176.858Y-114.228
X179.383Y-117.413
X179.383Y-125.033
X179.383Y-128.843
X179.388Y-85.028
X179.388Y-92.648
X179.393Y-55.818
X179.393Y-71.058
X179.393Y-74.233
X179.393Y-81.853
X179.393Y-95.823
X179.393Y-103.443
X179.393Y-132.653
X179.393Y-140.273
X179.398Y-106.608
X179.398Y-114.228
X179.413Y-99.633
X179.413Y-110.428
X179.413Y-121.223
X179.413Y-136.463
X181.913Y-99.633
X181.913Y-110.428
X181.913Y-121.223
X181.913Y-136.463
X181.923Y-117.413
X181.923Y-125.033
X181.923Y-128.843
X181.928Y-85.028
X181.928Y-92.648
X181.933Y-55.818
X181.933Y-71.058
X181.933Y-74.233
X181.933Y-81.853
X181.933Y-95.823
X181.933Y-103.443
X181.933Y-132.653
X181.933Y-140.273
X181.938Y-106.608
X181.938Y-114.228
X181.953Y-63.438
X181.953Y-78.043
X181.953Y-88.838
X184.453Y-63.438
X184.453Y-78.043
X184.453Y-88.838
X184.463Y-117.413
X184.463Y-125.033
X184.463Y-128.843
X184.468Y-85.028
X184.468Y-92.648
X184.473Y-55.818
X184.473Y-71.058
X184.473Y-74.233
X184.473Y-81.853
X184.473Y-95.823
X184.473Y-103.443
X184.473Y-132.653
X184.473Y-140.273
X184.478Y-106.608
X184.478Y-114.228
X187.003Y-117.413
X187.003Y-125.033
X187.003Y-128.843
X187.008Y-85.028
X187.008Y-92.648
X187.013Y-55.818
X187.013Y-71.058
X187.013Y-74.233
X187.013Y-81.853
X187.013Y-95.823
X187.013Y-103.443
X187.013Y-132.653
X187.013Y-140.273
X187.018Y-106.608
X187.018Y-114.228
X189.543Y-117.413
X189.543Y-125.033
X189.543Y-128.843
X189.548Y-85.028
X189.548Y-92.648
X189.553Y-55.818
X189.553Y-71.058
X189.553Y-74.233
X189.553Y-81.853
X189.553Y-95.823
X189.553Y-103.443
X189.553Y-132.653
X189.553Y-140.273
X189.558Y-106.608
X189.558Y-114.228
X192.083Y-117.413
X192.083Y-125.033
X192.083Y-128.843
X192.088Y-85.028
X192.088Y-92.648
X192.093Y-55.818
X192.093Y-71.058
X192.093Y-74.233
X192.093Y-81.853
X192.093Y-95.823
X192.093Y-103.443
X192.093Y-132.653
X192.093Y-140.273
X192.098Y-106.608
X192.098Y-114.228
X194.623Y-117.413
X194.623Y-125.033
X194.623Y-128.843
X194.628Y-85.028
X194.628Y-92.648
X194.633Y-55.818
X194.633Y-71.058
X194.633Y-74.233
X194.633Y-81.853
X194.633Y-95.823
X194.633Y-103.443
X194.638Y-106.608
X194.638Y-114.228
X197.163Y-128.843
X197.173Y-55.818
X197.173Y-71.058
X197.173Y-95.823
X197.173Y-103.443
X197.178Y-106.608
X197.178Y-114.228
X199.713Y-55.818
X199.713Y-71.058
X199.713Y-74.233
X199.713Y-81.853
X199.713Y-85.028
X199.713Y-92.648
X199.713Y-95.823
X199.713Y-103.443
X199.718Y-106.608
X199.718Y-114.228
X202.253Y-55.818
X202.253Y-71.058
X202.253Y-74.233
X202.253Y-81.853
X202.253Y-85.028
X202.253Y-92.648
X202.273Y-78.043
X202.273Y-88.838
X204.773Y-78.043
X204.773Y-88.838
X204.793Y-55.818
X204.793Y-71.058
X204.793Y-74.233
X204.793Y-81.853
X204.793Y-85.028
X204.793Y-92.648
X205.438Y-97.718
X205.438Y-105.338
X207.333Y-55.818
X207.333Y-71.058
X207.333Y-74.233
X207.333Y-81.853
X207.333Y-85.028
X207.333Y-92.648
X207.988Y-101.538
X209.873Y-55.818
X209.873Y-71.058
X209.873Y-74.233
X209.873Y-81.853
X209.873Y-85.028
X209.873Y-92.648
X209.893Y-78.043
X209.893Y-88.838
X210.488Y-101.538
X212.393Y-78.043
X212.393Y-88.838
X212.413Y-55.818
X212.413Y-71.058
X212.413Y-74.233
X212.413Y-81.853
X212.413Y-85.028
X212.413Y-92.648
X213.058Y-97.718
X213.058Y-105.338
X214.953Y-55.818
X214.953Y-71.058
X214.953Y-74.233
X214.953Y-81.853
X214.953Y-85.028
X214.953Y-92.648
T4
X173.297Y-91.759
X173.302Y-77.662
X173.302Y-82.361
X173.302Y-87.06
X175.837Y-91.759
X175.842Y-77.662
X175.842Y-82.361
X175.842Y-87.06
X197.173Y-132.673
X197.173Y-135.213
X197.173Y-137.733
X197.173Y-140.273
X199.713Y-117.418
X199.713Y-119.958
X199.713Y-122.498
X199.713Y-125.038
T5
X205.026Y-112.643
X205.026Y-115.143
X205.026Y-117.143
X205.026Y-119.643
T6
X202.755Y-132.673
X202.755Y-135.173
X204.755Y-132.673
X204.755Y-135.173
T7
X129.863Y-55.818
X129.863Y-71.058
X132.403Y-55.818
X132.403Y-71.058
X134.943Y-55.818
X134.943Y-71.058
X137.483Y-55.818
X137.483Y-71.058
X140.023Y-55.818
X140.023Y-71.058
X142.563Y-55.818
X142.563Y-71.058
X145.103Y-55.818
X145.103Y-71.058
X147.643Y-55.818
X147.643Y-71.058
X150.183Y-55.818
X150.183Y-71.058
X152.723Y-55.818
X152.723Y-71.058
X155.263Y-55.818
X155.263Y-71.058
X157.803Y-55.818
X157.803Y-71.058
X160.343Y-55.818
X160.343Y-71.058
X162.883Y-55.818
X162.883Y-71.058
X165.423Y-55.818
X165.423Y-71.058
X167.963Y-55.818
X167.963Y-71.058
T8
X207.615Y-127.923
X207.615Y-139.923
X207.736Y-109.573
X207.736Y-122.713
T0
M30
