%TF.GenerationSoftware,KiCad,Pcbnew,7.0.7*%
%TF.CreationDate,2023-09-15T21:49:44-04:00*%
%TF.ProjectId,2 - CPU and core components (Rev 2.2),32202d20-4350-4552-9061-6e6420636f72,rev?*%
%TF.SameCoordinates,Original*%
%TF.FileFunction,Drillmap*%
%TF.FilePolarity,Positive*%
%FSLAX45Y45*%
G04 Gerber Fmt 4.5, Leading zero omitted, Abs format (unit mm)*
G04 Created by KiCad (PCBNEW 7.0.7) date 2023-09-15 21:49:44*
%MOMM*%
%LPD*%
G01*
G04 APERTURE LIST*
%ADD10C,0.100000*%
%ADD11C,0.200000*%
G04 APERTURE END LIST*
D10*
X15818405Y-13214455D02*
X15285005Y-13214455D01*
X23921005Y-13214455D02*
X23921005Y-13976455D01*
X10484410Y-13976455D02*
X10484410Y-13214460D01*
X15285005Y-13214455D02*
X15285005Y-13976455D01*
X5626100Y-3308455D02*
X25711705Y-3308455D01*
X10484410Y-13214460D02*
X5626100Y-13214460D01*
X15285005Y-13976455D02*
X10484410Y-13976455D01*
X25711705Y-3308455D02*
X25711705Y-13214455D01*
X23921005Y-13976455D02*
X15818405Y-13976455D01*
X25363705Y-12706455D02*
G75*
G03*
X25363705Y-12706455I-160000J0D01*
G01*
X5626100Y-13214460D02*
X5626100Y-3308455D01*
X25363705Y-3816455D02*
G75*
G03*
X25363705Y-3816455I-160000J0D01*
G01*
X25711705Y-13214455D02*
X23921005Y-13214455D01*
X15818405Y-13976455D02*
X15818405Y-13214455D01*
D11*
X5881877Y-14292939D02*
X5881877Y-14092939D01*
X5881877Y-14092939D02*
X5929496Y-14092939D01*
X5929496Y-14092939D02*
X5958067Y-14102463D01*
X5958067Y-14102463D02*
X5977115Y-14121510D01*
X5977115Y-14121510D02*
X5986639Y-14140558D01*
X5986639Y-14140558D02*
X5996162Y-14178653D01*
X5996162Y-14178653D02*
X5996162Y-14207225D01*
X5996162Y-14207225D02*
X5986639Y-14245320D01*
X5986639Y-14245320D02*
X5977115Y-14264368D01*
X5977115Y-14264368D02*
X5958067Y-14283415D01*
X5958067Y-14283415D02*
X5929496Y-14292939D01*
X5929496Y-14292939D02*
X5881877Y-14292939D01*
X6081877Y-14292939D02*
X6081877Y-14159606D01*
X6081877Y-14197701D02*
X6091401Y-14178653D01*
X6091401Y-14178653D02*
X6100924Y-14169129D01*
X6100924Y-14169129D02*
X6119972Y-14159606D01*
X6119972Y-14159606D02*
X6139020Y-14159606D01*
X6205686Y-14292939D02*
X6205686Y-14159606D01*
X6205686Y-14092939D02*
X6196162Y-14102463D01*
X6196162Y-14102463D02*
X6205686Y-14111987D01*
X6205686Y-14111987D02*
X6215210Y-14102463D01*
X6215210Y-14102463D02*
X6205686Y-14092939D01*
X6205686Y-14092939D02*
X6205686Y-14111987D01*
X6329496Y-14292939D02*
X6310448Y-14283415D01*
X6310448Y-14283415D02*
X6300924Y-14264368D01*
X6300924Y-14264368D02*
X6300924Y-14092939D01*
X6434258Y-14292939D02*
X6415210Y-14283415D01*
X6415210Y-14283415D02*
X6405686Y-14264368D01*
X6405686Y-14264368D02*
X6405686Y-14092939D01*
X6662829Y-14292939D02*
X6662829Y-14092939D01*
X6662829Y-14092939D02*
X6729496Y-14235796D01*
X6729496Y-14235796D02*
X6796162Y-14092939D01*
X6796162Y-14092939D02*
X6796162Y-14292939D01*
X6977115Y-14292939D02*
X6977115Y-14188177D01*
X6977115Y-14188177D02*
X6967591Y-14169129D01*
X6967591Y-14169129D02*
X6948543Y-14159606D01*
X6948543Y-14159606D02*
X6910448Y-14159606D01*
X6910448Y-14159606D02*
X6891401Y-14169129D01*
X6977115Y-14283415D02*
X6958067Y-14292939D01*
X6958067Y-14292939D02*
X6910448Y-14292939D01*
X6910448Y-14292939D02*
X6891401Y-14283415D01*
X6891401Y-14283415D02*
X6881877Y-14264368D01*
X6881877Y-14264368D02*
X6881877Y-14245320D01*
X6881877Y-14245320D02*
X6891401Y-14226272D01*
X6891401Y-14226272D02*
X6910448Y-14216749D01*
X6910448Y-14216749D02*
X6958067Y-14216749D01*
X6958067Y-14216749D02*
X6977115Y-14207225D01*
X7072353Y-14159606D02*
X7072353Y-14359606D01*
X7072353Y-14169129D02*
X7091401Y-14159606D01*
X7091401Y-14159606D02*
X7129496Y-14159606D01*
X7129496Y-14159606D02*
X7148543Y-14169129D01*
X7148543Y-14169129D02*
X7158067Y-14178653D01*
X7158067Y-14178653D02*
X7167591Y-14197701D01*
X7167591Y-14197701D02*
X7167591Y-14254844D01*
X7167591Y-14254844D02*
X7158067Y-14273891D01*
X7158067Y-14273891D02*
X7148543Y-14283415D01*
X7148543Y-14283415D02*
X7129496Y-14292939D01*
X7129496Y-14292939D02*
X7091401Y-14292939D01*
X7091401Y-14292939D02*
X7072353Y-14283415D01*
X7253305Y-14273891D02*
X7262829Y-14283415D01*
X7262829Y-14283415D02*
X7253305Y-14292939D01*
X7253305Y-14292939D02*
X7243782Y-14283415D01*
X7243782Y-14283415D02*
X7253305Y-14273891D01*
X7253305Y-14273891D02*
X7253305Y-14292939D01*
X7253305Y-14169129D02*
X7262829Y-14178653D01*
X7262829Y-14178653D02*
X7253305Y-14188177D01*
X7253305Y-14188177D02*
X7243782Y-14178653D01*
X7243782Y-14178653D02*
X7253305Y-14169129D01*
X7253305Y-14169129D02*
X7253305Y-14188177D01*
M02*
