M48
; DRILL file {KiCad 7.0.7} date Fri Sep 15 21:49:41 2023
; FORMAT={-:-/ absolute / metric / decimal}
; #@! TF.CreationDate,2023-09-15T21:49:41-04:00
; #@! TF.GenerationSoftware,Kicad,Pcbnew,7.0.7
; #@! TF.FileFunction,Plated,1,2,PTH
FMAT,2
METRIC
; #@! TA.AperFunction,Plated,PTH,ViaDrill
T1C0.400
; #@! TA.AperFunction,Plated,PTH,ViaDrill
T2C0.500
; #@! TA.AperFunction,Plated,PTH,ComponentDrill
T3C0.800
; #@! TA.AperFunction,Plated,PTH,ComponentDrill
T4C0.900
; #@! TA.AperFunction,Plated,PTH,ComponentDrill
T5C0.920
; #@! TA.AperFunction,Plated,PTH,ComponentDrill
T6C0.950
; #@! TA.AperFunction,Plated,PTH,ComponentDrill
T7C1.000
; #@! TA.AperFunction,Plated,PTH,ComponentDrill
T8C2.300
%
G90
G05
T1
X58.006Y-129.757
X59.378Y-36.285
X60.262Y-84.81
X60.312Y-42.654
X60.532Y-127.399
X61.359Y-73.928
X62.68Y-50.611
X64.852Y-73.477
X65.525Y-117.311
X65.982Y-71.591
X66.744Y-65.19
X66.795Y-90.895
X67.125Y-111.615
X67.447Y-72.844
X67.506Y-41.416
X67.811Y-59.551
X68.725Y-107.862
X69.03Y-99.125
X69.335Y-114.111
X70.808Y-104.705
X70.935Y-98.55
X71.519Y-90.692
X71.977Y-50.509
X72.913Y-73.961
X73.399Y-58.434
X73.45Y-66.613
X74.11Y-107.71
X74.313Y-119.597
X74.364Y-93.13
X75.634Y-95.416
X76.955Y-72.912
X78.123Y-93.791
X78.479Y-97.55
X78.581Y-43.346
X78.65Y-60.212
X79.241Y-125.236
X80.562Y-98.312
X81.324Y-51.169
X81.527Y-104.56
X81.915Y-93.892
X82.619Y-56.015
X83.61Y-119.495
X84.422Y-98.349
X84.511Y-95.106
X85.032Y-51.169
X86.861Y-93.587
X86.912Y-89.523
X87.559Y-83.471
X87.775Y-71.489
X87.928Y-106.643
X88.69Y-117.514
X89.045Y-51.169
X92.584Y-106.434
X92.804Y-117.819
X93.262Y-39.993
X93.871Y-51.474
X94.328Y-125.49
X95.954Y-100.395
X96.818Y-89.828
X97.884Y-50.865
X98.494Y-72.912
X99.383Y-41.289
X99.662Y-89.625
X101.491Y-43.245
X101.626Y-118.213
X101.948Y-106.033
X102.235Y-66.688
X103.514Y-43.416
X103.549Y-94.426
X104.043Y-113.063
X105.644Y-65.248
X105.809Y-126.201
X106.012Y-120.562
X106.051Y-63.577
X106.52Y-123.407
X106.724Y-104.763
X108.44Y-111.127
X108.606Y-83.471
X109.126Y-57.728
X109.822Y-89.473
X110.178Y-81.561
X110.28Y-95.315
X110.551Y-65.289
X110.838Y-111.52
X110.889Y-105.271
X112.362Y-39.181
X112.769Y-126.201
X113.081Y-54.61
X113.087Y-69.762
X114.459Y-124.176
X114.902Y-107.634
X115.106Y-56.656
X115.206Y-125.643
X116.355Y-125.612
X116.579Y-94.959
X117.235Y-42.11
X117.442Y-125.591
X118.611Y-90.404
X118.959Y-95.264
X119.474Y-127.268
X120.795Y-128.372
X121.253Y-64.313
X121.354Y-71.947
X122.028Y-49.575
X122.176Y-41.274
X122.53Y-116.948
X122.624Y-102.274
X122.878Y-111.367
X123.081Y-95.531
X123.647Y-84.85
X123.647Y-86.199
X123.894Y-99.226
X124.019Y-42.889
X124.097Y-83.471
X124.656Y-67.679
X124.707Y-73.521
X125.165Y-58.049
X125.284Y-41.004
X126.078Y-86.526
X126.166Y-111.336
X126.888Y-39.35
X126.993Y-93.943
X127.247Y-45.023
X127.546Y-79.805
X128.161Y-126.303
X128.388Y-110.707
X128.524Y-78.652
X128.814Y-67.982
X129.046Y-76.19
X129.83Y-118.681
X130.015Y-117.64
X130.117Y-35.778
X130.157Y-88.097
X131.387Y-46.078
X131.437Y-116.451
X133.064Y-108.077
X133.394Y-44.515
X133.443Y-112.338
X133.975Y-96.52
X134.767Y-67.107
X135.867Y-130.009
X136.055Y-103.691
X136.263Y-130.926
X136.333Y-118.688
X136.442Y-74.944
X136.885Y-60.439
X137.458Y-43.956
X137.532Y-51.075
X138.913Y-105.317
X139.185Y-129.043
X139.43Y-44.576
X139.492Y-95.286
X139.682Y-43.155
X139.794Y-97.956
X139.947Y-64.885
X140.201Y-130.671
X140.368Y-103.092
X140.867Y-60.437
X141.171Y-98.87
X141.378Y-124.534
X141.504Y-93.602
X141.945Y-126.162
X142.063Y-123.802
X142.919Y-127.575
X143.12Y-60.437
X143.337Y-88.031
X143.337Y-91.828
X143.512Y-125.956
X143.757Y-71.032
X144.109Y-63.891
X144.163Y-41.721
X145.214Y-129.923
X145.702Y-97.475
X145.751Y-95.267
X145.908Y-64.338
X146.085Y-130.676
X146.242Y-45.319
X146.38Y-119.619
X146.777Y-102.947
X146.962Y-47.101
X147.007Y-108.837
X147.008Y-40.959
X148.177Y-126.252
X148.481Y-119.861
X148.481Y-130.647
X149.813Y-102.91
X149.964Y-109.305
X149.973Y-127.032
X150.107Y-125.236
X150.233Y-45.858
X150.621Y-89.006
X150.817Y-87.784
X151.03Y-118.676
X151.172Y-63.922
X151.23Y-125.751
X151.876Y-94.163
X151.935Y-135.955
X151.995Y-103.734
X152.31Y-109.589
X152.362Y-88.841
X152.698Y-125.591
X153.424Y-83.912
X153.968Y-117.196
X154.171Y-125.845
X154.485Y-107.884
X154.577Y-66.75
X154.973Y-93.062
X155.369Y-125.866
X155.405Y-111.285
X155.566Y-108.659
X156.077Y-127.853
X156.272Y-97.731
X156.478Y-110.123
X156.569Y-100.51
X157.391Y-83.123
X157.703Y-109.384
X157.866Y-117.531
X158.184Y-119.898
X158.641Y-125.905
X159.107Y-41.969
X159.502Y-94.235
X159.543Y-43.155
X159.79Y-111.211
X160.419Y-79.66
X161.283Y-118.505
X161.327Y-39.588
X161.385Y-42.635
X161.541Y-92.919
X161.918Y-119.699
X162.103Y-108.165
X162.54Y-111.852
X162.705Y-83.911
X162.959Y-81.11
X163.671Y-99.937
X163.698Y-131.36
X163.748Y-80.278
X164.463Y-98.317
X164.594Y-112.576
X164.662Y-74.003
X165.296Y-40.959
X166.46Y-113.076
X166.484Y-105.374
X167.022Y-80.981
X167.042Y-66.242
X167.109Y-107.672
X167.201Y-120.313
X167.628Y-97.276
X167.933Y-70.473
X168.183Y-109.149
X168.192Y-99.633
X168.325Y-104.356
X168.507Y-92.191
X168.853Y-118.414
X168.898Y-79.491
X169.217Y-55.272
X169.475Y-106.199
X169.756Y-95.399
X170.082Y-74.639
X170.122Y-112.333
X170.197Y-47.02
X170.563Y-67.474
X170.683Y-121.716
X170.818Y-82.196
X171.29Y-38.266
X171.539Y-46.518
X171.684Y-121.691
X172.065Y-118.683
X172.182Y-51.754
X172.632Y-42.156
X172.717Y-99.653
X173.609Y-99.065
X173.635Y-123.602
X174.197Y-94.219
X174.215Y-106.973
X174.306Y-115.415
X175.028Y-62.351
X175.157Y-76.214
X175.659Y-121.324
X175.862Y-130.119
X176.269Y-52.541
X176.477Y-87.163
X176.849Y-130.599
X179.265Y-103.711
X180.191Y-131.018
X180.984Y-100.74
X181.204Y-55.437
X181.645Y-103.299
X182.49Y-97.099
X182.822Y-42.025
X183.048Y-103.83
X184.034Y-74.039
X185.972Y-131.07
X186.124Y-41.924
X187.01Y-103.775
X188.156Y-111.017
X188.546Y-71.556
X188.711Y-102.713
X188.715Y-41.365
X189.472Y-131.217
X189.702Y-130.245
X189.856Y-111.961
X190.689Y-103.321
X191.473Y-112.428
X192.05Y-70.445
X192.576Y-58.281
X192.895Y-71.322
X193.439Y-128.255
X194.354Y-111.013
X195.469Y-82.558
X195.882Y-74.039
X195.937Y-130.273
X196.259Y-104.773
X197.286Y-88.922
X197.402Y-58.688
X197.706Y-130.941
X197.793Y-81.654
X198.479Y-88.433
X198.882Y-57.989
X199.279Y-128.571
X200.243Y-108.532
X200.92Y-124.613
X201.114Y-88.913
X202.333Y-55.76
X202.564Y-109.991
X202.636Y-117.45
X203.087Y-111.774
X203.22Y-129.325
X203.396Y-106.541
X203.966Y-56.657
X204.08Y-49.524
X204.194Y-131.175
X204.971Y-89.074
X205.054Y-103.326
X205.098Y-107.43
X205.444Y-108.532
X205.987Y-127.069
X206.151Y-114.532
X206.19Y-68.01
X206.343Y-106.338
X206.369Y-130.285
X206.444Y-77.154
X206.529Y-54.513
X206.618Y-53.444
X206.859Y-123.645
X206.895Y-131.52
X207.257Y-87.328
X207.538Y-105.852
X207.64Y-127.217
X207.953Y-124.306
X207.97Y-129.908
X208.095Y-95.315
X208.12Y-49.849
X208.234Y-79.015
X208.274Y-112.802
X208.602Y-53.074
X208.679Y-38.114
X208.773Y-125.123
X209.377Y-122.114
X210.133Y-125.406
X210.319Y-80.002
X210.544Y-81.416
X210.813Y-41.517
X211.568Y-117.522
X211.664Y-84.743
X211.727Y-86.442
X211.778Y-87.593
X211.829Y-127.115
X212.014Y-123.839
X212.159Y-83.681
X212.489Y-44.718
X212.83Y-125.631
X213.206Y-102.681
X213.302Y-110.961
X213.488Y-124.564
X214.318Y-130.417
X215.588Y-111.875
X217.004Y-104.379
X217.307Y-66.468
X217.922Y-118.878
X220.109Y-124.206
X220.287Y-131.142
X221.155Y-66.281
X222.01Y-116.062
X222.71Y-97.644
X222.827Y-61.914
X222.96Y-104.379
X223.243Y-130.367
X223.335Y-73.725
X224.529Y-80.379
X225.93Y-44.087
X226.117Y-120.06
X226.612Y-116.798
X227.577Y-126.924
X229.05Y-86.425
X229.411Y-118.16
X230.733Y-119.936
X231.59Y-94.045
X231.63Y-112.211
X232.151Y-67.016
X232.225Y-102.3
X233.317Y-119.8
X234.028Y-73.064
X234.066Y-36.709
X234.581Y-112.95
X236.06Y-49.696
X237.28Y-109.996
X238.067Y-69.623
X238.143Y-67.425
X238.575Y-71.362
X238.855Y-62.345
X239.172Y-116.612
X240.109Y-97.44
X240.142Y-99.056
X240.429Y-44.261
X240.826Y-106.513
X240.831Y-102.172
X240.954Y-114.828
X241.124Y-57.119
X241.124Y-74.548
X241.848Y-64.784
X242.023Y-54.916
X242.072Y-56.021
X244.036Y-127.268
X246.229Y-111.938
X247.135Y-51.119
X247.186Y-41.213
X247.537Y-56.042
X248.057Y-98.642
X248.202Y-36.031
X250.132Y-94.095
X252.367Y-66.917
X252.469Y-76.112
X252.671Y-99.674
X253.004Y-103.966
X253.84Y-121.019
X254.298Y-41.873
X254.298Y-109.132
T2
X139.954Y-71.501
X141.046Y-68.885
X143.907Y-122.939
X144.907Y-92.202
X145.161Y-47.498
X174.801Y-60.965
X215.096Y-129.593
T3
X63.583Y-44.42
X63.583Y-46.92
X67.31Y-38.07
X67.31Y-53.31
X68.028Y-68.55
X68.028Y-71.05
X68.028Y-92.69
X68.028Y-95.19
X68.028Y-116.84
X68.028Y-119.34
X69.85Y-38.07
X69.85Y-53.31
X71.75Y-110.49
X71.755Y-62.2
X71.755Y-77.44
X71.755Y-86.32
X71.755Y-101.56
X71.755Y-114.27
X71.755Y-121.89
X72.39Y-38.07
X72.39Y-53.31
X74.29Y-110.49
X74.295Y-62.2
X74.295Y-77.44
X74.295Y-86.32
X74.295Y-101.56
X74.295Y-114.27
X74.295Y-121.89
X74.93Y-38.07
X74.93Y-53.31
X76.83Y-110.49
X76.835Y-62.2
X76.835Y-77.44
X76.835Y-86.32
X76.835Y-101.56
X76.835Y-114.27
X76.835Y-121.89
X77.47Y-38.07
X77.47Y-53.31
X79.37Y-110.49
X79.375Y-62.2
X79.375Y-77.44
X79.375Y-86.32
X79.375Y-101.56
X79.375Y-114.27
X79.375Y-121.89
X80.01Y-38.07
X80.01Y-53.31
X81.91Y-110.49
X81.915Y-62.2
X81.915Y-77.44
X81.915Y-86.32
X81.915Y-101.56
X81.915Y-114.27
X81.915Y-121.89
X82.55Y-38.07
X82.55Y-53.31
X84.45Y-110.49
X84.455Y-62.2
X84.455Y-77.44
X84.455Y-86.32
X84.455Y-101.56
X84.455Y-114.27
X84.455Y-121.89
X85.09Y-38.07
X85.09Y-53.31
X86.99Y-110.49
X86.995Y-62.2
X86.995Y-77.44
X86.995Y-86.32
X86.995Y-101.56
X86.995Y-114.27
X86.995Y-121.89
X87.63Y-38.07
X87.63Y-53.31
X89.53Y-110.49
X89.535Y-62.2
X89.535Y-77.44
X89.535Y-86.32
X89.535Y-101.56
X89.535Y-114.27
X89.535Y-121.89
X90.17Y-38.07
X90.17Y-53.31
X92.07Y-110.49
X92.075Y-62.2
X92.075Y-77.44
X92.075Y-86.32
X92.075Y-101.56
X92.075Y-114.27
X92.075Y-121.89
X92.71Y-38.07
X92.71Y-53.31
X94.615Y-62.2
X94.615Y-77.44
X94.615Y-86.32
X94.615Y-101.56
X94.615Y-114.27
X94.615Y-121.89
X95.25Y-38.07
X95.25Y-53.31
X97.155Y-62.2
X97.155Y-77.44
X97.155Y-86.32
X97.155Y-101.56
X97.79Y-38.07
X97.79Y-53.31
X99.695Y-62.2
X99.695Y-77.44
X99.695Y-86.32
X99.695Y-101.56
X100.33Y-38.07
X100.33Y-53.31
X102.235Y-62.2
X102.235Y-77.44
X102.235Y-86.32
X102.235Y-101.56
X102.87Y-38.07
X102.87Y-53.31
X104.775Y-62.2
X104.775Y-77.44
X104.775Y-86.32
X104.775Y-101.56
X105.41Y-38.07
X105.41Y-53.31
X107.315Y-62.2
X107.315Y-77.44
X107.315Y-86.32
X107.315Y-101.56
X108.458Y-116.85
X108.458Y-119.35
X109.855Y-62.2
X109.855Y-77.44
X109.855Y-86.32
X109.855Y-101.56
X112.395Y-114.28
X112.395Y-121.9
X114.3Y-87.055
X114.3Y-89.555
X114.3Y-102.255
X114.3Y-104.755
X114.935Y-114.28
X114.935Y-121.9
X116.205Y-44.44
X116.205Y-46.94
X116.205Y-68.57
X116.205Y-71.07
X117.475Y-114.28
X117.475Y-121.9
X118.11Y-84.445
X118.11Y-92.065
X118.11Y-99.685
X118.11Y-107.305
X120.015Y-38.09
X120.015Y-53.33
X120.015Y-62.22
X120.015Y-77.46
X120.015Y-114.28
X120.015Y-121.9
X122.555Y-38.09
X122.555Y-53.33
X122.555Y-62.22
X122.555Y-77.46
X122.555Y-114.28
X122.555Y-121.9
X125.095Y-38.09
X125.095Y-53.33
X125.095Y-62.22
X125.095Y-77.46
X125.095Y-114.28
X125.095Y-121.9
X125.73Y-84.445
X125.73Y-92.065
X125.73Y-99.685
X125.73Y-107.305
X127.635Y-38.09
X127.635Y-53.33
X127.635Y-62.22
X127.635Y-77.46
X127.635Y-114.28
X127.635Y-121.9
X130.175Y-38.09
X130.175Y-53.33
X130.175Y-62.22
X130.175Y-77.46
X130.175Y-114.28
X130.175Y-121.9
X131.445Y-92.73
X131.445Y-95.23
X132.715Y-38.09
X132.715Y-53.33
X132.715Y-62.22
X132.715Y-77.46
X132.715Y-114.28
X132.715Y-121.9
X135.255Y-38.09
X135.255Y-53.33
X135.255Y-62.22
X135.255Y-77.46
X135.255Y-86.36
X135.255Y-101.6
X135.255Y-114.28
X135.255Y-121.9
X137.795Y-38.09
X137.795Y-53.33
X137.795Y-62.22
X137.795Y-77.46
X137.795Y-86.36
X137.795Y-101.6
X140.335Y-38.09
X140.335Y-53.33
X140.335Y-62.22
X140.335Y-77.46
X140.335Y-86.36
X140.335Y-101.6
X141.605Y-116.85
X141.605Y-119.35
X142.875Y-38.09
X142.875Y-53.33
X142.875Y-62.22
X142.875Y-77.46
X142.875Y-86.36
X142.875Y-101.6
X145.415Y-38.09
X145.415Y-53.33
X145.415Y-62.22
X145.415Y-77.46
X145.415Y-86.36
X145.415Y-101.6
X145.415Y-114.29
X145.415Y-121.91
X147.955Y-38.09
X147.955Y-53.33
X147.955Y-62.22
X147.955Y-77.46
X147.955Y-86.36
X147.955Y-101.6
X147.955Y-114.29
X147.955Y-121.91
X150.495Y-38.09
X150.495Y-53.33
X150.495Y-62.22
X150.495Y-77.46
X150.495Y-86.36
X150.495Y-101.6
X150.495Y-114.29
X150.495Y-121.91
X153.035Y-38.09
X153.035Y-53.33
X153.035Y-57.785
X153.035Y-62.22
X153.035Y-77.46
X153.035Y-86.36
X153.035Y-101.6
X153.035Y-114.29
X153.035Y-121.91
X155.575Y-38.09
X155.575Y-53.33
X155.575Y-57.785
X155.575Y-62.22
X155.575Y-77.46
X155.575Y-86.36
X155.575Y-101.6
X155.575Y-114.29
X155.575Y-121.91
X158.115Y-38.09
X158.115Y-53.33
X158.115Y-57.785
X158.115Y-62.22
X158.115Y-77.46
X158.115Y-86.36
X158.115Y-101.6
X158.115Y-114.29
X158.115Y-121.91
X160.655Y-38.09
X160.655Y-53.33
X160.655Y-57.785
X160.655Y-62.22
X160.655Y-77.46
X160.655Y-86.36
X160.655Y-101.6
X160.655Y-114.29
X160.655Y-121.91
X163.195Y-38.09
X163.195Y-53.33
X163.195Y-57.785
X163.195Y-62.22
X163.195Y-77.46
X163.195Y-86.36
X163.195Y-101.6
X163.195Y-114.29
X163.195Y-121.91
X165.735Y-38.09
X165.735Y-53.33
X165.735Y-57.785
X165.735Y-62.22
X165.735Y-77.46
X165.735Y-86.36
X165.735Y-101.6
X165.735Y-114.29
X165.735Y-121.91
X168.275Y-38.09
X168.275Y-53.33
X168.275Y-57.785
X168.275Y-62.22
X168.275Y-77.46
X168.275Y-86.36
X168.275Y-101.6
X168.275Y-114.29
X168.275Y-121.91
X174.625Y-40.66
X174.625Y-43.16
X174.625Y-55.9
X174.625Y-58.4
X174.625Y-71.14
X174.625Y-73.64
X174.625Y-86.38
X174.625Y-88.88
X174.625Y-101.63
X174.625Y-104.13
X174.625Y-116.84
X174.625Y-119.34
X178.562Y-38.1
X178.562Y-45.72
X178.562Y-53.34
X178.562Y-60.96
X178.562Y-83.82
X178.562Y-91.44
X178.562Y-95.25
X178.562Y-99.06
X178.562Y-106.68
X178.567Y-68.58
X178.567Y-76.2
X178.567Y-114.28
X178.567Y-121.9
X181.102Y-38.1
X181.102Y-45.72
X181.102Y-53.34
X181.102Y-60.96
X181.102Y-83.82
X181.102Y-91.44
X181.102Y-95.25
X181.102Y-99.06
X181.102Y-106.68
X181.107Y-68.58
X181.107Y-76.2
X181.107Y-114.28
X181.107Y-121.9
X183.642Y-38.1
X183.642Y-45.72
X183.642Y-53.34
X183.642Y-60.96
X183.642Y-83.82
X183.642Y-91.44
X183.642Y-95.25
X183.642Y-99.06
X183.642Y-106.68
X183.647Y-68.58
X183.647Y-76.2
X183.647Y-114.28
X183.647Y-121.9
X186.182Y-38.1
X186.182Y-45.72
X186.182Y-53.34
X186.182Y-60.96
X186.182Y-83.82
X186.182Y-91.44
X186.182Y-95.25
X186.182Y-99.06
X186.182Y-106.68
X186.187Y-68.58
X186.187Y-76.2
X186.187Y-114.28
X186.187Y-121.9
X188.722Y-38.1
X188.722Y-45.72
X188.722Y-53.34
X188.722Y-60.96
X188.722Y-83.82
X188.722Y-91.44
X188.722Y-95.25
X188.722Y-99.06
X188.722Y-106.68
X188.727Y-68.58
X188.727Y-76.2
X188.727Y-114.28
X188.727Y-121.9
X191.262Y-38.1
X191.262Y-45.72
X191.262Y-53.34
X191.262Y-60.96
X191.262Y-80.02
X191.262Y-83.82
X191.262Y-91.44
X191.262Y-95.25
X191.262Y-99.06
X191.262Y-106.68
X191.267Y-68.58
X191.267Y-76.2
X191.267Y-114.28
X191.267Y-121.9
X193.802Y-38.1
X193.802Y-45.72
X193.802Y-53.34
X193.802Y-60.96
X193.802Y-80.02
X193.802Y-83.82
X193.802Y-91.44
X193.802Y-95.25
X193.802Y-99.06
X193.802Y-106.68
X193.807Y-68.58
X193.807Y-76.2
X193.807Y-114.28
X193.807Y-121.9
X196.342Y-38.1
X196.342Y-45.72
X196.342Y-53.34
X196.342Y-60.96
X196.342Y-80.02
X196.342Y-83.82
X196.342Y-91.44
X196.342Y-95.25
X196.342Y-99.06
X196.342Y-106.68
X196.347Y-68.58
X196.347Y-76.2
X196.347Y-114.28
X196.347Y-121.9
X198.882Y-38.1
X198.882Y-45.72
X198.882Y-53.34
X198.882Y-60.96
X198.882Y-80.02
X198.882Y-83.82
X198.882Y-91.44
X198.882Y-95.25
X198.882Y-99.06
X198.882Y-106.68
X198.887Y-68.58
X198.887Y-76.2
X198.887Y-114.28
X198.887Y-121.9
X201.422Y-38.1
X201.422Y-45.72
X201.422Y-53.34
X201.422Y-60.96
X201.422Y-80.02
X201.422Y-83.82
X201.422Y-91.44
X201.422Y-95.25
X201.422Y-99.06
X201.422Y-106.68
X201.427Y-68.58
X201.427Y-76.2
X201.427Y-114.28
X201.427Y-121.9
X203.962Y-80.02
X203.962Y-83.82
X203.962Y-91.44
X203.962Y-95.25
X206.502Y-80.02
X206.502Y-83.82
X206.502Y-91.44
X207.645Y-101.62
X207.645Y-104.12
X207.645Y-116.945
X207.645Y-119.445
X211.397Y-99.125
X211.397Y-106.745
X211.397Y-114.365
X211.397Y-121.985
X213.937Y-99.125
X213.937Y-106.745
X213.937Y-114.365
X213.937Y-121.985
X215.265Y-40.725
X215.265Y-43.225
X215.265Y-55.965
X215.265Y-58.465
X215.265Y-71.205
X215.265Y-73.705
X215.265Y-86.435
X215.265Y-88.935
X216.477Y-99.125
X216.477Y-106.745
X216.477Y-114.365
X216.477Y-121.985
X219.012Y-38.165
X219.012Y-45.785
X219.017Y-53.405
X219.017Y-61.025
X219.017Y-68.645
X219.017Y-76.265
X219.017Y-83.885
X219.017Y-91.505
X219.017Y-99.125
X219.017Y-106.745
X219.017Y-114.365
X219.017Y-121.985
X220.942Y-49.595
X221.552Y-38.165
X221.552Y-45.785
X221.557Y-53.405
X221.557Y-61.025
X221.557Y-68.645
X221.557Y-76.265
X221.557Y-83.885
X221.557Y-91.505
X221.557Y-99.125
X221.557Y-106.745
X221.557Y-114.365
X221.557Y-121.985
X221.597Y-64.835
X223.442Y-49.595
X224.092Y-38.165
X224.092Y-45.785
X224.097Y-53.405
X224.097Y-61.025
X224.097Y-64.835
X224.097Y-68.645
X224.097Y-76.265
X224.097Y-83.885
X224.097Y-91.505
X224.097Y-99.125
X224.097Y-106.745
X224.097Y-114.365
X224.097Y-121.985
X226.632Y-38.165
X226.632Y-45.785
X226.637Y-53.405
X226.637Y-61.025
X226.637Y-68.645
X226.637Y-76.265
X226.637Y-83.885
X226.637Y-91.505
X226.637Y-99.125
X226.637Y-106.745
X226.637Y-114.365
X226.637Y-121.985
X229.172Y-38.165
X229.172Y-45.785
X229.177Y-53.405
X229.177Y-61.025
X229.177Y-68.645
X229.177Y-76.265
X229.177Y-83.885
X229.177Y-91.505
X229.177Y-99.125
X229.177Y-106.745
X229.177Y-114.365
X229.177Y-121.985
X231.712Y-38.165
X231.712Y-45.785
X231.717Y-53.405
X231.717Y-61.025
X231.717Y-68.645
X231.717Y-76.265
X231.717Y-83.885
X231.717Y-91.505
X231.717Y-99.125
X231.717Y-106.745
X231.717Y-114.365
X231.717Y-121.985
X234.252Y-38.165
X234.252Y-45.785
X234.257Y-53.405
X234.257Y-61.025
X234.257Y-68.645
X234.257Y-76.265
X234.257Y-83.885
X234.257Y-91.505
X234.257Y-99.125
X234.257Y-106.745
X234.257Y-114.365
X234.257Y-121.985
X243.782Y-47.71
X243.782Y-50.885
X243.782Y-54.06
X243.782Y-84.54
X243.782Y-87.715
X243.782Y-90.89
X253.942Y-47.71
X253.942Y-50.885
X253.942Y-54.06
X253.942Y-84.54
X253.942Y-87.715
X253.942Y-90.89
T4
X63.15Y-63.444
X63.15Y-65.984
X63.15Y-68.524
X63.15Y-71.064
X63.15Y-76.164
X63.15Y-78.704
X63.15Y-81.244
X63.15Y-83.784
X63.15Y-88.854
X63.15Y-91.394
X63.15Y-93.934
X63.15Y-96.474
X63.15Y-109.174
X63.15Y-111.714
X63.15Y-114.254
X63.15Y-116.794
X63.15Y-119.334
X63.15Y-121.874
X63.157Y-98.993
X63.157Y-101.533
X63.157Y-104.073
X63.157Y-106.613
X250.355Y-59.755
X250.355Y-62.295
X250.355Y-96.585
X250.355Y-99.125
T5
X243.99Y-68.34
X243.99Y-70.84
X243.99Y-72.84
X243.99Y-75.34
T6
X241.719Y-108.035
X241.719Y-110.535
X243.719Y-108.035
X243.719Y-110.535
T7
X210.127Y-54.675
X210.127Y-57.215
X210.127Y-59.755
X210.127Y-69.915
X210.127Y-72.455
X210.127Y-74.995
T8
X246.579Y-103.285
X246.579Y-115.285
X246.7Y-65.27
X246.7Y-78.41
T0
M30
