G04 #@! TF.GenerationSoftware,KiCad,Pcbnew,7.0.7*
G04 #@! TF.CreationDate,2023-09-15T21:48:08-04:00*
G04 #@! TF.ProjectId,2 - CPU and core components (Rev 2.2),32202d20-4350-4552-9061-6e6420636f72,rev?*
G04 #@! TF.SameCoordinates,Original*
G04 #@! TF.FileFunction,Soldermask,Bot*
G04 #@! TF.FilePolarity,Negative*
%FSLAX46Y46*%
G04 Gerber Fmt 4.6, Leading zero omitted, Abs format (unit mm)*
G04 Created by KiCad (PCBNEW 7.0.7) date 2023-09-15 21:48:08*
%MOMM*%
%LPD*%
G01*
G04 APERTURE LIST*
%ADD10C,1.600000*%
%ADD11R,1.800000X1.800000*%
%ADD12C,1.800000*%
%ADD13R,1.600000X1.600000*%
%ADD14O,1.600000X1.600000*%
%ADD15C,4.000000*%
%ADD16R,1.700000X1.700000*%
%ADD17O,1.700000X1.700000*%
%ADD18C,3.000000*%
%ADD19R,1.780000X7.620000*%
G04 APERTURE END LIST*
D10*
X215265000Y-58464600D03*
X215265000Y-55964600D03*
X174625000Y-71140000D03*
X174625000Y-73640000D03*
X215265000Y-86434600D03*
X215265000Y-88934600D03*
D11*
X63156800Y-98993000D03*
D12*
X63156800Y-101533000D03*
D10*
X174625000Y-40660000D03*
X174625000Y-43160000D03*
X116205000Y-71070000D03*
X116205000Y-68570000D03*
X68028000Y-116840000D03*
X68028000Y-119340000D03*
D13*
X71755000Y-121890000D03*
D14*
X74295000Y-121890000D03*
X76835000Y-121890000D03*
X79375000Y-121890000D03*
X81915000Y-121890000D03*
X84455000Y-121890000D03*
X86995000Y-121890000D03*
X89535000Y-121890000D03*
X92075000Y-121890000D03*
X94615000Y-121890000D03*
X94615000Y-114270000D03*
X92075000Y-114270000D03*
X89535000Y-114270000D03*
X86995000Y-114270000D03*
X84455000Y-114270000D03*
X81915000Y-114270000D03*
X79375000Y-114270000D03*
X76835000Y-114270000D03*
X74295000Y-114270000D03*
X71755000Y-114270000D03*
D11*
X63150000Y-76163800D03*
D12*
X63150000Y-78703800D03*
D13*
X219012100Y-45784600D03*
D14*
X221552100Y-45784600D03*
X224092100Y-45784600D03*
X226632100Y-45784600D03*
X229172100Y-45784600D03*
X231712100Y-45784600D03*
X234252100Y-45784600D03*
X234252100Y-38164600D03*
X231712100Y-38164600D03*
X229172100Y-38164600D03*
X226632100Y-38164600D03*
X224092100Y-38164600D03*
X221552100Y-38164600D03*
X219012100Y-38164600D03*
D10*
X68028000Y-92690000D03*
X68028000Y-95190000D03*
D13*
X67310000Y-53310000D03*
D14*
X69850000Y-53310000D03*
X72390000Y-53310000D03*
X74930000Y-53310000D03*
X77470000Y-53310000D03*
X80010000Y-53310000D03*
X82550000Y-53310000D03*
X85090000Y-53310000D03*
X87630000Y-53310000D03*
X90170000Y-53310000D03*
X92710000Y-53310000D03*
X95250000Y-53310000D03*
X97790000Y-53310000D03*
X100330000Y-53310000D03*
X102870000Y-53310000D03*
X105410000Y-53310000D03*
X105410000Y-38070000D03*
X102870000Y-38070000D03*
X100330000Y-38070000D03*
X97790000Y-38070000D03*
X95250000Y-38070000D03*
X92710000Y-38070000D03*
X90170000Y-38070000D03*
X87630000Y-38070000D03*
X85090000Y-38070000D03*
X82550000Y-38070000D03*
X80010000Y-38070000D03*
X77470000Y-38070000D03*
X74930000Y-38070000D03*
X72390000Y-38070000D03*
X69850000Y-38070000D03*
X67310000Y-38070000D03*
D10*
X116205000Y-46940000D03*
X116205000Y-44440000D03*
X223442100Y-49594600D03*
X220942100Y-49594600D03*
D11*
X63150000Y-119333800D03*
D12*
X63150000Y-121873800D03*
D10*
X131445000Y-92730000D03*
X131445000Y-95230000D03*
D13*
X241719000Y-108034600D03*
D10*
X241719000Y-110534600D03*
X243719000Y-110534600D03*
X243719000Y-108034600D03*
D15*
X246579000Y-103284600D03*
X246579000Y-115284600D03*
D13*
X71750000Y-110490000D03*
D14*
X74290000Y-110490000D03*
X76830000Y-110490000D03*
X79370000Y-110490000D03*
X81910000Y-110490000D03*
X84450000Y-110490000D03*
X86990000Y-110490000D03*
X89530000Y-110490000D03*
X92070000Y-110490000D03*
D10*
X174625000Y-86380000D03*
X174625000Y-88880000D03*
D11*
X250355100Y-62294600D03*
D12*
X250355100Y-59754600D03*
D13*
X71755000Y-101560000D03*
D14*
X74295000Y-101560000D03*
X76835000Y-101560000D03*
X79375000Y-101560000D03*
X81915000Y-101560000D03*
X84455000Y-101560000D03*
X86995000Y-101560000D03*
X89535000Y-101560000D03*
X92075000Y-101560000D03*
X94615000Y-101560000D03*
X97155000Y-101560000D03*
X99695000Y-101560000D03*
X102235000Y-101560000D03*
X104775000Y-101560000D03*
X107315000Y-101560000D03*
X109855000Y-101560000D03*
X109855000Y-86320000D03*
X107315000Y-86320000D03*
X104775000Y-86320000D03*
X102235000Y-86320000D03*
X99695000Y-86320000D03*
X97155000Y-86320000D03*
X94615000Y-86320000D03*
X92075000Y-86320000D03*
X89535000Y-86320000D03*
X86995000Y-86320000D03*
X84455000Y-86320000D03*
X81915000Y-86320000D03*
X79375000Y-86320000D03*
X76835000Y-86320000D03*
X74295000Y-86320000D03*
X71755000Y-86320000D03*
D13*
X211397100Y-106744600D03*
D14*
X213937100Y-106744600D03*
X216477100Y-106744600D03*
X219017100Y-106744600D03*
X221557100Y-106744600D03*
X224097100Y-106744600D03*
X226637100Y-106744600D03*
X229177100Y-106744600D03*
X231717100Y-106744600D03*
X234257100Y-106744600D03*
X234257100Y-99124600D03*
X231717100Y-99124600D03*
X229177100Y-99124600D03*
X226637100Y-99124600D03*
X224097100Y-99124600D03*
X221557100Y-99124600D03*
X219017100Y-99124600D03*
X216477100Y-99124600D03*
X213937100Y-99124600D03*
X211397100Y-99124600D03*
D16*
X210127100Y-69914600D03*
D17*
X210127100Y-72454600D03*
X210127100Y-74994600D03*
D11*
X63150000Y-68523800D03*
D12*
X63150000Y-71063800D03*
D16*
X210127100Y-59754600D03*
D17*
X210127100Y-57214600D03*
X210127100Y-54674600D03*
D13*
X120015000Y-53330000D03*
D14*
X122555000Y-53330000D03*
X125095000Y-53330000D03*
X127635000Y-53330000D03*
X130175000Y-53330000D03*
X132715000Y-53330000D03*
X135255000Y-53330000D03*
X137795000Y-53330000D03*
X140335000Y-53330000D03*
X142875000Y-53330000D03*
X145415000Y-53330000D03*
X147955000Y-53330000D03*
X150495000Y-53330000D03*
X153035000Y-53330000D03*
X155575000Y-53330000D03*
X158115000Y-53330000D03*
X160655000Y-53330000D03*
X163195000Y-53330000D03*
X165735000Y-53330000D03*
X168275000Y-53330000D03*
X168275000Y-38090000D03*
X165735000Y-38090000D03*
X163195000Y-38090000D03*
X160655000Y-38090000D03*
X158115000Y-38090000D03*
X155575000Y-38090000D03*
X153035000Y-38090000D03*
X150495000Y-38090000D03*
X147955000Y-38090000D03*
X145415000Y-38090000D03*
X142875000Y-38090000D03*
X140335000Y-38090000D03*
X137795000Y-38090000D03*
X135255000Y-38090000D03*
X132715000Y-38090000D03*
X130175000Y-38090000D03*
X127635000Y-38090000D03*
X125095000Y-38090000D03*
X122555000Y-38090000D03*
X120015000Y-38090000D03*
D13*
X120015000Y-77460000D03*
D14*
X122555000Y-77460000D03*
X125095000Y-77460000D03*
X127635000Y-77460000D03*
X130175000Y-77460000D03*
X132715000Y-77460000D03*
X135255000Y-77460000D03*
X137795000Y-77460000D03*
X140335000Y-77460000D03*
X142875000Y-77460000D03*
X145415000Y-77460000D03*
X147955000Y-77460000D03*
X150495000Y-77460000D03*
X153035000Y-77460000D03*
X155575000Y-77460000D03*
X158115000Y-77460000D03*
X160655000Y-77460000D03*
X163195000Y-77460000D03*
X165735000Y-77460000D03*
X168275000Y-77460000D03*
X168275000Y-62220000D03*
X165735000Y-62220000D03*
X163195000Y-62220000D03*
X160655000Y-62220000D03*
X158115000Y-62220000D03*
X155575000Y-62220000D03*
X153035000Y-62220000D03*
X150495000Y-62220000D03*
X147955000Y-62220000D03*
X145415000Y-62220000D03*
X142875000Y-62220000D03*
X140335000Y-62220000D03*
X137795000Y-62220000D03*
X135255000Y-62220000D03*
X132715000Y-62220000D03*
X130175000Y-62220000D03*
X127635000Y-62220000D03*
X125095000Y-62220000D03*
X122555000Y-62220000D03*
X120015000Y-62220000D03*
D13*
X118110000Y-92065000D03*
D14*
X125730000Y-92065000D03*
X125730000Y-84445000D03*
X118110000Y-84445000D03*
D11*
X63150000Y-81243800D03*
D12*
X63150000Y-83783800D03*
D13*
X135255000Y-101600000D03*
D14*
X137795000Y-101600000D03*
X140335000Y-101600000D03*
X142875000Y-101600000D03*
X145415000Y-101600000D03*
X147955000Y-101600000D03*
X150495000Y-101600000D03*
X153035000Y-101600000D03*
X155575000Y-101600000D03*
X158115000Y-101600000D03*
X160655000Y-101600000D03*
X163195000Y-101600000D03*
X165735000Y-101600000D03*
X168275000Y-101600000D03*
X168275000Y-86360000D03*
X165735000Y-86360000D03*
X163195000Y-86360000D03*
X160655000Y-86360000D03*
X158115000Y-86360000D03*
X155575000Y-86360000D03*
X153035000Y-86360000D03*
X150495000Y-86360000D03*
X147955000Y-86360000D03*
X145415000Y-86360000D03*
X142875000Y-86360000D03*
X140335000Y-86360000D03*
X137795000Y-86360000D03*
X135255000Y-86360000D03*
D10*
X243782100Y-90889600D03*
D14*
X253942100Y-90889600D03*
D13*
X178562000Y-60960000D03*
D14*
X181102000Y-60960000D03*
X183642000Y-60960000D03*
X186182000Y-60960000D03*
X188722000Y-60960000D03*
X191262000Y-60960000D03*
X193802000Y-60960000D03*
X196342000Y-60960000D03*
X198882000Y-60960000D03*
X201422000Y-60960000D03*
X201422000Y-53340000D03*
X198882000Y-53340000D03*
X196342000Y-53340000D03*
X193802000Y-53340000D03*
X191262000Y-53340000D03*
X188722000Y-53340000D03*
X186182000Y-53340000D03*
X183642000Y-53340000D03*
X181102000Y-53340000D03*
X178562000Y-53340000D03*
D11*
X63150000Y-88853800D03*
D12*
X63150000Y-91393800D03*
D13*
X145415000Y-121910000D03*
D14*
X147955000Y-121910000D03*
X150495000Y-121910000D03*
X153035000Y-121910000D03*
X155575000Y-121910000D03*
X158115000Y-121910000D03*
X160655000Y-121910000D03*
X163195000Y-121910000D03*
X165735000Y-121910000D03*
X168275000Y-121910000D03*
X168275000Y-114290000D03*
X165735000Y-114290000D03*
X163195000Y-114290000D03*
X160655000Y-114290000D03*
X158115000Y-114290000D03*
X155575000Y-114290000D03*
X153035000Y-114290000D03*
X150495000Y-114290000D03*
X147955000Y-114290000D03*
X145415000Y-114290000D03*
D11*
X63150000Y-93933800D03*
D12*
X63150000Y-96473800D03*
D10*
X215265000Y-73704600D03*
X215265000Y-71204600D03*
D13*
X219017100Y-61024600D03*
D14*
X221557100Y-61024600D03*
X224097100Y-61024600D03*
X226637100Y-61024600D03*
X229177100Y-61024600D03*
X231717100Y-61024600D03*
X234257100Y-61024600D03*
X234257100Y-53404600D03*
X231717100Y-53404600D03*
X229177100Y-53404600D03*
X226637100Y-53404600D03*
X224097100Y-53404600D03*
X221557100Y-53404600D03*
X219017100Y-53404600D03*
D10*
X243782100Y-47709600D03*
D14*
X253942100Y-47709600D03*
D10*
X63583000Y-44420000D03*
X63583000Y-46920000D03*
X114300000Y-102255000D03*
X114300000Y-104755000D03*
X141605000Y-116850000D03*
X141605000Y-119350000D03*
X243782100Y-50884600D03*
D14*
X253942100Y-50884600D03*
D10*
X174625000Y-116840000D03*
X174625000Y-119340000D03*
D13*
X206502000Y-80020000D03*
D14*
X203962000Y-80020000D03*
X201422000Y-80020000D03*
X198882000Y-80020000D03*
X196342000Y-80020000D03*
X193802000Y-80020000D03*
X191262000Y-80020000D03*
D10*
X174625000Y-101630000D03*
X174625000Y-104130000D03*
X114300000Y-87055000D03*
X114300000Y-89555000D03*
X224097100Y-64834600D03*
X221597100Y-64834600D03*
D13*
X243989700Y-75339600D03*
D10*
X243989700Y-72839600D03*
X243989700Y-70839600D03*
X243989700Y-68339600D03*
D18*
X246699700Y-78409600D03*
X246699700Y-65269600D03*
D13*
X178562000Y-106680000D03*
D14*
X181102000Y-106680000D03*
X183642000Y-106680000D03*
X186182000Y-106680000D03*
X188722000Y-106680000D03*
X191262000Y-106680000D03*
X193802000Y-106680000D03*
X196342000Y-106680000D03*
X198882000Y-106680000D03*
X201422000Y-106680000D03*
X201422000Y-99060000D03*
X198882000Y-99060000D03*
X196342000Y-99060000D03*
X193802000Y-99060000D03*
X191262000Y-99060000D03*
X188722000Y-99060000D03*
X186182000Y-99060000D03*
X183642000Y-99060000D03*
X181102000Y-99060000D03*
X178562000Y-99060000D03*
D13*
X118110000Y-107305000D03*
D14*
X125730000Y-107305000D03*
X125730000Y-99685000D03*
X118110000Y-99685000D03*
D10*
X243782100Y-87714600D03*
D14*
X253942100Y-87714600D03*
D13*
X178567000Y-121900000D03*
D14*
X181107000Y-121900000D03*
X183647000Y-121900000D03*
X186187000Y-121900000D03*
X188727000Y-121900000D03*
X191267000Y-121900000D03*
X193807000Y-121900000D03*
X196347000Y-121900000D03*
X198887000Y-121900000D03*
X201427000Y-121900000D03*
X201427000Y-114280000D03*
X198887000Y-114280000D03*
X196347000Y-114280000D03*
X193807000Y-114280000D03*
X191267000Y-114280000D03*
X188727000Y-114280000D03*
X186187000Y-114280000D03*
X183647000Y-114280000D03*
X181107000Y-114280000D03*
X178567000Y-114280000D03*
D10*
X243782100Y-54059600D03*
D14*
X253942100Y-54059600D03*
D10*
X207645000Y-116944600D03*
X207645000Y-119444600D03*
D13*
X219017100Y-91504600D03*
D14*
X221557100Y-91504600D03*
X224097100Y-91504600D03*
X226637100Y-91504600D03*
X229177100Y-91504600D03*
X231717100Y-91504600D03*
X234257100Y-91504600D03*
X234257100Y-83884600D03*
X231717100Y-83884600D03*
X229177100Y-83884600D03*
X226637100Y-83884600D03*
X224097100Y-83884600D03*
X221557100Y-83884600D03*
X219017100Y-83884600D03*
D11*
X63156800Y-104073000D03*
D12*
X63156800Y-106613000D03*
D13*
X153035000Y-57785000D03*
D14*
X155575000Y-57785000D03*
X158115000Y-57785000D03*
X160655000Y-57785000D03*
X163195000Y-57785000D03*
X165735000Y-57785000D03*
X168275000Y-57785000D03*
D10*
X243782100Y-84539600D03*
D14*
X253942100Y-84539600D03*
D13*
X219017100Y-76264600D03*
D14*
X221557100Y-76264600D03*
X224097100Y-76264600D03*
X226637100Y-76264600D03*
X229177100Y-76264600D03*
X231717100Y-76264600D03*
X234257100Y-76264600D03*
X234257100Y-68644600D03*
X231717100Y-68644600D03*
X229177100Y-68644600D03*
X226637100Y-68644600D03*
X224097100Y-68644600D03*
X221557100Y-68644600D03*
X219017100Y-68644600D03*
D10*
X68028000Y-68550000D03*
X68028000Y-71050000D03*
D13*
X178562000Y-95250000D03*
D14*
X181102000Y-95250000D03*
X183642000Y-95250000D03*
X186182000Y-95250000D03*
X188722000Y-95250000D03*
X191262000Y-95250000D03*
X193802000Y-95250000D03*
X196342000Y-95250000D03*
X198882000Y-95250000D03*
X201422000Y-95250000D03*
X203962000Y-95250000D03*
D10*
X174625000Y-55900000D03*
X174625000Y-58400000D03*
D11*
X63150000Y-114253800D03*
D12*
X63150000Y-116793800D03*
D13*
X178562000Y-45720000D03*
D14*
X181102000Y-45720000D03*
X183642000Y-45720000D03*
X186182000Y-45720000D03*
X188722000Y-45720000D03*
X191262000Y-45720000D03*
X193802000Y-45720000D03*
X196342000Y-45720000D03*
X198882000Y-45720000D03*
X201422000Y-45720000D03*
X201422000Y-38100000D03*
X198882000Y-38100000D03*
X196342000Y-38100000D03*
X193802000Y-38100000D03*
X191262000Y-38100000D03*
X188722000Y-38100000D03*
X186182000Y-38100000D03*
X183642000Y-38100000D03*
X181102000Y-38100000D03*
X178562000Y-38100000D03*
D10*
X207645000Y-101620000D03*
X207645000Y-104120000D03*
D13*
X178562000Y-91440000D03*
D14*
X181102000Y-91440000D03*
X183642000Y-91440000D03*
X186182000Y-91440000D03*
X188722000Y-91440000D03*
X191262000Y-91440000D03*
X193802000Y-91440000D03*
X196342000Y-91440000D03*
X198882000Y-91440000D03*
X201422000Y-91440000D03*
X203962000Y-91440000D03*
X206502000Y-91440000D03*
X206502000Y-83820000D03*
X203962000Y-83820000D03*
X201422000Y-83820000D03*
X198882000Y-83820000D03*
X196342000Y-83820000D03*
X193802000Y-83820000D03*
X191262000Y-83820000D03*
X188722000Y-83820000D03*
X186182000Y-83820000D03*
X183642000Y-83820000D03*
X181102000Y-83820000D03*
X178562000Y-83820000D03*
D11*
X63150000Y-63443800D03*
D12*
X63150000Y-65983800D03*
D10*
X108458000Y-116850000D03*
X108458000Y-119350000D03*
D13*
X211397100Y-121984600D03*
D14*
X213937100Y-121984600D03*
X216477100Y-121984600D03*
X219017100Y-121984600D03*
X221557100Y-121984600D03*
X224097100Y-121984600D03*
X226637100Y-121984600D03*
X229177100Y-121984600D03*
X231717100Y-121984600D03*
X234257100Y-121984600D03*
X234257100Y-114364600D03*
X231717100Y-114364600D03*
X229177100Y-114364600D03*
X226637100Y-114364600D03*
X224097100Y-114364600D03*
X221557100Y-114364600D03*
X219017100Y-114364600D03*
X216477100Y-114364600D03*
X213937100Y-114364600D03*
X211397100Y-114364600D03*
D13*
X178567000Y-76200000D03*
D14*
X181107000Y-76200000D03*
X183647000Y-76200000D03*
X186187000Y-76200000D03*
X188727000Y-76200000D03*
X191267000Y-76200000D03*
X193807000Y-76200000D03*
X196347000Y-76200000D03*
X198887000Y-76200000D03*
X201427000Y-76200000D03*
X201427000Y-68580000D03*
X198887000Y-68580000D03*
X196347000Y-68580000D03*
X193807000Y-68580000D03*
X191267000Y-68580000D03*
X188727000Y-68580000D03*
X186187000Y-68580000D03*
X183647000Y-68580000D03*
X181107000Y-68580000D03*
X178567000Y-68580000D03*
D11*
X63150000Y-109173800D03*
D12*
X63150000Y-111713800D03*
D19*
X236797100Y-135954600D03*
X234257100Y-135954600D03*
X231717100Y-135954600D03*
X229177100Y-135954600D03*
X226637100Y-135954600D03*
X224097100Y-135954600D03*
X221557100Y-135954600D03*
X219017100Y-135954600D03*
X216477100Y-135954600D03*
X213937100Y-135954600D03*
X211397100Y-135954600D03*
X208857100Y-135954600D03*
X206317100Y-135954600D03*
X203777100Y-135954600D03*
X201237100Y-135954600D03*
X198697100Y-135954600D03*
X196157100Y-135954600D03*
X193617100Y-135954600D03*
X191077100Y-135954600D03*
X188537100Y-135954600D03*
X185997100Y-135954600D03*
X183457100Y-135954600D03*
X180917100Y-135954600D03*
X178377100Y-135954600D03*
X175837100Y-135954600D03*
X173297100Y-135954600D03*
X170757100Y-135954600D03*
X168217100Y-135954600D03*
X165677100Y-135954600D03*
X163137100Y-135954600D03*
X160597100Y-135954600D03*
X150437100Y-135954600D03*
X147897100Y-135954600D03*
X145357100Y-135954600D03*
X142817100Y-135954600D03*
X140277100Y-135954600D03*
X137737100Y-135954600D03*
X135197100Y-135954600D03*
X132657100Y-135954600D03*
X130117100Y-135954600D03*
X127577100Y-135954600D03*
X125037100Y-135954600D03*
X122497100Y-135954600D03*
X119957100Y-135954600D03*
X117417100Y-135954600D03*
X114877100Y-135954600D03*
X112337100Y-135954600D03*
X109797100Y-135954600D03*
X107257100Y-135954600D03*
D13*
X112395000Y-121900000D03*
D14*
X114935000Y-121900000D03*
X117475000Y-121900000D03*
X120015000Y-121900000D03*
X122555000Y-121900000D03*
X125095000Y-121900000D03*
X127635000Y-121900000D03*
X130175000Y-121900000D03*
X132715000Y-121900000D03*
X135255000Y-121900000D03*
X135255000Y-114280000D03*
X132715000Y-114280000D03*
X130175000Y-114280000D03*
X127635000Y-114280000D03*
X125095000Y-114280000D03*
X122555000Y-114280000D03*
X120015000Y-114280000D03*
X117475000Y-114280000D03*
X114935000Y-114280000D03*
X112395000Y-114280000D03*
D11*
X250355100Y-99124600D03*
D12*
X250355100Y-96584600D03*
D10*
X215265000Y-40724600D03*
X215265000Y-43224600D03*
D13*
X71755000Y-77440000D03*
D14*
X74295000Y-77440000D03*
X76835000Y-77440000D03*
X79375000Y-77440000D03*
X81915000Y-77440000D03*
X84455000Y-77440000D03*
X86995000Y-77440000D03*
X89535000Y-77440000D03*
X92075000Y-77440000D03*
X94615000Y-77440000D03*
X97155000Y-77440000D03*
X99695000Y-77440000D03*
X102235000Y-77440000D03*
X104775000Y-77440000D03*
X107315000Y-77440000D03*
X109855000Y-77440000D03*
X109855000Y-62200000D03*
X107315000Y-62200000D03*
X104775000Y-62200000D03*
X102235000Y-62200000D03*
X99695000Y-62200000D03*
X97155000Y-62200000D03*
X94615000Y-62200000D03*
X92075000Y-62200000D03*
X89535000Y-62200000D03*
X86995000Y-62200000D03*
X84455000Y-62200000D03*
X81915000Y-62200000D03*
X79375000Y-62200000D03*
X76835000Y-62200000D03*
X74295000Y-62200000D03*
X71755000Y-62200000D03*
M02*
